<svg xmlns="http://www.w3.org/2000/svg" xmlns:xlink="http://www.w3.org/1999/xlink" xmlns:lucid="lucid" width="2961" height="1246.33"><g transform="translate(20 -299.99999999999994)" lucid:page-tab-id="0_0"><path d="M1741.73 849.55c0-3.3 2.7-6 6-6h228c3.3 0 6 2.7 6 6v48c0 3.3-2.7 6-6 6h-228c-3.3 0-6-2.7-6-6z" fill="none"/><path d="M0 826c0-3.3 2.7-6 6-6h788c3.3 0 6 2.7 6 6v148c0 3.3-2.7 6-6 6H6c-3.3 0-6-2.7-6-6z" stroke="#000" stroke-opacity="0" stroke-width="3" fill="#fff" fill-opacity="0"/><use xlink:href="#a" transform="matrix(1,0,0,1,5,825) translate(174.06666666666695 105.64166666666655)"/><path d="M680 838.5c0-3.3 2.7-6 6-6h648c3.3 0 6 2.7 6 6v123c0 3.3-2.7 6-6 6H686c-3.3 0-6-2.7-6-6z" stroke="#000" stroke-opacity="0" stroke-width="3" fill="#fff" fill-opacity="0"/><use xlink:href="#b" transform="matrix(1,0,0,1,685,837.5) translate(55.000000000000114 76.77083333333331)"/><use xlink:href="#c" transform="matrix(1,0,0,1,685,837.5) translate(162.22222222222229 76.77083333333331)"/><use xlink:href="#d" transform="matrix(1,0,0,1,685,837.5) translate(387.7777777777777 76.77083333333331)"/><g filter="url(#e)"><path d="M540 366.33c0 22.1-17.9 40-40 40s-40-17.9-40-40 17.9-40 40-40 40 17.9 40 40z" stroke="#5e5e5e" stroke-width="3" fill="#a3d977"/><use xlink:href="#f" transform="matrix(1,0,0,1,465,331.33333333333326) translate(23.888888888888893 41.97916666666666)"/></g><path d="M140 326c0-3.3 2.7-6 6-6h228c3.3 0 6 2.7 6 6v80.67c0 3.3-2.7 6-6 6H146c-3.3 0-6-2.7-6-6z" stroke="#000" stroke-opacity="0" stroke-width="3" fill="#fff" fill-opacity="0"/><use xlink:href="#g" transform="matrix(1,0,0,1,145,324.99999999999994) translate(13.867283950617349 57.70486111111108)"/><g filter="url(#e)"><path d="M740 366.33c0 22.1-17.9 40-40 40s-40-17.9-40-40 17.9-40 40-40 40 17.9 40 40z" stroke="#5e5e5e" stroke-width="3" fill="#a3d977"/><use xlink:href="#h" transform="matrix(1,0,0,1,665,331.33333333333326) translate(23.888888888888893 41.97916666666666)"/></g><g filter="url(#e)"><path d="M960 366.33c0 22.1-17.9 40-40 40s-40-17.9-40-40 17.9-40 40-40 40 17.9 40 40z" stroke="#5e5e5e" stroke-width="3" fill="#a3d977"/><use xlink:href="#i" transform="matrix(1,0,0,1,885,331.33333333333326) translate(23.009259259259263 41.97916666666666)"/></g><g filter="url(#e)"><path d="M1400 366.33c0 22.1-17.9 40-40 40s-40-17.9-40-40 17.9-40 40-40 40 17.9 40 40z" stroke="#5e5e5e" stroke-width="3" fill="#5abaa7"/><use xlink:href="#j" transform="matrix(1,0,0,1,1325,331.33333333333326) translate(23.009259259259263 41.97916666666666)"/></g><g filter="url(#e)"><path d="M1840 366.33c0 22.1-17.9 40-40 40s-40-17.9-40-40 17.9-40 40-40 40 17.9 40 40z" stroke="#5e5e5e" stroke-width="3" fill="#5abaa7"/><use xlink:href="#k" transform="matrix(1,0,0,1,1765,331.33333333333326) translate(23.888888888888893 41.97916666666666)"/></g><g filter="url(#e)"><path d="M1180 612.67c0 22.1-17.9 40-40 40s-40-17.9-40-40 17.9-40 40-40 40 17.9 40 40z" stroke="#5e5e5e" stroke-width="3" fill="#ff8f80"/><use xlink:href="#l" transform="matrix(1,0,0,1,1105,577.6666666666666) translate(23.888888888888893 41.97916666666666)"/></g><path d="M920 409.83v196.84c0 3.3 2.7 6 6 6h149.76" stroke="#3aa6dd" stroke-width="4" fill="none"/><path d="M919.98 407.83l2.02-.07v2.13h-4v-2.2z" fill="#3aa6dd"/><path d="M1092.03 612.67l-14.27 4.63v-9.27z" stroke="#3aa6dd" stroke-width="4" fill="#3aa6dd"/><g filter="url(#e)"><path d="M1620 612.67c0 22.1-17.9 40-40 40s-40-17.9-40-40 17.9-40 40-40 40 17.9 40 40z" stroke="#5e5e5e" stroke-width="3" fill="#ff8f80"/><use xlink:href="#m" transform="matrix(1,0,0,1,1545,577.6666666666666) translate(23.888888888888893 41.97916666666666)"/></g><g filter="url(#e)"><path d="M2060 612.67c0 22.1-17.9 40-40 40s-40-17.9-40-40 17.9-40 40-40 40 17.9 40 40z" stroke="#5e5e5e" stroke-width="3" fill="#ff8f80"/><use xlink:href="#n" transform="matrix(1,0,0,1,1985,577.6666666666666) translate(24.861111111111114 41.97916666666666)"/></g><path d="M542.5 366.33H640" stroke="#5e5e5e" stroke-width="2" fill="none"/><path d="M542.53 367.33h-1.1l.07-.98-.03-1.02h1.06z" fill="#5e5e5e"/><path d="M655.26 366.33L641 370.97v-9.27z" stroke="#5e5e5e" stroke-width="2" fill="#5e5e5e"/><path d="M742.5 366.33H860" stroke="#5e5e5e" stroke-width="2" fill="none"/><path d="M742.53 367.33h-1.1l.07-.98-.03-1.02h1.06z" fill="#5e5e5e"/><path d="M875.26 366.33L861 370.97v-9.27z" stroke="#5e5e5e" stroke-width="2" fill="#5e5e5e"/><path d="M963.5 366.33h332.26" stroke="#ef8d22" stroke-width="4" fill="none"/><path d="M963.55 368.33h-2.17l.12-1.98-.07-2.02h2.12z" fill="#ef8d22"/><path d="M1312.03 366.33l-14.27 4.64v-9.27z" stroke="#ef8d22" stroke-width="4" fill="#ef8d22"/><path d="M1403.5 366.33h332.26" stroke="#ef8d22" stroke-width="4" fill="none"/><path d="M1403.55 368.33h-2.17l.12-1.98-.07-2.02h2.12z" fill="#ef8d22"/><path d="M1752.03 366.33l-14.27 4.64v-9.27z" stroke="#ef8d22" stroke-width="4" fill="#ef8d22"/><path d="M1183.5 612.67h332.26" stroke="#3aa6dd" stroke-width="4" fill="none"/><path d="M1183.55 614.67h-2.17l.12-1.98-.07-2.03h2.12z" fill="#3aa6dd"/><path d="M1532.03 612.67l-14.27 4.63v-9.27z" stroke="#3aa6dd" stroke-width="4" fill="#3aa6dd"/><path d="M1623.5 612.67h332.26" stroke="#3aa6dd" stroke-width="4" fill="none"/><path d="M1623.55 614.67h-2.17l.12-1.98-.07-2.03h2.12z" fill="#3aa6dd"/><path d="M1972.03 612.67l-14.27 4.63v-9.27z" stroke="#3aa6dd" stroke-width="4" fill="#3aa6dd"/><path d="M140 566c0-3.3 2.7-6 6-6h228c3.3 0 6 2.7 6 6v80.67c0 3.3-2.7 6-6 6H146c-3.3 0-6-2.7-6-6z" stroke="#000" stroke-opacity="0" stroke-width="3" fill="#fff" fill-opacity="0"/><use xlink:href="#o" transform="matrix(1,0,0,1,145,565) translate(10.231481481481552 57.70486111111108)"/><path d="M1140 368.33v6.03m0 8.03v12.04m0 8.03v12.05m0 8.04v12.05m0 8.04v12.05m0 8.02v12.05m0 8.04v12.06m0 8.03v12.04m0 8.03v12.05m0 8.04v12.05m0 8.04v6.03M1140 368.38v-2.05" stroke="#5e5e5e" stroke-width="4" fill="none"/><path d="M1142 571.3l-1.98-.13-2.02.07v-2.13h4z" fill="#5e5e5e"/><path d="M1579.47 368.33v6.03m0 8.03v12.04m0 8.04v12.05m0 8.03v12.05m0 8.05v12.05m0 8.03v12.05m0 8.04v12.05m0 8.03v12.05m0 8.04v12.04m0 8.03v12.05m0 8.04v6.02M1579.47 368.38v-2.05" stroke="#5e5e5e" stroke-width="4" fill="none"/><path d="M1581.47 571.26l-1.45-.1-2.55.1v-2.13h4z" fill="#5e5e5e"/><path d="M1800 409.83v6.03m0 8.03v12.04m0 8.04v12.05m0 8.03v12.05m0 8.04v12.05m0 8.03v12.05m0 8.03v12.06m0 8.03v12.04m0 8.04v12.05m0 8.03v12.05m0 8.04v6.03" stroke="#5e5e5e" stroke-width="4" fill="none"/><path d="M1799.98 407.83l2.02-.07v2.13h-4v-2.2z" fill="#5e5e5e"/><path d="M1800 610.62v2.05" stroke="#5e5e5e" stroke-width="4" fill="none"/><g filter="url(#e)"><path d="M540 1240c0 22.1-17.9 40-40 40s-40-17.9-40-40 17.9-40 40-40 40 17.9 40 40z" stroke="#5e5e5e" stroke-width="3" fill="#a3d977"/><use xlink:href="#f" transform="matrix(1,0,0,1,465,1205) translate(23.888888888888893 41.97916666666666)"/></g><g filter="url(#e)"><path d="M740 1240c0 22.1-17.9 40-40 40s-40-17.9-40-40 17.9-40 40-40 40 17.9 40 40z" stroke="#5e5e5e" stroke-width="3" fill="#a3d977"/><use xlink:href="#h" transform="matrix(1,0,0,1,665,1205) translate(23.888888888888893 41.97916666666666)"/></g><g filter="url(#e)"><path d="M960 1240c0 22.1-17.9 40-40 40s-40-17.9-40-40 17.9-40 40-40 40 17.9 40 40z" stroke="#5e5e5e" stroke-width="3" fill="#a3d977"/><use xlink:href="#i" transform="matrix(1,0,0,1,885,1205) translate(23.009259259259263 41.97916666666666)"/></g><g filter="url(#e)"><path d="M1400 1240c0 22.1-17.9 40-40 40s-40-17.9-40-40 17.9-40 40-40 40 17.9 40 40z" stroke="#5e5e5e" stroke-width="3" fill="#5abaa7"/><use xlink:href="#j" transform="matrix(1,0,0,1,1324.9999999999998,1205) translate(23.009259259259263 41.97916666666666)"/></g><g filter="url(#e)"><path d="M1840 1240c0 22.1-17.9 40-40 40s-40-17.9-40-40 17.9-40 40-40 40 17.9 40 40z" stroke="#5e5e5e" stroke-width="3" fill="#5abaa7"/><use xlink:href="#k" transform="matrix(1,0,0,1,1765,1205) translate(23.888888888888893 41.97916666666666)"/></g><g filter="url(#e)"><path d="M1180 1480c0 22.1-17.9 40-40 40s-40-17.9-40-40 17.9-40 40-40 40 17.9 40 40z" stroke="#5e5e5e" stroke-width="3" fill="#ff8f80"/><use xlink:href="#l" transform="matrix(1,0,0,1,1105,1445) translate(23.888888888888893 41.97916666666666)"/></g><g filter="url(#e)"><path d="M1620 1480c0 22.1-17.9 40-40 40s-40-17.9-40-40 17.9-40 40-40 40 17.9 40 40z" stroke="#5e5e5e" stroke-width="3" fill="#ff8f80"/><use xlink:href="#m" transform="matrix(1,0,0,1,1544.9999999999998,1445) translate(23.888888888888893 41.97916666666666)"/></g><g filter="url(#e)"><path d="M2060 1480c0 22.1-17.9 40-40 40s-40-17.9-40-40 17.9-40 40-40 40 17.9 40 40z" stroke="#5e5e5e" stroke-width="3" fill="#ff8f80"/><use xlink:href="#n" transform="matrix(1,0,0,1,1985,1445) translate(24.861111111111114 41.97916666666666)"/></g><path d="M542.5 1240H640" stroke="#5e5e5e" stroke-width="2" fill="none"/><path d="M542.53 1241h-1.1l.07-.98-.03-1.02h1.06z" fill="#5e5e5e"/><path d="M655.26 1240l-14.26 4.64v-9.28z" stroke="#5e5e5e" stroke-width="2" fill="#5e5e5e"/><path d="M742.5 1240H860" stroke="#5e5e5e" stroke-width="2" fill="none"/><path d="M742.53 1241h-1.1l.07-.98-.03-1.02h1.06z" fill="#5e5e5e"/><path d="M875.26 1240l-14.26 4.64v-9.28z" stroke="#5e5e5e" stroke-width="2" fill="#5e5e5e"/><path d="M1183.5 1480h332.26" stroke="#3aa6dd" stroke-width="4" fill="none"/><path d="M1183.55 1482h-2.17l.12-1.98-.07-2.02h2.12z" fill="#3aa6dd"/><path d="M1532.03 1480l-14.27 4.64v-9.28z" stroke="#3aa6dd" stroke-width="4" fill="#3aa6dd"/><path d="M1623.5 1480h332.26" stroke="#3aa6dd" stroke-width="4" fill="none"/><path d="M1623.55 1482h-2.17l.12-1.98-.07-2.02h2.12z" fill="#3aa6dd"/><path d="M1972.03 1480l-14.27 4.64v-9.28z" stroke="#3aa6dd" stroke-width="4" fill="#3aa6dd"/><path d="M140 1199.67c0-3.32 2.7-6 6-6h228c3.3 0 6 2.68 6 6v80.66c0 3.32-2.7 6-6 6H146c-3.3 0-6-2.68-6-6z" stroke="#000" stroke-opacity="0" stroke-width="3" fill="#fff" fill-opacity="0"/><use xlink:href="#g" transform="matrix(1,0,0,1,145,1198.6666666666667) translate(13.867283950617349 57.70486111111108)"/><path d="M140 1439.67c0-3.32 2.7-6 6-6h228c3.3 0 6 2.68 6 6v80.66c0 3.32-2.7 6-6 6H146c-3.3 0-6-2.68-6-6z" stroke="#000" stroke-opacity="0" stroke-width="3" fill="#fff" fill-opacity="0"/><use xlink:href="#o" transform="matrix(1,0,0,1,145,1438.6666666666667) translate(10.231481481481552 57.70486111111108)"/><g filter="url(#p)"><path d="M2400 1222.5c0 45.56-53.73 82.5-120 82.5-66.27 0-120-36.94-120-82.5s53.73-82.5 120-82.5c66.27 0 120 36.94 120 82.5z" stroke="#5e5e5e" stroke-width="3" fill="#c7e8ac"/><use xlink:href="#q" transform="matrix(1,0,0,1,2165,1145) translate(67.8753703703704 41.19791666666666)"/><use xlink:href="#r" transform="matrix(1,0,0,1,2165,1145) translate(1.3888888888889284 81.19791666666664)"/><use xlink:href="#s" transform="matrix(1,0,0,1,2165,1145) translate(112.40740740740739 81.19791666666664)"/><use xlink:href="#t" transform="matrix(1,0,0,1,2165,1145) translate(32.736481481481505 121.19791666666663)"/><use xlink:href="#u" transform="matrix(1,0,0,1,2165,1145) translate(95.60685185185186 121.19791666666663)"/></g><g filter="url(#e)"><path d="M2920 1480c0 22.1-17.9 40-40 40s-40-17.9-40-40 17.9-40 40-40 40 17.9 40 40z" stroke="#5e5e5e" stroke-width="3" fill="#ff8f80"/><use xlink:href="#v" transform="matrix(1,0,0,1,2845,1445) translate(23.888888888888893 41.97916666666666)"/></g><path d="M2063.5 1480h752.26" stroke="#3aa6dd" stroke-width="4" fill="none"/><path d="M2063.55 1482h-2.17l.12-1.98-.07-2.02h2.12z" fill="#3aa6dd"/><path d="M2832.03 1480l-14.27 4.64v-9.28z" stroke="#3aa6dd" stroke-width="4" fill="#3aa6dd"/><path d="M945.93 1274.82l147.5 161.15" stroke="#ef8d22" stroke-width="4" fill="none"/><path d="M947.44 1273.5l-2.95 2.7-1.54-1.66 3.24-2.38z" fill="#ef8d22"/><path d="M1104.4 1447.97l-13.04-7.4 6.84-6.25z" stroke="#ef8d22" stroke-width="4" fill="#ef8d22"/><path d="M1173.22 1451.93l147.2-161.45" stroke="#ef8d22" stroke-width="4" fill="none"/><path d="M1174.73 1453.24l-1.65 1.82-1.2-1.65-1.4-1.44 1.3-1.4z" fill="#ef8d22"/><path d="M1331.38 1278.46l-6.2 13.67-6.84-6.25z" stroke="#ef8d22" stroke-width="4" fill="#ef8d22"/><path d="M1388.58 1272.74l145.92 162" stroke="#ef8d22" stroke-width="4" fill="none"/><path d="M1390.1 1271.43l-2.97 2.68-1.43-1.58.9-.65 2.1-2z" fill="#ef8d22"/><path d="M1545.4 1446.82l-13-7.5 6.9-6.2z" stroke="#ef8d22" stroke-width="4" fill="#ef8d22"/><path d="M1612.6 1451.3l144.83-163.26" stroke="#ef8d22" stroke-width="4" fill="none"/><path d="M1614.13 1452.58l-1.57 1.77-.7-.94-1.96-2.07 1.24-1.4z" fill="#ef8d22"/><path d="M1768.22 1275.87l-6 13.75-6.93-6.15z" stroke="#ef8d22" stroke-width="4" fill="#ef8d22"/><path d="M1832.16 1269.2l144.48 163.52" stroke="#ef8d22" stroke-width="4" fill="none"/><path d="M1833.7 1267.93l-3 2.65-1.25-1.42.92-.88 1.76-2.13z" fill="#ef8d22"/><path d="M1987.4 1444.9l-12.9-7.6 6.94-6.15z" stroke="#ef8d22" stroke-width="4" fill="#ef8d22"/><path d="M2051.38 1450l142.67-142.7" stroke="#ef8d22" stroke-width="4" fill="none"/><path d="M2052.83 1451.36l-1.5 1.5-2.74-2.9 1.4-1.42z" fill="#ef8d22"/><path d="M2205.56 1295.8l-6.8 13.37-6.57-6.55z" stroke="#ef8d22" stroke-width="4" fill="#ef8d22"/><g filter="url(#e)"><path d="M2660 1222.5c0 22.1-17.9 40-40 40s-40-17.9-40-40 17.9-40 40-40 40 17.9 40 40z" stroke="#5e5e5e" stroke-width="3" fill="#c7e8ac"/><use xlink:href="#w" transform="matrix(1,0,0,1,2585,1187.5) translate(24.861111111111114 41.97916666666666)"/></g><path d="M2403.5 1222.5h152.26" stroke="#ef8d22" stroke-width="4" fill="none"/><path d="M2403.55 1224.5h-2.1l.05-2v-1.25l-.04-.75h2.1z" fill="#ef8d22"/><path d="M2572.03 1222.5l-14.27 4.64v-9.28z" stroke="#ef8d22" stroke-width="4" fill="#ef8d22"/><path d="M1360 1283.5v5.84m0 7.78v11.67m0 7.77v11.67m0 7.78v11.67m0 7.77v11.67m0 7.78v11.67m0 7.77v11.67m0 7.78v11.67m0 7.77v11.67m0 7.78v11.67m0 7.77v5.83" stroke="#5e5e5e" stroke-width="4" fill="none"/><path d="M1359.98 1281.5l2.02-.07v2.12h-4v-2.17z" fill="#5e5e5e"/><path d="M1360 1477.95v2.05M1800 1283.5v5.84m0 7.78v11.67m0 7.77v11.67m0 7.78v11.67m0 7.77v11.67m0 7.78v11.67m0 7.77v11.67m0 7.78v11.67m0 7.77v11.67m0 7.78v11.67m0 7.77v5.83" stroke="#5e5e5e" stroke-width="4" fill="none"/><path d="M1799.98 1281.5l2.02-.07v2.12h-4v-2.17z" fill="#5e5e5e"/><path d="M1800 1477.95v2.05M2280 1308.5v6.36m0 8.47v12.7m0 8.5v12.7m0 8.48v12.72m0 8.47v12.7m0 8.48v12.7m0 8.5v12.7m0 8.48v12.7m0 8.48v6.36" stroke="#5e5e5e" stroke-width="4" fill="none"/><path d="M2280 1306.5l2-.02v2.07h-4v-2.1z" fill="#5e5e5e"/><path d="M2280 1477.95v2.05M2620 1266v5.78m0 7.7v11.58m0 7.7v11.57m0 7.7v11.57m0 7.7v11.57m0 7.7v11.58m0 7.7v11.57m0 7.7v11.57m0 7.7v11.56m0 7.7v11.58m0 7.7v11.57m0 7.72v5.78" stroke="#5e5e5e" stroke-width="4" fill="none"/><path d="M2619.98 1264l2.02-.07v2.12h-4v-2.17z" fill="#5e5e5e"/><path d="M2620 1477.95v2.05" stroke="#5e5e5e" stroke-width="4" fill="none"/><defs><path fill="#333" d="M219-119c-3 71 16 81 72 85V0H20v-34c50 2 68-17 68-75v-215c5-24-42-42-70-49v-27l181-61h20v123c117-83 176-111 232-111 61 0 102 41 111 111 47-38 178-111 237-111 78 0 112 56 112 184v130c1 84-3 93 60 101V0H719v-34c48-6 61-36 61-141v-64c0-91-19-129-66-129-34 0-74 18-148 67v182c-3 65 14 79 60 85V0H374v-34c95 9 61-147 61-229 0-71-21-105-65-105-39 0-81 19-151 69v180" id="x"/><path fill="#333" d="M37-209c0-140 96-240 230-240 104 0 172 56 185 159 3 17 8 26 21 34v24H174c6 91 66 164 136 164 38 0 78-23 129-77l24 21C402-39 316 11 233 11 117 11 37-79 37-209zm135-57h153c-1-82-29-132-76-132-49-1-81 58-77 132" id="y"/><path fill="#333" d="M20 0v-34c50 2 68-17 68-75v-176c6-63-27-67-68-83v-27l176-66h23v120c69-113 55-119 140-98l62 24c-12 41-33 89-51 114-26-8-58-27-88-27-20 0-40 15-63 48v161c-4 81 28 88 100 85V0H20" id="z"/><path fill="#333" d="M304-55c133 0 255 22 255 124S428 248 255 248c-123 0-218-46-218-107 0-31 19-51 67-72 21-9 28-15 37-30C54 15 6-85 103-123c15-6 30-11 92-30-74-4-140-67-140-132 0-93 95-164 219-164 58 0 106 14 144 42l152-39v111l-108-25c79 126-69 231-204 219-73 25-89 34-89 51 0 22 48 35 135 35zm-31-129c50 0 78-34 78-96 0-77-32-125-84-125-50 0-80 38-80 101 0 78 30 120 86 120zM192 50c-96 65-3 152 117 152 87 0 154-39 154-90 0-39-31-58-106-55-53 3-130 4-165-7" id="A"/><path fill="#333" d="M165-305c-47 0-83-31-83-72s38-72 86-72c50 0 86 30 86 71 0 42-38 73-89 73zM82-61c0-41 38-72 86-72 50 0 86 30 86 71 0 42-38 73-89 73-47 0-83-31-83-72" id="B"/><g id="a"><use transform="matrix(0.13333333333333316,0,0,0.13333333333333316,0,0)" xlink:href="#x"/><use transform="matrix(0.13333333333333316,0,0,0.13333333333333316,131.73333333333315,0)" xlink:href="#y"/><use transform="matrix(0.13333333333333316,0,0,0.13333333333333316,197.8666666666664,0)" xlink:href="#z"/><use transform="matrix(0.13333333333333316,0,0,0.13333333333333316,253.19999999999965,0)" xlink:href="#A"/><use transform="matrix(0.13333333333333316,0,0,0.13333333333333316,329.7333333333329,0)" xlink:href="#y"/><use transform="matrix(0.13333333333333316,0,0,0.13333333333333316,397.1999999999995,0)" xlink:href="#B"/></g><path fill="#333" d="M177-190C167-65 218 103 67 71c-23-6-38-20-44-43l32-5c15 47 100 32 89-28v-30C133-14 115 1 83 1 29 1 15-40 15-95c0-56 16-97 71-98 29-1 48 16 59 35 1-10 0-23 2-32h30zM94-22c36 0 50-32 50-73 0-42-14-75-50-75-39 0-46 34-46 75s6 73 46 73" id="C"/><path fill="#333" d="M24-231v-30h32v30H24zM24 0v-190h32V0H24" id="D"/><path fill="#333" d="M59-47c-2 24 18 29 38 22v24C64 9 27 4 27-40v-127H5v-23h24l9-43h21v43h35v23H59v120" id="E"/><g id="b"><use transform="matrix(0.18518518518518512,0,0,0.18518518518518512,0,0)" xlink:href="#C"/><use transform="matrix(0.18518518518518512,0,0,0.18518518518518512,37.037037037037024,0)" xlink:href="#D"/><use transform="matrix(0.18518518518518512,0,0,0.18518518518518512,51.66666666666665,0)" xlink:href="#E"/></g><path fill="#333" d="M210-169c-67 3-38 105-44 169h-31v-121c0-29-5-50-35-48C34-165 62-65 56 0H25l-1-190h30c1 10-1 24 2 32 10-44 99-50 107 0 11-21 27-35 58-36 85-2 47 119 55 194h-31v-121c0-29-5-49-35-48" id="F"/><path fill="#333" d="M100-194c63 0 86 42 84 106H49c0 40 14 67 53 68 26 1 43-12 49-29l28 8c-11 28-37 45-77 45C44 4 14-33 15-96c1-61 26-98 85-98zm52 81c6-60-76-77-97-28-3 7-6 17-6 28h103" id="G"/><path fill="#333" d="M114-163C36-179 61-72 57 0H25l-1-190h30c1 12-1 29 2 39 6-27 23-49 58-41v29" id="H"/><g id="c"><use transform="matrix(0.18518518518518512,0,0,0.18518518518518512,0,0)" xlink:href="#F"/><use transform="matrix(0.18518518518518512,0,0,0.18518518518518512,55.37037037037035,0)" xlink:href="#G"/><use transform="matrix(0.18518518518518512,0,0,0.18518518518518512,92.40740740740738,0)" xlink:href="#H"/><use transform="matrix(0.18518518518518512,0,0,0.18518518518518512,114.4444444444444,0)" xlink:href="#C"/><use transform="matrix(0.18518518518518512,0,0,0.18518518518518512,151.4814814814814,0)" xlink:href="#G"/></g><path fill="#333" d="M101-234c-31-9-42 10-38 44h38v23H63V0H32v-167H5v-23h27c-7-52 17-82 69-68v24" id="I"/><path fill="#333" d="M141-36C126-15 110 5 73 4 37 3 15-17 15-53c-1-64 63-63 125-63 3-35-9-54-41-54-24 1-41 7-42 31l-33-3c5-37 33-52 76-52 45 0 72 20 72 64v82c-1 20 7 32 28 27v20c-31 9-61-2-59-35zM48-53c0 20 12 33 32 33 41-3 63-29 60-74-43 2-92-5-92 41" id="J"/><path fill="#333" d="M84 4C-5 8 30-112 23-190h32v120c0 31 7 50 39 49 72-2 45-101 50-169h31l1 190h-30c-1-10 1-25-2-33-11 22-28 36-60 37" id="K"/><g id="d"><use transform="matrix(0.18518518518518512,0,0,0.18518518518518512,0,0)" xlink:href="#I"/><use transform="matrix(0.18518518518518512,0,0,0.18518518518518512,18.518518518518512,0)" xlink:href="#G"/><use transform="matrix(0.18518518518518512,0,0,0.18518518518518512,55.555555555555536,0)" xlink:href="#J"/><use transform="matrix(0.18518518518518512,0,0,0.18518518518518512,92.59259259259255,0)" xlink:href="#E"/><use transform="matrix(0.18518518518518512,0,0,0.18518518518518512,111.11111111111106,0)" xlink:href="#K"/><use transform="matrix(0.18518518518518512,0,0,0.18518518518518512,148.1481481481481,0)" xlink:href="#H"/><use transform="matrix(0.18518518518518512,0,0,0.18518518518518512,170.18518518518513,0)" xlink:href="#G"/></g><path fill="#333" d="M205 0l-28-72H64L36 0H1l101-248h38L239 0h-34zm-38-99l-47-123c-12 45-31 82-46 123h93" id="L"/><use transform="matrix(0.09259259259259256,0,0,0.09259259259259256,0,0)" xlink:href="#L" id="f"/><filter id="e" filterUnits="objectBoundingBox" x="-.13" y="-.05" width="1.25" height="1.25"><feOffset result="offOut" in="SourceAlpha" dy="6"/><feGaussianBlur result="blurOut" in="offOut" stdDeviation="5"/><feColorMatrix result="colorOut" in="blurOut" values="0 0 0 0 0 0 0 0 0 0 0 0 0 0 0 0 0 0 0.5019607843137255 0"/><feBlend in="SourceGraphic" in2="colorOut"/></filter><path fill="#333" d="M126-118c4-37-42-32-68-25v131l24 4v8H8C5-13 21-9 28-12v-141c-7-3-23 1-20-12h48l1 13c22-15 77-30 92 2 32-22 104-36 104 29v109c8 3 24-2 21 12h-75v-8l25-4v-106c3-39-45-31-72-24 7 37 1 88 3 130l25 4v8h-78v-8l24-4v-106" id="M"/><path fill="#333" d="M32-163c41-10 102-14 102 39v112c8 3 24-2 21 12h-45l-4-17C83 13 3 13 13-46c-2-50 45-50 92-51 4-36-5-70-42-56-6 2-12 4-16 6-4 7 0 23-15 20v-36zM42-47c0 41 41 33 63 22v-59c-34 1-63-1-63 37" id="N"/><path fill="#333" d="M41-130c7 48 86 23 86 84 0 56-69 57-112 41v-40c20 0 9 29 31 31 35 19 77-26 41-50-27-18-72-13-72-59 0-50 58-52 100-41v36c-19 1-8-25-28-25-21-7-50-1-46 23" id="O"/><path fill="#333" d="M54-38c-1 25 24 26 44 20v12C71 10 25 9 25-35v-115H4c-2-14 14-10 21-15l18-38h11v38h38v15H54v112" id="P"/><path fill="#333" d="M84-170c49 0 66 33 63 87H46c-8 60 38 80 95 63v10C128-2 108 4 88 4 34 4 14-29 14-84c-1-54 22-86 70-86zm33 73c12-57-57-82-69-24-1 7-2 15-2 24h71" id="Q"/><path fill="#333" d="M57-145c16-10 35-24 60-25v45c-19 1-8-30-40-17l-20 6v124l29 4v8H7v-8l21-4v-141c-8-3-24 2-21-12h48" id="R"/><path fill="#333" d="M50-37c14 0 21 9 21 21S62 5 50 5C37 5 28-4 28-16s8-21 22-21zm0-132c12 0 21 9 21 21 0 13-9 22-21 22-13 0-22-9-22-22 0-12 9-21 22-21" id="S"/><g id="g"><use transform="matrix(0.1913580246913579,0,0,0.1913580246913579,0,0)" xlink:href="#M"/><use transform="matrix(0.1913580246913579,0,0,0.1913580246913579,53.58024691358021,0)" xlink:href="#N"/><use transform="matrix(0.1913580246913579,0,0,0.1913580246913579,84.00617283950612,0)" xlink:href="#O"/><use transform="matrix(0.1913580246913579,0,0,0.1913580246913579,110.79629629629622,0)" xlink:href="#P"/><use transform="matrix(0.1913580246913579,0,0,0.1913580246913579,129.93209876543202,0)" xlink:href="#Q"/><use transform="matrix(0.1913580246913579,0,0,0.1913580246913579,160.3580246913579,0)" xlink:href="#R"/><use transform="matrix(0.1913580246913579,0,0,0.1913580246913579,183.1296296296295,0)" xlink:href="#S"/></g><path fill="#333" d="M160-131c35 5 61 23 61 61C221 17 115-2 30 0v-248c76 3 177-17 177 60 0 33-19 50-47 57zm-97-11c50-1 110 9 110-42 0-47-63-36-110-37v79zm0 115c55-2 124 14 124-45 0-56-70-42-124-44v89" id="T"/><use transform="matrix(0.09259259259259256,0,0,0.09259259259259256,0,0)" xlink:href="#T" id="h"/><path fill="#333" d="M212-179c-10-28-35-45-73-45-59 0-87 40-87 99 0 60 29 101 89 101 43 0 62-24 78-52l27 14C228-24 195 4 139 4 59 4 22-46 18-125c-6-104 99-153 187-111 19 9 31 26 39 46" id="U"/><use transform="matrix(0.09259259259259256,0,0,0.09259259259259256,0,0)" xlink:href="#U" id="i"/><path fill="#333" d="M30-248c118-7 216 8 213 122C240-48 200 0 122 0H30v-248zM63-27c89 8 146-16 146-99s-60-101-146-95v194" id="V"/><use transform="matrix(0.09259259259259256,0,0,0.09259259259259256,0,0)" xlink:href="#V" id="j"/><path fill="#333" d="M30 0v-248h187v28H63v79h144v27H63v87h162V0H30" id="W"/><use transform="matrix(0.09259259259259256,0,0,0.09259259259259256,0,0)" xlink:href="#W" id="k"/><path fill="#333" d="M195 0l-74-108L45 0H8l94-129-87-119h37l69 98 67-98h37l-84 118L233 0h-38" id="X"/><use transform="matrix(0.09259259259259256,0,0,0.09259259259259256,0,0)" xlink:href="#X" id="l"/><path fill="#333" d="M137-103V0h-34v-103L8-248h37l75 118 75-118h37" id="Y"/><use transform="matrix(0.09259259259259256,0,0,0.09259259259259256,0,0)" xlink:href="#Y" id="m"/><path fill="#333" d="M209 0H11v-25l151-195H24v-28h176v25L50-27h159V0" id="Z"/><use transform="matrix(0.09259259259259256,0,0,0.09259259259259256,0,0)" xlink:href="#Z" id="n"/><path fill="#333" d="M103-236c-39-15-35 32-34 71h44v15H69v136l35 6v8H15v-8l25-6v-136H11v-9l29-7c-6-59 23-100 80-84v36c-15 2-12-14-17-22" id="aa"/><path fill="#333" d="M124-13C89 8 26 15 26-45v-108c-8-3-24 2-21-12h50v118c-3 37 42 32 69 25v-131l-25-4v-8h54v153c8 3 24-2 21 12h-48" id="ab"/><g id="o"><use transform="matrix(0.1913580246913579,0,0,0.1913580246913579,0,0)" xlink:href="#aa"/><use transform="matrix(0.1913580246913579,0,0,0.1913580246913579,22.77160493827159,0)" xlink:href="#Q"/><use transform="matrix(0.1913580246913579,0,0,0.1913580246913579,53.197530864197496,0)" xlink:href="#N"/><use transform="matrix(0.1913580246913579,0,0,0.1913580246913579,83.6234567901234,0)" xlink:href="#P"/><use transform="matrix(0.1913580246913579,0,0,0.1913580246913579,102.75925925925917,0)" xlink:href="#ab"/><use transform="matrix(0.1913580246913579,0,0,0.1913580246913579,137.2037037037036,0)" xlink:href="#R"/><use transform="matrix(0.1913580246913579,0,0,0.1913580246913579,159.9753086419752,0)" xlink:href="#Q"/><use transform="matrix(0.1913580246913579,0,0,0.1913580246913579,190.4012345679011,0)" xlink:href="#S"/></g><path fill="#333" d="M240 0l2-218c-23 76-54 145-80 218h-23L58-218 59 0H30v-248h44l77 211c21-75 51-140 76-211h43V0h-30" id="ac"/><g id="q"><use transform="matrix(0.09259259259259256,0,0,0.09259259259259256,0,0)" xlink:href="#ac"/><use transform="matrix(0.09259259259259256,0,0,0.09259259259259256,27.685185185185176,0)" xlink:href="#G"/><use transform="matrix(0.09259259259259256,0,0,0.09259259259259256,46.20370370370369,0)" xlink:href="#H"/><use transform="matrix(0.09259259259259256,0,0,0.09259259259259256,57.2222222222222,0)" xlink:href="#C"/><use transform="matrix(0.09259259259259256,0,0,0.09259259259259256,75.7407407407407,0)" xlink:href="#G"/></g><path fill="#333" d="M115-194c53 0 69 39 70 98 0 66-23 100-70 100C84 3 66-7 56-30L54 0H23l1-261h32v101c10-23 28-34 59-34zm-8 174c40 0 45-34 45-75 0-40-5-75-45-74-42 0-51 32-51 76 0 43 10 73 51 73" id="ad"/><path fill="#333" d="M117-194c89-4 53 116 60 194h-32v-121c0-31-8-49-39-48C34-167 62-67 57 0H25l-1-190h30c1 10-1 24 2 32 11-22 29-35 61-36" id="ae"/><path fill="#333" d="M96-169c-40 0-48 33-48 73s9 75 48 75c24 0 41-14 43-38l32 2c-6 37-31 61-74 61-59 0-76-41-82-99-10-93 101-131 147-64 4 7 5 14 7 22l-32 3c-4-21-16-35-41-35" id="af"/><path fill="#333" d="M106-169C34-169 62-67 57 0H25v-261h32l-1 103c12-21 28-36 61-36 89 0 53 116 60 194h-32v-121c2-32-8-49-39-48" id="ag"/><g id="r"><use transform="matrix(0.09259259259259256,0,0,0.09259259259259256,0,0)" xlink:href="#ad"/><use transform="matrix(0.09259259259259256,0,0,0.09259259259259256,18.518518518518512,0)" xlink:href="#H"/><use transform="matrix(0.09259259259259256,0,0,0.09259259259259256,29.537037037037027,0)" xlink:href="#J"/><use transform="matrix(0.09259259259259256,0,0,0.09259259259259256,48.055555555555536,0)" xlink:href="#ae"/><use transform="matrix(0.09259259259259256,0,0,0.09259259259259256,66.57407407407405,0)" xlink:href="#af"/><use transform="matrix(0.09259259259259256,0,0,0.09259259259259256,83.2407407407407,0)" xlink:href="#ag"/></g><path fill="#333" d="M47-170H22l-4-78h33" id="ah"/><g id="s"><use transform="matrix(0.09259259259259256,0,0,0.09259259259259256,0,0)" xlink:href="#ah"/><use transform="matrix(0.09259259259259256,0,0,0.09259259259259256,6.296296296296294,0)" xlink:href="#I"/><use transform="matrix(0.09259259259259256,0,0,0.09259259259259256,15.55555555555555,0)" xlink:href="#G"/><use transform="matrix(0.09259259259259256,0,0,0.09259259259259256,34.07407407407406,0)" xlink:href="#J"/><use transform="matrix(0.09259259259259256,0,0,0.09259259259259256,52.592592592592574,0)" xlink:href="#E"/><use transform="matrix(0.09259259259259256,0,0,0.09259259259259256,61.85185185185183,0)" xlink:href="#K"/><use transform="matrix(0.09259259259259256,0,0,0.09259259259259256,80.37037037037035,0)" xlink:href="#H"/><use transform="matrix(0.09259259259259256,0,0,0.09259259259259256,91.38888888888887,0)" xlink:href="#G"/><use transform="matrix(0.09259259259259256,0,0,0.09259259259259256,109.90740740740739,0)" xlink:href="#ah"/></g><path fill="#333" d="M100-194c62-1 85 37 85 99 1 63-27 99-86 99S16-35 15-95c0-66 28-99 85-99zM99-20c44 1 53-31 53-75 0-43-8-75-51-75s-53 32-53 75 10 74 51 75" id="ai"/><g id="t"><use transform="matrix(0.09259259259259256,0,0,0.09259259259259256,0,0)" xlink:href="#D"/><use transform="matrix(0.09259259259259256,0,0,0.09259259259259256,7.314814814814812,0)" xlink:href="#ae"/><use transform="matrix(0.09259259259259256,0,0,0.09259259259259256,25.833333333333325,0)" xlink:href="#E"/><use transform="matrix(0.09259259259259256,0,0,0.09259259259259256,35.09259259259258,0)" xlink:href="#ai"/></g><path fill="#333" d="M135-143c-3-34-86-38-87 0 15 53 115 12 119 90S17 21 10-45l28-5c4 36 97 45 98 0-10-56-113-15-118-90-4-57 82-63 122-42 12 7 21 19 24 35" id="aj"/><g id="u"><use transform="matrix(0.09259259259259256,0,0,0.09259259259259256,0,0)" xlink:href="#F"/><use transform="matrix(0.09259259259259256,0,0,0.09259259259259256,27.685185185185176,0)" xlink:href="#J"/><use transform="matrix(0.09259259259259256,0,0,0.09259259259259256,46.20370370370369,0)" xlink:href="#aj"/><use transform="matrix(0.09259259259259256,0,0,0.09259259259259256,62.870370370370345,0)" xlink:href="#E"/><use transform="matrix(0.09259259259259256,0,0,0.09259259259259256,72.1296296296296,0)" xlink:href="#G"/><use transform="matrix(0.09259259259259256,0,0,0.09259259259259256,90.64814814814812,0)" xlink:href="#H"/></g><filter id="p" filterUnits="objectBoundingBox" x="-.04" y="-.02" width="1.08" height="1.12"><feOffset result="offOut" in="SourceAlpha" dy="6"/><feGaussianBlur result="blurOut" in="offOut" stdDeviation="5"/><feColorMatrix result="colorOut" in="blurOut" values="0 0 0 0 0 0 0 0 0 0 0 0 0 0 0 0 0 0 0.5019607843137255 0"/><feBlend in="SourceGraphic" in2="colorOut"/></filter><path fill="#333" d="M194 0L95-120 63-95V0H30v-248h33v124l119-124h40L117-140 236 0h-42" id="ak"/><use transform="matrix(0.09259259259259256,0,0,0.09259259259259256,0,0)" xlink:href="#ak" id="v"/><path fill="#333" d="M63-220v92h138v28H63V0H30v-248h175v28H63" id="al"/><use transform="matrix(0.09259259259259256,0,0,0.09259259259259256,0,0)" xlink:href="#al" id="w"/></defs></g></svg>