<svg xmlns="http://www.w3.org/2000/svg" xmlns:xlink="http://www.w3.org/1999/xlink" xmlns:lucid="lucid" width="2541" height="1135.17"><g transform="translate(20 -293.6666666666667)" lucid:page-tab-id="0_0"><g filter="url(#a)"><path d="M540 360c0 22.1-17.9 40-40 40s-40-17.9-40-40 17.9-40 40-40 40 17.9 40 40z" stroke="#5e5e5e" stroke-width="3" fill="#a3d977"/><use xlink:href="#b" transform="matrix(1,0,0,1,465,325) translate(23.888888888888893 41.97916666666666)"/></g><path d="M140 319.67c0-3.32 2.7-6 6-6h228c3.3 0 6 2.68 6 6v80.66c0 3.32-2.7 6-6 6H146c-3.3 0-6-2.68-6-6z" stroke="#000" stroke-opacity="0" stroke-width="3" fill="#fff" fill-opacity="0"/><use xlink:href="#c" transform="matrix(1,0,0,1,145,318.6666666666667) translate(13.867283950617349 57.70486111111108)"/><g filter="url(#a)"><path d="M740 360c0 22.1-17.9 40-40 40s-40-17.9-40-40 17.9-40 40-40 40 17.9 40 40z" stroke="#5e5e5e" stroke-width="3" fill="#a3d977"/><use xlink:href="#d" transform="matrix(1,0,0,1,665,325) translate(23.888888888888893 41.97916666666666)"/></g><g filter="url(#a)"><path d="M960 360c0 22.1-17.9 40-40 40s-40-17.9-40-40 17.9-40 40-40 40 17.9 40 40z" stroke="#5e5e5e" stroke-width="3" fill="#a3d977"/><use xlink:href="#e" transform="matrix(1,0,0,1,885,325) translate(23.009259259259263 41.97916666666666)"/></g><g filter="url(#a)"><path d="M1400 360c0 22.1-17.9 40-40 40s-40-17.9-40-40 17.9-40 40-40 40 17.9 40 40z" stroke="#5e5e5e" stroke-width="3" fill="#5abaa7"/><use xlink:href="#f" transform="matrix(1,0,0,1,1325,325) translate(23.009259259259263 41.97916666666666)"/></g><g filter="url(#a)"><path d="M1840 360c0 22.1-17.9 40-40 40s-40-17.9-40-40 17.9-40 40-40 40 17.9 40 40z" stroke="#5e5e5e" stroke-width="3" fill="#5abaa7"/><use xlink:href="#g" transform="matrix(1,0,0,1,1765,325) translate(23.888888888888893 41.97916666666666)"/></g><g filter="url(#a)"><path d="M1180 606.33c0 22.1-17.9 40-40 40s-40-17.9-40-40 17.9-40 40-40 40 17.9 40 40z" stroke="#5e5e5e" stroke-width="3" fill="#ff8f80"/><use xlink:href="#h" transform="matrix(1,0,0,1,1105,571.3333333333334) translate(23.888888888888893 41.97916666666666)"/></g><path d="M920 403.5v196.83c0 3.32 2.7 6 6 6h149.76" stroke="#3aa6dd" stroke-width="4" fill="none"/><path d="M919.98 401.5l2.02-.07v2.12h-4v-2.17z" fill="#3aa6dd"/><path d="M1092.03 606.33l-14.27 4.64v-9.27z" stroke="#3aa6dd" stroke-width="4" fill="#3aa6dd"/><g filter="url(#a)"><path d="M1620 606.33c0 22.1-17.9 40-40 40s-40-17.9-40-40 17.9-40 40-40 40 17.9 40 40z" stroke="#5e5e5e" stroke-width="3" fill="#ff8f80"/><use xlink:href="#i" transform="matrix(1,0,0,1,1545,571.3333333333334) translate(23.888888888888893 41.97916666666666)"/></g><g filter="url(#a)"><path d="M2060 606.33c0 22.1-17.9 40-40 40s-40-17.9-40-40 17.9-40 40-40 40 17.9 40 40z" stroke="#5e5e5e" stroke-width="3" fill="#ff8f80"/><use xlink:href="#j" transform="matrix(1,0,0,1,1985,571.3333333333334) translate(24.861111111111114 41.97916666666666)"/></g><path d="M542.5 360H640" stroke="#5e5e5e" stroke-width="2" fill="none"/><path d="M542.53 361h-1.1l.07-.98-.03-1.02h1.06z" fill="#5e5e5e"/><path d="M655.26 360L641 364.64v-9.28z" stroke="#5e5e5e" stroke-width="2" fill="#5e5e5e"/><path d="M742.5 360H860" stroke="#5e5e5e" stroke-width="2" fill="none"/><path d="M742.53 361h-1.1l.07-.98-.03-1.02h1.06z" fill="#5e5e5e"/><path d="M875.26 360L861 364.64v-9.28z" stroke="#5e5e5e" stroke-width="2" fill="#5e5e5e"/><path d="M963.5 360h332.26" stroke="#ef8d22" stroke-width="4" fill="none"/><path d="M963.55 362h-2.17l.12-1.98-.07-2.02h2.12z" fill="#ef8d22"/><path d="M1312.03 360l-14.27 4.64v-9.28z" stroke="#ef8d22" stroke-width="4" fill="#ef8d22"/><path d="M1403.5 360h332.26" stroke="#ef8d22" stroke-width="4" fill="none"/><path d="M1403.55 362h-2.17l.12-1.98-.07-2.02h2.12z" fill="#ef8d22"/><path d="M1752.03 360l-14.27 4.64v-9.28z" stroke="#ef8d22" stroke-width="4" fill="#ef8d22"/><path d="M1183.5 606.33h332.26" stroke="#3aa6dd" stroke-width="4" fill="none"/><path d="M1183.55 608.33h-2.17l.12-1.98-.07-2.02h2.12z" fill="#3aa6dd"/><path d="M1532.03 606.33l-14.27 4.64v-9.27z" stroke="#3aa6dd" stroke-width="4" fill="#3aa6dd"/><path d="M1623.5 606.33h332.26" stroke="#3aa6dd" stroke-width="4" fill="none"/><path d="M1623.55 608.33h-2.17l.12-1.98-.07-2.02h2.12z" fill="#3aa6dd"/><path d="M1972.03 606.33l-14.27 4.64v-9.27z" stroke="#3aa6dd" stroke-width="4" fill="#3aa6dd"/><path d="M140 559.67c0-3.32 2.7-6 6-6h228c3.3 0 6 2.68 6 6v80.66c0 3.32-2.7 6-6 6H146c-3.3 0-6-2.68-6-6z" stroke="#000" stroke-opacity="0" stroke-width="3" fill="#fff" fill-opacity="0"/><use xlink:href="#k" transform="matrix(1,0,0,1,145,558.6666666666667) translate(10.231481481481552 57.70486111111108)"/><path d="M0 826c0-3.3 2.7-6 6-6h788c3.3 0 6 2.7 6 6v148c0 3.3-2.7 6-6 6H6c-3.3 0-6-2.7-6-6z" stroke="#000" stroke-opacity="0" stroke-width="3" fill="#fff" fill-opacity="0"/><use xlink:href="#l" transform="matrix(1,0,0,1,5,825) translate(178.3333333333336 105.64166666666655)"/><g filter="url(#a)"><path d="M540 1122.5c0 22.1-17.9 40-40 40s-40-17.9-40-40 17.9-40 40-40 40 17.9 40 40z" stroke="#5e5e5e" stroke-width="3" fill="#a3d977"/><use xlink:href="#b" transform="matrix(1,0,0,1,465,1087.5) translate(23.888888888888893 41.97916666666666)"/></g><g filter="url(#a)"><path d="M740 1122.5c0 22.1-17.9 40-40 40s-40-17.9-40-40 17.9-40 40-40 40 17.9 40 40z" stroke="#5e5e5e" stroke-width="3" fill="#a3d977"/><use xlink:href="#d" transform="matrix(1,0,0,1,665,1087.5) translate(23.888888888888893 41.97916666666666)"/></g><g filter="url(#a)"><path d="M960 1122.5c0 22.1-17.9 40-40 40s-40-17.9-40-40 17.9-40 40-40 40 17.9 40 40z" stroke="#5e5e5e" stroke-width="3" fill="#a3d977"/><use xlink:href="#e" transform="matrix(1,0,0,1,885,1087.5) translate(23.009259259259263 41.97916666666666)"/></g><g filter="url(#a)"><path d="M1180 1122.5c0 22.1-17.9 40-40 40s-40-17.9-40-40 17.9-40 40-40 40 17.9 40 40z" stroke="#5e5e5e" stroke-width="3" fill="#5abaa7"/><use xlink:href="#f" transform="matrix(1,0,0,1,1105,1087.5) translate(23.009259259259263 41.97916666666666)"/></g><g filter="url(#a)"><path d="M1400 1122.5c0 22.1-17.9 40-40 40s-40-17.9-40-40 17.9-40 40-40 40 17.9 40 40z" stroke="#5e5e5e" stroke-width="3" fill="#5abaa7"/><use xlink:href="#g" transform="matrix(1,0,0,1,1325,1087.5) translate(23.888888888888893 41.97916666666666)"/></g><g filter="url(#a)"><path d="M1620 1362.5c0 22.1-17.9 40-40 40s-40-17.9-40-40 17.9-40 40-40 40 17.9 40 40z" stroke="#5e5e5e" stroke-width="3" fill="#ff8f80"/><use xlink:href="#h" transform="matrix(1,0,0,1,1545,1327.5) translate(23.888888888888893 41.97916666666666)"/></g><g filter="url(#a)"><path d="M1840 1362.5c0 22.1-17.9 40-40 40s-40-17.9-40-40 17.9-40 40-40 40 17.9 40 40z" stroke="#5e5e5e" stroke-width="3" fill="#ff8f80"/><use xlink:href="#i" transform="matrix(1,0,0,1,1765,1327.5) translate(23.888888888888893 41.97916666666666)"/></g><g filter="url(#a)"><path d="M2060 1362.5c0 22.1-17.9 40-40 40s-40-17.9-40-40 17.9-40 40-40 40 17.9 40 40z" stroke="#5e5e5e" stroke-width="3" fill="#ff8f80"/><use xlink:href="#j" transform="matrix(1,0,0,1,1985,1327.5) translate(24.861111111111114 41.97916666666666)"/></g><path d="M542.5 1122.5H640" stroke="#5e5e5e" stroke-width="2" fill="none"/><path d="M542.53 1123.5h-1.1l.07-.98-.03-1.02h1.06z" fill="#5e5e5e"/><path d="M655.26 1122.5l-14.26 4.64v-9.28z" stroke="#5e5e5e" stroke-width="2" fill="#5e5e5e"/><path d="M742.5 1122.5H860" stroke="#5e5e5e" stroke-width="2" fill="none"/><path d="M742.53 1123.5h-1.1l.07-.98-.03-1.02h1.06z" fill="#5e5e5e"/><path d="M875.26 1122.5l-14.26 4.64v-9.28z" stroke="#5e5e5e" stroke-width="2" fill="#5e5e5e"/><path d="M962.5 1122.5H1080" stroke="#5e5e5e" stroke-width="2" fill="none"/><path d="M962.53 1123.5h-1.1l.07-.98-.03-1.02h1.06z" fill="#5e5e5e"/><path d="M1095.26 1122.5l-14.26 4.64v-9.28z" stroke="#5e5e5e" stroke-width="2" fill="#5e5e5e"/><path d="M1182.5 1122.5H1300" stroke="#5e5e5e" stroke-width="2" fill="none"/><path d="M1182.53 1123.5h-1.1l.07-.98-.03-1.02h1.06z" fill="#5e5e5e"/><path d="M1315.26 1122.5l-14.26 4.64v-9.28z" stroke="#5e5e5e" stroke-width="2" fill="#5e5e5e"/><path d="M1623.5 1362.5h112.26" stroke="#3aa6dd" stroke-width="4" fill="none"/><path d="M1623.55 1364.5h-2.17l.12-1.98-.07-2.02h2.12z" fill="#3aa6dd"/><path d="M1752.03 1362.5l-14.27 4.64v-9.28z" stroke="#3aa6dd" stroke-width="4" fill="#3aa6dd"/><path d="M1843.5 1362.5h112.26" stroke="#3aa6dd" stroke-width="4" fill="none"/><path d="M1843.55 1364.5h-2.17l.12-1.98-.07-2.02h2.12z" fill="#3aa6dd"/><path d="M1972.03 1362.5l-14.27 4.64v-9.28z" stroke="#3aa6dd" stroke-width="4" fill="#3aa6dd"/><path d="M140 1082.17c0-3.32 2.7-6 6-6h228c3.3 0 6 2.68 6 6v80.66c0 3.32-2.7 6-6 6H146c-3.3 0-6-2.68-6-6z" stroke="#000" stroke-opacity="0" stroke-width="3" fill="#fff" fill-opacity="0"/><use xlink:href="#c" transform="matrix(1,0,0,1,145,1081.1666666666667) translate(13.867283950617349 57.70486111111108)"/><path d="M140 1322.17c0-3.32 2.7-6 6-6h228c3.3 0 6 2.68 6 6v80.66c0 3.32-2.7 6-6 6H146c-3.3 0-6-2.68-6-6z" stroke="#000" stroke-opacity="0" stroke-width="3" fill="#fff" fill-opacity="0"/><use xlink:href="#k" transform="matrix(1,0,0,1,145,1321.1666666666667) translate(10.231481481481552 57.70486111111108)"/><g filter="url(#a)"><path d="M2280 1122.5c0 22.1-17.9 40-40 40s-40-17.9-40-40 17.9-40 40-40 40 17.9 40 40z" stroke="#5e5e5e" stroke-width="3" fill="#5abaa7"/><use xlink:href="#m" transform="matrix(1,0,0,1,2205,1087.5) translate(24.861111111111114 41.97916666666666)"/></g><path d="M1402.5 1122.5h771.14M1402.56 1122.5H1400" stroke="#ef8d22" stroke-width="5" fill="none"/><path d="M2190.4 1122.5l-14.26 4.64v-9.28z" stroke="#ef8d22" stroke-width="5" fill="#ef8d22"/><g filter="url(#a)"><path d="M2500 1362.5c0 22.1-17.9 40-40 40s-40-17.9-40-40 17.9-40 40-40 40 17.9 40 40z" stroke="#5e5e5e" stroke-width="3" fill="#ff8f80"/><use xlink:href="#n" transform="matrix(1,0,0,1,2425,1327.5) translate(23.888888888888893 41.97916666666666)"/></g><path d="M2063.5 1362.5h332.26" stroke="#3aa6dd" stroke-width="4" fill="none"/><path d="M2063.55 1364.5h-2.17l.12-1.98-.07-2.02h2.12z" fill="#3aa6dd"/><path d="M2412.03 1362.5l-14.27 4.64v-9.28z" stroke="#3aa6dd" stroke-width="4" fill="#3aa6dd"/><path d="M720 838.5c0-3.3 2.7-6 6-6h648c3.3 0 6 2.7 6 6v123c0 3.3-2.7 6-6 6H726c-3.3 0-6-2.7-6-6z" stroke="#000" stroke-opacity="0" stroke-width="3" fill="#fff" fill-opacity="0"/><use xlink:href="#o" transform="matrix(1,0,0,1,725,837.5) translate(49.44444444444457 76.77083333333331)"/><use xlink:href="#p" transform="matrix(1,0,0,1,725,837.5) translate(156.66666666666674 76.77083333333331)"/><use xlink:href="#q" transform="matrix(1,0,0,1,725,837.5) translate(397.2222222222222 76.77083333333331)"/><path d="M1360 1166v190.5c0 3.3 2.7 6 6 6h149.76" stroke="#3aa6dd" stroke-width="4" fill="none"/><path d="M1359.98 1164l2.02-.07v2.12h-4v-2.17z" fill="#3aa6dd"/><path d="M1532.03 1362.5l-14.27 4.64v-9.28z" stroke="#3aa6dd" stroke-width="4" fill="#3aa6dd"/><path d="M1140 362v6.02m0 8.04v12.05m0 8.04v12.05m0 8.02v12.05m0 8.04v12.06m0 8.03v12.04m0 8.03v12.05m0 8.04v12.05m0 8.04v12.05m0 8.02v12.05m0 8.04v6.03M1140 362.05V360" stroke="#5e5e5e" stroke-width="4" fill="none"/><path d="M1142 564.96l-1.98-.13-2.02.07v-2.12h4z" fill="#5e5e5e"/><path d="M1579.47 362v6.03m0 8.03v12.05m0 8.04v12.06m0 8.03v12.05m0 8.03v12.07m0 8.03v12.05m0 8.04v12.04m0 8.03v12.05m0 8.04v12.05m0 8.04v12.05m0 8.03v6.02M1579.47 362.05V360" stroke="#5e5e5e" stroke-width="4" fill="none"/><path d="M1581.47 564.92l-1.45-.1-2.55.1v-2.12h4z" fill="#5e5e5e"/><path d="M1800 403.5v6.03m0 8.03v12.05m0 8.04v12.05m0 8.03v12.05m0 8.03v12.06m0 8.03v12.04m0 8.04v12.05m0 8.03v12.05m0 8.04v12.05m0 8.03v12.05m0 8.03v6.03" stroke="#5e5e5e" stroke-width="4" fill="none"/><path d="M1799.98 401.5l2.02-.07v2.12h-4v-2.17z" fill="#5e5e5e"/><path d="M1800 604.28v2.05" stroke="#5e5e5e" stroke-width="4" fill="none"/><path d="M1363.5 1004.75c-12.98 0-23.5-10.52-23.5-23.5 0-10.38 6.36-19.14 16.24-22.35-.57-30.52 38.6-36.4 54.26-24.65 7.83-17.63 47-11.75 47 5.88 23.5-5.88 47 17.62 31.33 47 15.67 23.5 0 52.87-31.33 41.12-7.83 15.27-39.17 15.27-47 0-15.67 11.75-47 5.88-47-23.5z" stroke="#5e5e5e" stroke-width="3" fill="#fff"/><use xlink:href="#r" transform="matrix(1,0,0,1,1345,927.5) translate(10.95061728395062 58.27777777777778)"/><use xlink:href="#s" transform="matrix(1,0,0,1,1345,927.5) translate(84.96296296296296 58.27777777777778)"/><path d="M1416.22 1038.6l-3.18 2.4m-12.68 9.56l-6.35 4.8m-12.67 9.56l-3.18 2.4" stroke="#5e5e5e" stroke-width="4" fill="none"/><path d="M1417.75 1037.37l2.1 1-2.47 1.86-2.4-3.2 1-.75z" fill="#5e5e5e"/><path d="M1365.17 1077.1l8.6-12.3 5.58 7.4z" stroke="#5e5e5e" stroke-width="4" fill="#5e5e5e"/><path d="M2020 1124.5v5.83m0 7.78v11.68m0 7.78v11.67m0 7.78v11.68m0 7.78v11.67m0 7.78v11.68m0 7.78v11.67m0 7.78v11.68m0 7.78v11.67m0 7.78v11.68m0 7.78v5.84M2020 1124.55v-2.05" stroke="#5e5e5e" stroke-width="4" fill="none"/><path d="M2022 1321.12l-1.98-.12-2.02.07v-2.12h4z" fill="#5e5e5e"/><path d="M2240 1166v5.84m0 7.78v11.67m0 7.77v11.67m0 7.78v11.67m0 7.77v11.67m0 7.78v11.67m0 7.77v11.67m0 7.78V1308m0 7.77v11.67m0 7.78v11.67m0 7.77v5.83" stroke="#5e5e5e" stroke-width="4" fill="none"/><path d="M2239.98 1164l2.02-.07v2.12h-4v-2.17z" fill="#5e5e5e"/><path d="M2240 1360.45v2.05" stroke="#5e5e5e" stroke-width="4" fill="none"/><defs><path fill="#333" d="M205 0l-28-72H64L36 0H1l101-248h38L239 0h-34zm-38-99l-47-123c-12 45-31 82-46 123h93" id="t"/><use transform="matrix(0.09259259259259256,0,0,0.09259259259259256,0,0)" xlink:href="#t" id="b"/><filter id="a" filterUnits="objectBoundingBox" x="-.13" y="-.05" width="1.25" height="1.25"><feOffset result="offOut" in="SourceAlpha" dy="6"/><feGaussianBlur result="blurOut" in="offOut" stdDeviation="5"/><feColorMatrix result="colorOut" in="blurOut" values="0 0 0 0 0 0 0 0 0 0 0 0 0 0 0 0 0 0 0.5019607843137255 0"/><feBlend in="SourceGraphic" in2="colorOut"/></filter><path fill="#333" d="M126-118c4-37-42-32-68-25v131l24 4v8H8C5-13 21-9 28-12v-141c-7-3-23 1-20-12h48l1 13c22-15 77-30 92 2 32-22 104-36 104 29v109c8 3 24-2 21 12h-75v-8l25-4v-106c3-39-45-31-72-24 7 37 1 88 3 130l25 4v8h-78v-8l24-4v-106" id="u"/><path fill="#333" d="M32-163c41-10 102-14 102 39v112c8 3 24-2 21 12h-45l-4-17C83 13 3 13 13-46c-2-50 45-50 92-51 4-36-5-70-42-56-6 2-12 4-16 6-4 7 0 23-15 20v-36zM42-47c0 41 41 33 63 22v-59c-34 1-63-1-63 37" id="v"/><path fill="#333" d="M41-130c7 48 86 23 86 84 0 56-69 57-112 41v-40c20 0 9 29 31 31 35 19 77-26 41-50-27-18-72-13-72-59 0-50 58-52 100-41v36c-19 1-8-25-28-25-21-7-50-1-46 23" id="w"/><path fill="#333" d="M54-38c-1 25 24 26 44 20v12C71 10 25 9 25-35v-115H4c-2-14 14-10 21-15l18-38h11v38h38v15H54v112" id="x"/><path fill="#333" d="M84-170c49 0 66 33 63 87H46c-8 60 38 80 95 63v10C128-2 108 4 88 4 34 4 14-29 14-84c-1-54 22-86 70-86zm33 73c12-57-57-82-69-24-1 7-2 15-2 24h71" id="y"/><path fill="#333" d="M57-145c16-10 35-24 60-25v45c-19 1-8-30-40-17l-20 6v124l29 4v8H7v-8l21-4v-141c-8-3-24 2-21-12h48" id="z"/><path fill="#333" d="M50-37c14 0 21 9 21 21S62 5 50 5C37 5 28-4 28-16s8-21 22-21zm0-132c12 0 21 9 21 21 0 13-9 22-21 22-13 0-22-9-22-22 0-12 9-21 22-21" id="A"/><g id="c"><use transform="matrix(0.1913580246913579,0,0,0.1913580246913579,0,0)" xlink:href="#u"/><use transform="matrix(0.1913580246913579,0,0,0.1913580246913579,53.58024691358021,0)" xlink:href="#v"/><use transform="matrix(0.1913580246913579,0,0,0.1913580246913579,84.00617283950612,0)" xlink:href="#w"/><use transform="matrix(0.1913580246913579,0,0,0.1913580246913579,110.79629629629622,0)" xlink:href="#x"/><use transform="matrix(0.1913580246913579,0,0,0.1913580246913579,129.93209876543202,0)" xlink:href="#y"/><use transform="matrix(0.1913580246913579,0,0,0.1913580246913579,160.3580246913579,0)" xlink:href="#z"/><use transform="matrix(0.1913580246913579,0,0,0.1913580246913579,183.1296296296295,0)" xlink:href="#A"/></g><path fill="#333" d="M160-131c35 5 61 23 61 61C221 17 115-2 30 0v-248c76 3 177-17 177 60 0 33-19 50-47 57zm-97-11c50-1 110 9 110-42 0-47-63-36-110-37v79zm0 115c55-2 124 14 124-45 0-56-70-42-124-44v89" id="B"/><use transform="matrix(0.09259259259259256,0,0,0.09259259259259256,0,0)" xlink:href="#B" id="d"/><path fill="#333" d="M212-179c-10-28-35-45-73-45-59 0-87 40-87 99 0 60 29 101 89 101 43 0 62-24 78-52l27 14C228-24 195 4 139 4 59 4 22-46 18-125c-6-104 99-153 187-111 19 9 31 26 39 46" id="C"/><use transform="matrix(0.09259259259259256,0,0,0.09259259259259256,0,0)" xlink:href="#C" id="e"/><path fill="#333" d="M30-248c118-7 216 8 213 122C240-48 200 0 122 0H30v-248zM63-27c89 8 146-16 146-99s-60-101-146-95v194" id="D"/><use transform="matrix(0.09259259259259256,0,0,0.09259259259259256,0,0)" xlink:href="#D" id="f"/><path fill="#333" d="M30 0v-248h187v28H63v79h144v27H63v87h162V0H30" id="E"/><use transform="matrix(0.09259259259259256,0,0,0.09259259259259256,0,0)" xlink:href="#E" id="g"/><path fill="#333" d="M195 0l-74-108L45 0H8l94-129-87-119h37l69 98 67-98h37l-84 118L233 0h-38" id="F"/><use transform="matrix(0.09259259259259256,0,0,0.09259259259259256,0,0)" xlink:href="#F" id="h"/><path fill="#333" d="M137-103V0h-34v-103L8-248h37l75 118 75-118h37" id="G"/><use transform="matrix(0.09259259259259256,0,0,0.09259259259259256,0,0)" xlink:href="#G" id="i"/><path fill="#333" d="M209 0H11v-25l151-195H24v-28h176v25L50-27h159V0" id="H"/><use transform="matrix(0.09259259259259256,0,0,0.09259259259259256,0,0)" xlink:href="#H" id="j"/><path fill="#333" d="M103-236c-39-15-35 32-34 71h44v15H69v136l35 6v8H15v-8l25-6v-136H11v-9l29-7c-6-59 23-100 80-84v36c-15 2-12-14-17-22" id="I"/><path fill="#333" d="M124-13C89 8 26 15 26-45v-108c-8-3-24 2-21-12h50v118c-3 37 42 32 69 25v-131l-25-4v-8h54v153c8 3 24-2 21 12h-48" id="J"/><g id="k"><use transform="matrix(0.1913580246913579,0,0,0.1913580246913579,0,0)" xlink:href="#I"/><use transform="matrix(0.1913580246913579,0,0,0.1913580246913579,22.77160493827159,0)" xlink:href="#y"/><use transform="matrix(0.1913580246913579,0,0,0.1913580246913579,53.197530864197496,0)" xlink:href="#v"/><use transform="matrix(0.1913580246913579,0,0,0.1913580246913579,83.6234567901234,0)" xlink:href="#x"/><use transform="matrix(0.1913580246913579,0,0,0.1913580246913579,102.75925925925917,0)" xlink:href="#J"/><use transform="matrix(0.1913580246913579,0,0,0.1913580246913579,137.2037037037036,0)" xlink:href="#z"/><use transform="matrix(0.1913580246913579,0,0,0.1913580246913579,159.9753086419752,0)" xlink:href="#y"/><use transform="matrix(0.1913580246913579,0,0,0.1913580246913579,190.4012345679011,0)" xlink:href="#A"/></g><path fill="#333" d="M20 0v-34c50 2 68-17 68-75v-176c6-63-27-67-68-83v-27l176-66h23v120c69-113 55-119 140-98l62 24c-12 41-33 89-51 114-26-8-58-27-88-27-20 0-40 15-63 48v161c-4 81 28 88 100 85V0H20" id="K"/><path fill="#333" d="M37-209c0-140 96-240 230-240 104 0 172 56 185 159 3 17 8 26 21 34v24H174c6 91 66 164 136 164 38 0 78-23 129-77l24 21C402-39 316 11 233 11 117 11 37-79 37-209zm135-57h153c-1-82-29-132-76-132-49-1-81 58-77 132" id="L"/><path fill="#333" d="M74-22v-539c8-60-28-61-66-78v-26l163-52h34v357c62-57 127-89 179-89 97 0 173 91 173 206C557-96 441 12 285 12 236 12 137-4 74-22zm131-158c0 102 29 146 96 146 76 0 121-60 121-161 0-155-137-225-217-114v129" id="M"/><path fill="#333" d="M251-450c91 0 175 40 175 150 0 55-2 180 4 217 10 24 27 21 49 4l16 25c-35 37-87 64-122 64-40 0-66-22-75-64-36 29-76 65-134 65C87 11 39-32 39-101c0-74 46-111 122-130 63-16 104-39 132-64 7-62-13-111-66-112-43-1-65 35-56 83L51-282c-4-17-5-25-5-36 0-85 127-132 205-132zm-83 327c0 44 22 74 54 74 18 0 32-8 73-44v-154c-20 16-28 20-69 39-43 21-58 43-58 85" id="N"/><path fill="#333" d="M220 12c-28 0-77-8-111-16-6 0-12 4-22 14H57L45-126h34c24 60 61 91 112 91 47 0 73-53 39-84-14-12-13-13-80-56-78-50-104-84-104-138 0-125 169-167 287-114l2 115h-33c-20-60-56-93-102-93-28 0-49 18-49 42 0 27 20 48 78 81 68 39 75 44 97 66 23 23 36 56 36 92 0 79-60 136-142 136" id="O"/><path fill="#333" d="M165-305c-47 0-83-31-83-72s38-72 86-72c50 0 86 30 86 71 0 42-38 73-89 73zM82-61c0-41 38-72 86-72 50 0 86 30 86 71 0 42-38 73-89 73-47 0-83-31-83-72" id="P"/><g id="l"><use transform="matrix(0.13333333333333316,0,0,0.13333333333333316,0,0)" xlink:href="#K"/><use transform="matrix(0.13333333333333316,0,0,0.13333333333333316,54.933333333333266,0)" xlink:href="#L"/><use transform="matrix(0.13333333333333316,0,0,0.13333333333333316,121.06666666666652,0)" xlink:href="#M"/><use transform="matrix(0.13333333333333316,0,0,0.13333333333333316,200.26666666666642,0)" xlink:href="#N"/><use transform="matrix(0.13333333333333316,0,0,0.13333333333333316,267.5999999999997,0)" xlink:href="#O"/><use transform="matrix(0.13333333333333316,0,0,0.13333333333333316,321.1999999999996,0)" xlink:href="#L"/><use transform="matrix(0.13333333333333316,0,0,0.13333333333333316,388.6666666666662,0)" xlink:href="#P"/></g><path fill="#333" d="M63-220v92h138v28H63V0H30v-248h175v28H63" id="Q"/><use transform="matrix(0.09259259259259256,0,0,0.09259259259259256,0,0)" xlink:href="#Q" id="m"/><path fill="#333" d="M194 0L95-120 63-95V0H30v-248h33v124l119-124h40L117-140 236 0h-42" id="R"/><use transform="matrix(0.09259259259259256,0,0,0.09259259259259256,0,0)" xlink:href="#R" id="n"/><path fill="#333" d="M177-190C167-65 218 103 67 71c-23-6-38-20-44-43l32-5c15 47 100 32 89-28v-30C133-14 115 1 83 1 29 1 15-40 15-95c0-56 16-97 71-98 29-1 48 16 59 35 1-10 0-23 2-32h30zM94-22c36 0 50-32 50-73 0-42-14-75-50-75-39 0-46 34-46 75s6 73 46 73" id="S"/><path fill="#333" d="M24-231v-30h32v30H24zM24 0v-190h32V0H24" id="T"/><path fill="#333" d="M59-47c-2 24 18 29 38 22v24C64 9 27 4 27-40v-127H5v-23h24l9-43h21v43h35v23H59v120" id="U"/><g id="o"><use transform="matrix(0.18518518518518512,0,0,0.18518518518518512,0,0)" xlink:href="#S"/><use transform="matrix(0.18518518518518512,0,0,0.18518518518518512,37.037037037037024,0)" xlink:href="#T"/><use transform="matrix(0.18518518518518512,0,0,0.18518518518518512,51.66666666666665,0)" xlink:href="#U"/></g><path fill="#333" d="M114-163C36-179 61-72 57 0H25l-1-190h30c1 12-1 29 2 39 6-27 23-49 58-41v29" id="V"/><path fill="#333" d="M100-194c63 0 86 42 84 106H49c0 40 14 67 53 68 26 1 43-12 49-29l28 8c-11 28-37 45-77 45C44 4 14-33 15-96c1-61 26-98 85-98zm52 81c6-60-76-77-97-28-3 7-6 17-6 28h103" id="W"/><path fill="#333" d="M115-194c53 0 69 39 70 98 0 66-23 100-70 100C84 3 66-7 56-30L54 0H23l1-261h32v101c10-23 28-34 59-34zm-8 174c40 0 45-34 45-75 0-40-5-75-45-74-42 0-51 32-51 76 0 43 10 73 51 73" id="X"/><path fill="#333" d="M141-36C126-15 110 5 73 4 37 3 15-17 15-53c-1-64 63-63 125-63 3-35-9-54-41-54-24 1-41 7-42 31l-33-3c5-37 33-52 76-52 45 0 72 20 72 64v82c-1 20 7 32 28 27v20c-31 9-61-2-59-35zM48-53c0 20 12 33 32 33 41-3 63-29 60-74-43 2-92-5-92 41" id="Y"/><path fill="#333" d="M135-143c-3-34-86-38-87 0 15 53 115 12 119 90S17 21 10-45l28-5c4 36 97 45 98 0-10-56-113-15-118-90-4-57 82-63 122-42 12 7 21 19 24 35" id="Z"/><g id="p"><use transform="matrix(0.18518518518518512,0,0,0.18518518518518512,0,0)" xlink:href="#V"/><use transform="matrix(0.18518518518518512,0,0,0.18518518518518512,22.03703703703703,0)" xlink:href="#W"/><use transform="matrix(0.18518518518518512,0,0,0.18518518518518512,59.074074074074055,0)" xlink:href="#X"/><use transform="matrix(0.18518518518518512,0,0,0.18518518518518512,96.11111111111107,0)" xlink:href="#Y"/><use transform="matrix(0.18518518518518512,0,0,0.18518518518518512,133.1481481481481,0)" xlink:href="#Z"/><use transform="matrix(0.18518518518518512,0,0,0.18518518518518512,166.4814814814814,0)" xlink:href="#W"/></g><path fill="#333" d="M210-169c-67 3-38 105-44 169h-31v-121c0-29-5-50-35-48C34-165 62-65 56 0H25l-1-190h30c1 10-1 24 2 32 10-44 99-50 107 0 11-21 27-35 58-36 85-2 47 119 55 194h-31v-121c0-29-5-49-35-48" id="aa"/><g id="q"><use transform="matrix(0.18518518518518512,0,0,0.18518518518518512,0,0)" xlink:href="#aa"/><use transform="matrix(0.18518518518518512,0,0,0.18518518518518512,55.37037037037035,0)" xlink:href="#Y"/><use transform="matrix(0.18518518518518512,0,0,0.18518518518518512,92.40740740740738,0)" xlink:href="#Z"/><use transform="matrix(0.18518518518518512,0,0,0.18518518518518512,125.74074074074069,0)" xlink:href="#U"/><use transform="matrix(0.18518518518518512,0,0,0.18518518518518512,144.2592592592592,0)" xlink:href="#W"/><use transform="matrix(0.18518518518518512,0,0,0.18518518518518512,181.29629629629625,0)" xlink:href="#V"/></g><g id="r"><use transform="matrix(0.06172839506172839,0,0,0.06172839506172839,0,0)" xlink:href="#V"/><use transform="matrix(0.06172839506172839,0,0,0.06172839506172839,7.345679012345679,0)" xlink:href="#W"/><use transform="matrix(0.06172839506172839,0,0,0.06172839506172839,19.691358024691358,0)" xlink:href="#X"/><use transform="matrix(0.06172839506172839,0,0,0.06172839506172839,32.03703703703704,0)" xlink:href="#Y"/><use transform="matrix(0.06172839506172839,0,0,0.06172839506172839,44.382716049382715,0)" xlink:href="#Z"/><use transform="matrix(0.06172839506172839,0,0,0.06172839506172839,55.49382716049382,0)" xlink:href="#W"/></g><path fill="#333" d="M115-194c55 1 70 41 70 98S169 2 115 4C84 4 66-9 55-30l1 105H24l-1-265h31l2 30c10-21 28-34 59-34zm-8 174c40 0 45-34 45-75s-6-73-45-74c-42 0-51 32-51 76 0 43 10 73 51 73" id="ab"/><path fill="#333" d="M100-194c62-1 85 37 85 99 1 63-27 99-86 99S16-35 15-95c0-66 28-99 85-99zM99-20c44 1 53-31 53-75 0-43-8-75-51-75s-53 32-53 75 10 74 51 75" id="ac"/><path fill="#333" d="M117-194c89-4 53 116 60 194h-32v-121c0-31-8-49-39-48C34-167 62-67 57 0H25l-1-190h30c1 10-1 24 2 32 11-22 29-35 61-36" id="ad"/><g id="s"><use transform="matrix(0.06172839506172839,0,0,0.06172839506172839,0,0)" xlink:href="#ab"/><use transform="matrix(0.06172839506172839,0,0,0.06172839506172839,12.345679012345679,0)" xlink:href="#ac"/><use transform="matrix(0.06172839506172839,0,0,0.06172839506172839,24.691358024691358,0)" xlink:href="#T"/><use transform="matrix(0.06172839506172839,0,0,0.06172839506172839,29.5679012345679,0)" xlink:href="#ad"/><use transform="matrix(0.06172839506172839,0,0,0.06172839506172839,41.913580246913575,0)" xlink:href="#U"/></g></defs></g></svg>