<svg xmlns="http://www.w3.org/2000/svg" xmlns:xlink="http://www.w3.org/1999/xlink" xmlns:lucid="lucid" width="1800" height="1258"><g transform="translate(-40 120.00000000000001)" lucid:page-tab-id="0_0"><path d="M532.8-94c0-3.3 2.67-6 6-6h752.8c3.33 0 6 2.7 6 6V72.57c0 3.32-2.67 6-6 6H538.8c-3.33 0-6-2.68-6-6z" fill="none"/><use xlink:href="#a" transform="matrix(1,0,0,1,532.7886791144767,-100.00000000000001) translate(197.54320987654353 106.38888888888886)"/><path d="M120 146c0-3.3 2.7-6 6-6h548c3.3 0 6 2.7 6 6v288c0 3.3-2.7 6-6 6H126c-3.3 0-6-2.7-6-6z" stroke="#5e5e5e" stroke-width="3" fill-opacity="0"/><path d="M120 263.2h560" stroke="#5e5e5e" stroke-width="3" fill="none"/><use xlink:href="#b" transform="matrix(1,0,0,1,128,148) translate(127.01944444444462 36.13333333333335)"/><use xlink:href="#c" transform="matrix(1,0,0,1,128,148) translate(198.92037037037045 89.73333333333329)"/><use xlink:href="#d" transform="matrix(1,0,0,1,132,271.19999999999993) translate(0 89.38888888888889)"/><use xlink:href="#e" transform="matrix(1,0,0,1,132,271.19999999999993) translate(38.271604938271594 89.38888888888889)"/><path d="M1100 117c0-3.3 2.7-6 6-6h708c3.3 0 6 2.7 6 6v346c0 3.3-2.7 6-6 6h-708c-3.3 0-6-2.7-6-6z" stroke="#5e5e5e" stroke-width="3" fill-opacity="0"/><path d="M1100 234.2h720m-720 90.83h720" stroke="#5e5e5e" stroke-width="3" fill="none"/><use xlink:href="#f" transform="matrix(1,0,0,1,1108,119) translate(213.7231481481483 36.13333333333335)"/><use xlink:href="#g" transform="matrix(1,0,0,1,1108,119) translate(180.40925925925944 89.73333333333329)"/><use xlink:href="#h" transform="matrix(1,0,0,1,1112,242.1999999999999) translate(0 46.388888888888886)"/><use xlink:href="#i" transform="matrix(1,0,0,1,1112,242.1999999999999) translate(37.037037037037024 46.388888888888886)"/><use xlink:href="#d" transform="matrix(1,0,0,1,1112,333.0333333333332) translate(0 46.72222222222223)"/><use xlink:href="#j" transform="matrix(1,0,0,1,1112,333.0333333333332) translate(38.271604938271594 46.72222222222223)"/><use xlink:href="#d" transform="matrix(1,0,0,1,1112,333.0333333333332) translate(0 100.05555555555554)"/><use xlink:href="#k" transform="matrix(1,0,0,1,1112,333.0333333333332) translate(38.271604938271594 100.05555555555554)"/><use xlink:href="#l" transform="matrix(1,0,0,1,1112,333.0333333333332) translate(306.5432098765431 100.05555555555554)"/><path d="M60 686c0-3.3 2.7-6 6-6h348c3.3 0 6 2.7 6 6v239c0 3.3-2.7 6-6 6H66c-3.3 0-6-2.7-6-6z" stroke="#5e5e5e" stroke-width="3" fill-opacity="0"/><path d="M60 749.33h360M60 840.17h360" stroke="#5e5e5e" stroke-width="3" fill="none"/><use xlink:href="#m" transform="matrix(1,0,0,1,68,688) translate(115.45679012345681 35.888888888888886)"/><use xlink:href="#d" transform="matrix(1,0,0,1,72,848.1666666666665) translate(0 46.388888888888886)"/><use xlink:href="#e" transform="matrix(1,0,0,1,72,848.1666666666665) translate(38.271604938271594 46.388888888888886)"/><path d="M500 686c0-3.3 2.7-6 6-6h348c3.3 0 6 2.7 6 6v239c0 3.3-2.7 6-6 6H506c-3.3 0-6-2.7-6-6z" stroke="#5e5e5e" stroke-width="3" fill-opacity="0"/><path d="M500 749.33h360m-360 90.84h360" stroke="#5e5e5e" stroke-width="3" fill="none"/><use xlink:href="#n" transform="matrix(1,0,0,1,508,688) translate(72.12345679012351 35.888888888888886)"/><use xlink:href="#d" transform="matrix(1,0,0,1,512,848.1666666666665) translate(0 46.388888888888886)"/><use xlink:href="#e" transform="matrix(1,0,0,1,512,848.1666666666665) translate(38.271604938271594 46.388888888888886)"/><path d="M241.68 676l141.3-209.3" stroke="#5e5e5e" stroke-width="6" fill="none"/><path d="M244.2 677.63l-.58.87h-7.24l2.86-4.23z" fill="#5e5e5e"/><path d="M396.7 446.38l-1.5 24.96-21.1-14.24z" stroke="#5e5e5e" stroke-width="6" fill="#fff"/><path d="M677.7 676.56l-254.5-215.4" stroke="#5e5e5e" stroke-width="6" fill="none"/><path d="M684.23 678.15l-.3.35h-7.96l3.62-4.28z" fill="#5e5e5e"/><path d="M404.5 445.3l24.64 4.2-16.44 19.42z" stroke="#5e5e5e" stroke-width="6" fill="#fff"/><path d="M1110 766c0-3.3 2.7-6 6-6h688c3.3 0 6 2.7 6 6v346c0 3.3-2.7 6-6 6h-688c-3.3 0-6-2.7-6-6z" stroke="#5e5e5e" stroke-width="3" fill-opacity="0"/><path d="M1110 829.33h700m-700 90.84h700" stroke="#5e5e5e" stroke-width="3" fill="none"/><g><use xlink:href="#o" transform="matrix(1,0,0,1,1118,768) translate(139.77777777777789 35.888888888888886)"/></g><g><use xlink:href="#p" transform="matrix(1,0,0,1,1122,928.1666666666665) translate(0 46.55555555555557)"/><use xlink:href="#d" transform="matrix(1,0,0,1,1122,928.1666666666665) translate(0 99.88888888888889)"/><use xlink:href="#q" transform="matrix(1,0,0,1,1122,928.1666666666665) translate(38.271604938271594 99.88888888888889)"/><use xlink:href="#r" transform="matrix(1,0,0,1,1122,928.1666666666665) translate(0 153.2222222222222)"/><use xlink:href="#s" transform="matrix(1,0,0,1,1122,928.1666666666665) translate(27.037037037037024 153.2222222222222)"/></g><path d="M1460 755.5V500.9" stroke="#5e5e5e" stroke-width="6" fill="none"/><path d="M1463 758.5h-6v-3.08h6z" fill="#5e5e5e"/><path d="M1460 476.4l12.73 21.5h-25.46z" stroke="#5e5e5e" stroke-width="6" fill="#fff"/><path d="M1095.5 290h-34.25m-34.25 0h-68.5m-34.25 0h-68.09m-33.84 0h-67.68m-33.84 0h-33.84" stroke="#5e5e5e" stroke-width="6" fill="none"/><path d="M1098.5 293h-3.08v-6h3.08z" fill="#5e5e5e"/><path d="M704.6 279.82L687.4 290l17.2 10.18" stroke="#5e5e5e" stroke-width="6" fill="none"/><defs><path fill="#333" d="M30-248c118-7 216 8 213 122C240-48 200 0 122 0H30v-248zM63-27c89 8 146-16 146-99s-60-101-146-95v194" id="t"/><path fill="#333" d="M100-194c63 0 86 42 84 106H49c0 40 14 67 53 68 26 1 43-12 49-29l28 8c-11 28-37 45-77 45C44 4 14-33 15-96c1-61 26-98 85-98zm52 81c6-60-76-77-97-28-3 7-6 17-6 28h103" id="u"/><path fill="#333" d="M96-169c-40 0-48 33-48 73s9 75 48 75c24 0 41-14 43-38l32 2c-6 37-31 61-74 61-59 0-76-41-82-99-10-93 101-131 147-64 4 7 5 14 7 22l-32 3c-4-21-16-35-41-35" id="v"/><path fill="#333" d="M100-194c62-1 85 37 85 99 1 63-27 99-86 99S16-35 15-95c0-66 28-99 85-99zM99-20c44 1 53-31 53-75 0-43-8-75-51-75s-53 32-53 75 10 74 51 75" id="w"/><path fill="#333" d="M114-163C36-179 61-72 57 0H25l-1-190h30c1 12-1 29 2 39 6-27 23-49 58-41v29" id="x"/><path fill="#333" d="M141-36C126-15 110 5 73 4 37 3 15-17 15-53c-1-64 63-63 125-63 3-35-9-54-41-54-24 1-41 7-42 31l-33-3c5-37 33-52 76-52 45 0 72 20 72 64v82c-1 20 7 32 28 27v20c-31 9-61-2-59-35zM48-53c0 20 12 33 32 33 41-3 63-29 60-74-43 2-92-5-92 41" id="y"/><path fill="#333" d="M59-47c-2 24 18 29 38 22v24C64 9 27 4 27-40v-127H5v-23h24l9-43h21v43h35v23H59v120" id="z"/><g id="a"><use transform="matrix(0.2345679012345675,0,0,0.2345679012345675,0,0)" xlink:href="#t"/><use transform="matrix(0.2345679012345675,0,0,0.2345679012345675,60.75308641975298,0)" xlink:href="#u"/><use transform="matrix(0.2345679012345675,0,0,0.2345679012345675,107.66666666666649,0)" xlink:href="#v"/><use transform="matrix(0.2345679012345675,0,0,0.2345679012345675,149.88888888888863,0)" xlink:href="#w"/><use transform="matrix(0.2345679012345675,0,0,0.2345679012345675,196.80246913580214,0)" xlink:href="#x"/><use transform="matrix(0.2345679012345675,0,0,0.2345679012345675,224.71604938271568,0)" xlink:href="#y"/><use transform="matrix(0.2345679012345675,0,0,0.2345679012345675,271.62962962962916,0)" xlink:href="#z"/><use transform="matrix(0.2345679012345675,0,0,0.2345679012345675,295.0864197530859,0)" xlink:href="#w"/><use transform="matrix(0.2345679012345675,0,0,0.2345679012345675,341.99999999999943,0)" xlink:href="#x"/></g><path d="M15-91v-56l181-69v40L49-119l147 57v40" id="A"/><path d="M25-224v-37h50v37H25zM25 0v-190h50V0H25" id="B"/><path d="M135-194c87-1 58 113 63 194h-50c-7-57 23-157-34-157-59 0-34 97-39 157H25l-1-190h47c2 12-1 28 3 38 12-26 28-41 61-42" id="C"/><path d="M115-3C79 11 28 4 28-45v-112H4v-33h27l15-45h31v45h36v33H77v99c-1 23 16 31 38 25v30" id="D"/><path d="M185-48c-13 30-37 53-82 52C43 2 14-33 14-96s30-98 90-98c62 0 83 45 84 108H66c0 31 8 55 39 56 18 0 30-7 34-22zm-45-69c5-46-57-63-70-21-2 6-4 13-4 21h74" id="E"/><path d="M135-150c-39-12-60 13-60 57V0H25l-1-190h47c2 13-1 29 3 40 6-28 27-53 61-41v41" id="F"/><path d="M121-226c-27-7-43 5-38 36h38v33H83V0H34v-157H6v-33h28c-9-59 32-81 87-68v32" id="G"/><path d="M133-34C117-15 103 5 69 4 32 3 11-16 11-54c-1-60 55-63 116-61 1-26-3-47-28-47-18 1-26 9-28 27l-52-2c7-38 36-58 82-57s74 22 75 68l1 82c-1 14 12 18 25 15v27c-30 8-71 5-69-32zm-48 3c29 0 43-24 42-57-32 0-66-3-65 30 0 17 8 27 23 27" id="H"/><path d="M190-63c-7 42-38 67-86 67-59 0-84-38-90-98-12-110 154-137 174-36l-49 2c-2-19-15-32-35-32-30 0-35 28-38 64-6 74 65 87 74 30" id="I"/><path d="M15-22v-40l146-57-146-57v-40l181 69v56" id="J"/><g id="b"><use transform="matrix(0.12407407407407395,0,0,0.12407407407407395,0,0)" xlink:href="#A"/><use transform="matrix(0.12407407407407395,0,0,0.12407407407407395,26.05555555555553,0)" xlink:href="#A"/><use transform="matrix(0.12407407407407395,0,0,0.12407407407407395,52.11111111111106,0)" xlink:href="#B"/><use transform="matrix(0.12407407407407395,0,0,0.12407407407407395,64.51851851851845,0)" xlink:href="#C"/><use transform="matrix(0.12407407407407395,0,0,0.12407407407407395,91.69074074074064,0)" xlink:href="#D"/><use transform="matrix(0.12407407407407395,0,0,0.12407407407407395,106.45555555555543,0)" xlink:href="#E"/><use transform="matrix(0.12407407407407395,0,0,0.12407407407407395,131.27037037037022,0)" xlink:href="#F"/><use transform="matrix(0.12407407407407395,0,0,0.12407407407407395,148.64074074074057,0)" xlink:href="#G"/><use transform="matrix(0.12407407407407395,0,0,0.12407407407407395,163.40555555555537,0)" xlink:href="#H"/><use transform="matrix(0.12407407407407395,0,0,0.12407407407407395,188.22037037037015,0)" xlink:href="#I"/><use transform="matrix(0.12407407407407395,0,0,0.12407407407407395,213.03518518518493,0)" xlink:href="#E"/><use transform="matrix(0.12407407407407395,0,0,0.12407407407407395,237.8499999999997,0)" xlink:href="#J"/><use transform="matrix(0.12407407407407395,0,0,0.12407407407407395,263.9055555555552,0)" xlink:href="#J"/></g><path d="M24 0v-248h52V0H24" id="K"/><path d="M169-182c-1-43-94-46-97-3 18 66 151 10 154 114 3 95-165 93-204 36-6-8-10-19-12-30l50-8c3 46 112 56 116 5-17-69-150-10-154-114-4-87 153-88 188-35 5 8 8 18 10 28" id="L"/><path d="M114-157C55-157 80-60 75 0H25v-261h50l-1 109c12-26 28-41 61-42 86-1 58 113 63 194h-50c-7-57 23-157-34-157" id="M"/><path d="M135-194c53 0 70 44 70 98 0 56-19 98-73 100-31 1-45-17-59-34 3 33 2 69 2 105H25l-1-265h48c2 10 0 23 3 31 11-24 29-35 60-35zM114-30c33 0 39-31 40-66 0-38-9-64-40-64-56 0-55 130 0 130" id="N"/><g id="c"><use transform="matrix(0.12407407407407395,0,0,0.12407407407407395,0,0)" xlink:href="#K"/><use transform="matrix(0.12407407407407395,0,0,0.12407407407407395,12.407407407407394,0)" xlink:href="#L"/><use transform="matrix(0.12407407407407395,0,0,0.12407407407407395,42.18518518518514,0)" xlink:href="#M"/><use transform="matrix(0.12407407407407395,0,0,0.12407407407407395,69.35740740740734,0)" xlink:href="#H"/><use transform="matrix(0.12407407407407395,0,0,0.12407407407407395,94.17222222222213,0)" xlink:href="#N"/><use transform="matrix(0.12407407407407395,0,0,0.12407407407407395,121.34444444444432,0)" xlink:href="#E"/></g><path fill="#333" d="M118-107v75H92v-75H18v-26h74v-75h26v75h74v26h-74" id="O"/><use transform="matrix(0.12345679012345674,0,0,0.12345679012345674,0,0)" xlink:href="#O" id="d"/><path fill="#333" d="M85-194c31 0 48 13 60 33l-1-100h32l1 261h-30c-2-10 0-23-3-31C134-8 116 4 85 4 32 4 16-35 15-94c0-66 23-100 70-100zm9 24c-40 0-46 34-46 75 0 40 6 74 45 74 42 0 51-32 51-76 0-42-9-74-50-73" id="P"/><path fill="#333" d="M206 0h-36l-40-164L89 0H53L-1-190h32L70-26l43-164h34l41 164 42-164h31" id="Q"/><path fill="#333" d="M87 75C49 33 22-17 22-94c0-76 28-126 65-167h31c-38 41-64 92-64 168S80 34 118 75H87" id="R"/><path fill="#333" d="M33-261c38 41 65 92 65 168S71 34 33 75H2C39 34 66-17 66-93S39-220 2-261h31" id="S"/><path fill="#333" d="M33-154v-36h34v36H33zM33 0v-36h34V0H33" id="T"/><path fill="#333" d="M108 0H70L1-190h34L89-25l56-165h34" id="U"/><path fill="#333" d="M24-231v-30h32v30H24zM24 0v-190h32V0H24" id="V"/><g id="e"><use transform="matrix(0.12345679012345674,0,0,0.12345679012345674,0,0)" xlink:href="#P"/><use transform="matrix(0.12345679012345674,0,0,0.12345679012345674,24.691358024691347,0)" xlink:href="#x"/><use transform="matrix(0.12345679012345674,0,0,0.12345679012345674,39.3827160493827,0)" xlink:href="#y"/><use transform="matrix(0.12345679012345674,0,0,0.12345679012345674,64.07407407407405,0)" xlink:href="#Q"/><use transform="matrix(0.12345679012345674,0,0,0.12345679012345674,96.04938271604934,0)" xlink:href="#R"/><use transform="matrix(0.12345679012345674,0,0,0.12345679012345674,110.74074074074069,0)" xlink:href="#S"/><use transform="matrix(0.12345679012345674,0,0,0.12345679012345674,125.43209876543204,0)" xlink:href="#T"/><use transform="matrix(0.12345679012345674,0,0,0.12345679012345674,137.77777777777771,0)" xlink:href="#U"/><use transform="matrix(0.12345679012345674,0,0,0.12345679012345674,159.99999999999994,0)" xlink:href="#w"/><use transform="matrix(0.12345679012345674,0,0,0.12345679012345674,184.69135802469128,0)" xlink:href="#V"/><use transform="matrix(0.12345679012345674,0,0,0.12345679012345674,194.44444444444437,0)" xlink:href="#P"/></g><path d="M135-194c52 0 70 43 70 98 0 56-19 99-73 100-30 1-46-15-58-35L72 0H24l1-261h50v104c11-23 29-37 60-37zM114-30c31 0 40-27 40-66 0-37-7-63-39-63s-41 28-41 65c0 36 8 64 40 64" id="W"/><path d="M137-138c1-29-70-34-71-4 15 46 118 7 119 86 1 83-164 76-172 9l43-7c4 19 20 25 44 25 33 8 57-30 24-41C81-84 22-81 20-136c-2-80 154-74 161-7" id="X"/><g id="f"><use transform="matrix(0.12407407407407395,0,0,0.12407407407407395,0,0)" xlink:href="#A"/><use transform="matrix(0.12407407407407395,0,0,0.12407407407407395,26.05555555555553,0)" xlink:href="#A"/><use transform="matrix(0.12407407407407395,0,0,0.12407407407407395,52.11111111111106,0)" xlink:href="#H"/><use transform="matrix(0.12407407407407395,0,0,0.12407407407407395,76.92592592592584,0)" xlink:href="#W"/><use transform="matrix(0.12407407407407395,0,0,0.12407407407407395,104.09814814814803,0)" xlink:href="#X"/><use transform="matrix(0.12407407407407395,0,0,0.12407407407407395,128.9129629629628,0)" xlink:href="#D"/><use transform="matrix(0.12407407407407395,0,0,0.12407407407407395,143.6777777777776,0)" xlink:href="#F"/><use transform="matrix(0.12407407407407395,0,0,0.12407407407407395,161.04814814814796,0)" xlink:href="#H"/><use transform="matrix(0.12407407407407395,0,0,0.12407407407407395,185.86296296296274,0)" xlink:href="#I"/><use transform="matrix(0.12407407407407395,0,0,0.12407407407407395,210.67777777777752,0)" xlink:href="#D"/><use transform="matrix(0.12407407407407395,0,0,0.12407407407407395,225.44259259259232,0)" xlink:href="#J"/><use transform="matrix(0.12407407407407395,0,0,0.12407407407407395,251.49814814814783,0)" xlink:href="#J"/></g><path d="M24-248c120-7 223 5 221 122C244-46 201 0 124 0H24v-248zM76-40c74 7 117-18 117-86 0-67-45-88-117-82v168" id="Y"/><path d="M110-194c64 0 96 36 96 99 0 64-35 99-97 99-61 0-95-36-95-99 0-62 34-99 96-99zm-1 164c35 0 45-28 45-65 0-40-10-65-43-65-34 0-45 26-45 65 0 36 10 65 43 65" id="Z"/><g id="g"><use transform="matrix(0.12407407407407395,0,0,0.12407407407407395,0,0)" xlink:href="#L"/><use transform="matrix(0.12407407407407395,0,0,0.12407407407407395,29.777777777777747,0)" xlink:href="#M"/><use transform="matrix(0.12407407407407395,0,0,0.12407407407407395,56.949999999999946,0)" xlink:href="#H"/><use transform="matrix(0.12407407407407395,0,0,0.12407407407407395,81.76481481481474,0)" xlink:href="#N"/><use transform="matrix(0.12407407407407395,0,0,0.12407407407407395,108.93703703703693,0)" xlink:href="#E"/><use transform="matrix(0.12407407407407395,0,0,0.12407407407407395,133.7518518518517,0)" xlink:href="#Y"/><use transform="matrix(0.12407407407407395,0,0,0.12407407407407395,165.88703703703686,0)" xlink:href="#E"/><use transform="matrix(0.12407407407407395,0,0,0.12407407407407395,190.70185185185164,0)" xlink:href="#I"/><use transform="matrix(0.12407407407407395,0,0,0.12407407407407395,215.51666666666642,0)" xlink:href="#Z"/><use transform="matrix(0.12407407407407395,0,0,0.12407407407407395,242.6888888888886,0)" xlink:href="#F"/><use transform="matrix(0.12407407407407395,0,0,0.12407407407407395,260.05925925925897,0)" xlink:href="#H"/><use transform="matrix(0.12407407407407395,0,0,0.12407407407407395,284.87407407407375,0)" xlink:href="#D"/><use transform="matrix(0.12407407407407395,0,0,0.12407407407407395,299.6388888888886,0)" xlink:href="#Z"/><use transform="matrix(0.12407407407407395,0,0,0.12407407407407395,326.8111111111108,0)" xlink:href="#F"/></g><path fill="#333" d="M158-156l-14 65h45v19h-49L124 0h-19l15-72H56L41 0H22l15-72H2v-19h39l14-65H11v-19h48l15-71h20l-16 71h64l16-71h19l-16 71h37v19h-40zm-83 0L61-91h63l14-65H75" id="aa"/><use transform="matrix(0.12345679012345674,0,0,0.12345679012345674,0,0)" xlink:href="#aa" id="h"/><path fill="#333" d="M-5 72V49h209v23H-5" id="ab"/><path fill="#333" d="M135-143c-3-34-86-38-87 0 15 53 115 12 119 90S17 21 10-45l28-5c4 36 97 45 98 0-10-56-113-15-118-90-4-57 82-63 122-42 12 7 21 19 24 35" id="ac"/><path fill="#333" d="M106-169C34-169 62-67 57 0H25v-261h32l-1 103c12-21 28-36 61-36 89 0 53 116 60 194h-32v-121c2-32-8-49-39-48" id="ad"/><path fill="#333" d="M115-194c55 1 70 41 70 98S169 2 115 4C84 4 66-9 55-30l1 105H24l-1-265h31l2 30c10-21 28-34 59-34zm-8 174c40 0 45-34 45-75s-6-73-45-74c-42 0-51 32-51 76 0 43 10 73 51 73" id="ae"/><path fill="#333" d="M33 0v-248h34V0H33" id="af"/><path fill="#333" d="M185-189c-5-48-123-54-124 2 14 75 158 14 163 119 3 78-121 87-175 55-17-10-28-26-33-46l33-7c5 56 141 63 141-1 0-78-155-14-162-118-5-82 145-84 179-34 5 7 8 16 11 25" id="ag"/><g id="i"><use transform="matrix(0.12345679012345674,0,0,0.12345679012345674,0,0)" xlink:href="#ab"/><use transform="matrix(0.12345679012345674,0,0,0.12345679012345674,24.691358024691347,0)" xlink:href="#ac"/><use transform="matrix(0.12345679012345674,0,0,0.12345679012345674,46.91358024691356,0)" xlink:href="#ad"/><use transform="matrix(0.12345679012345674,0,0,0.12345679012345674,71.60493827160491,0)" xlink:href="#y"/><use transform="matrix(0.12345679012345674,0,0,0.12345679012345674,96.29629629629625,0)" xlink:href="#ae"/><use transform="matrix(0.12345679012345674,0,0,0.12345679012345674,120.98765432098759,0)" xlink:href="#u"/><use transform="matrix(0.12345679012345674,0,0,0.12345679012345674,145.67901234567893,0)" xlink:href="#T"/><use transform="matrix(0.12345679012345674,0,0,0.12345679012345674,158.0246913580246,0)" xlink:href="#af"/><use transform="matrix(0.12345679012345674,0,0,0.12345679012345674,170.37037037037027,0)" xlink:href="#ag"/><use transform="matrix(0.12345679012345674,0,0,0.12345679012345674,199.9999999999999,0)" xlink:href="#ad"/><use transform="matrix(0.12345679012345674,0,0,0.12345679012345674,224.69135802469123,0)" xlink:href="#y"/><use transform="matrix(0.12345679012345674,0,0,0.12345679012345674,249.38271604938257,0)" xlink:href="#ae"/><use transform="matrix(0.12345679012345674,0,0,0.12345679012345674,274.0740740740739,0)" xlink:href="#u"/></g><g id="j"><use transform="matrix(0.12345679012345674,0,0,0.12345679012345674,0,0)" xlink:href="#ag"/><use transform="matrix(0.12345679012345674,0,0,0.12345679012345674,29.62962962962962,0)" xlink:href="#ad"/><use transform="matrix(0.12345679012345674,0,0,0.12345679012345674,54.320987654320966,0)" xlink:href="#y"/><use transform="matrix(0.12345679012345674,0,0,0.12345679012345674,79.01234567901231,0)" xlink:href="#ae"/><use transform="matrix(0.12345679012345674,0,0,0.12345679012345674,103.70370370370367,0)" xlink:href="#u"/><use transform="matrix(0.12345679012345674,0,0,0.12345679012345674,128.395061728395,0)" xlink:href="#t"/><use transform="matrix(0.12345679012345674,0,0,0.12345679012345674,160.3703703703703,0)" xlink:href="#u"/><use transform="matrix(0.12345679012345674,0,0,0.12345679012345674,185.06172839506164,0)" xlink:href="#v"/><use transform="matrix(0.12345679012345674,0,0,0.12345679012345674,207.28395061728384,0)" xlink:href="#w"/><use transform="matrix(0.12345679012345674,0,0,0.12345679012345674,231.97530864197518,0)" xlink:href="#x"/><use transform="matrix(0.12345679012345674,0,0,0.12345679012345674,246.66666666666652,0)" xlink:href="#y"/><use transform="matrix(0.12345679012345674,0,0,0.12345679012345674,271.35802469135785,0)" xlink:href="#z"/><use transform="matrix(0.12345679012345674,0,0,0.12345679012345674,283.7037037037035,0)" xlink:href="#w"/><use transform="matrix(0.12345679012345674,0,0,0.12345679012345674,308.39506172839486,0)" xlink:href="#x"/><use transform="matrix(0.12345679012345674,0,0,0.12345679012345674,323.0864197530862,0)" xlink:href="#R"/><use transform="matrix(0.12345679012345674,0,0,0.12345679012345674,337.77777777777754,0)" xlink:href="#af"/><use transform="matrix(0.12345679012345674,0,0,0.12345679012345674,350.1234567901232,0)" xlink:href="#ag"/><use transform="matrix(0.12345679012345674,0,0,0.12345679012345674,379.75308641975283,0)" xlink:href="#ad"/><use transform="matrix(0.12345679012345674,0,0,0.12345679012345674,404.4444444444442,0)" xlink:href="#y"/><use transform="matrix(0.12345679012345674,0,0,0.12345679012345674,429.1358024691355,0)" xlink:href="#ae"/><use transform="matrix(0.12345679012345674,0,0,0.12345679012345674,453.82716049382685,0)" xlink:href="#u"/><use transform="matrix(0.12345679012345674,0,0,0.12345679012345674,478.5185185185182,0)" xlink:href="#S"/></g><path fill="#333" d="M84 4C-5 8 30-112 23-190h32v120c0 31 7 50 39 49 72-2 45-101 50-169h31l1 190h-30c-1-10 1-25-2-33-11 22-28 36-60 37" id="ah"/><path fill="#333" d="M24 0v-261h32V0H24" id="ai"/><g id="k"><use transform="matrix(0.12345679012345674,0,0,0.12345679012345674,0,0)" xlink:href="#P"/><use transform="matrix(0.12345679012345674,0,0,0.12345679012345674,24.691358024691347,0)" xlink:href="#x"/><use transform="matrix(0.12345679012345674,0,0,0.12345679012345674,39.3827160493827,0)" xlink:href="#y"/><use transform="matrix(0.12345679012345674,0,0,0.12345679012345674,64.07407407407405,0)" xlink:href="#Q"/><use transform="matrix(0.12345679012345674,0,0,0.12345679012345674,96.04938271604934,0)" xlink:href="#R"/><use transform="matrix(0.12345679012345674,0,0,0.12345679012345674,110.74074074074069,0)" xlink:href="#S"/><use transform="matrix(0.12345679012345674,0,0,0.12345679012345674,125.43209876543204,0)" xlink:href="#T"/><use transform="matrix(0.12345679012345674,0,0,0.12345679012345674,137.77777777777771,0)" xlink:href="#U"/><use transform="matrix(0.12345679012345674,0,0,0.12345679012345674,159.99999999999994,0)" xlink:href="#V"/><use transform="matrix(0.12345679012345674,0,0,0.12345679012345674,169.75308641975303,0)" xlink:href="#x"/><use transform="matrix(0.12345679012345674,0,0,0.12345679012345674,184.44444444444437,0)" xlink:href="#z"/><use transform="matrix(0.12345679012345674,0,0,0.12345679012345674,196.79012345679004,0)" xlink:href="#ah"/><use transform="matrix(0.12345679012345674,0,0,0.12345679012345674,221.48148148148138,0)" xlink:href="#y"/><use transform="matrix(0.12345679012345674,0,0,0.12345679012345674,246.17283950617272,0)" xlink:href="#ai"/></g><g id="l"><use transform="matrix(0.12345679012345674,0,0,0.12345679012345674,0,0)" xlink:href="#U"/><use transform="matrix(0.12345679012345674,0,0,0.12345679012345674,22.222222222222214,0)" xlink:href="#w"/><use transform="matrix(0.12345679012345674,0,0,0.12345679012345674,46.91358024691356,0)" xlink:href="#V"/><use transform="matrix(0.12345679012345674,0,0,0.12345679012345674,56.66666666666664,0)" xlink:href="#P"/></g><path fill="#333" d="M212-179c-10-28-35-45-73-45-59 0-87 40-87 99 0 60 29 101 89 101 43 0 62-24 78-52l27 14C228-24 195 4 139 4 59 4 22-46 18-125c-6-104 99-153 187-111 19 9 31 26 39 46" id="aj"/><g id="m"><use transform="matrix(0.12345679012345674,0,0,0.12345679012345674,0,0)" xlink:href="#aj"/><use transform="matrix(0.12345679012345674,0,0,0.12345679012345674,31.975308641975296,0)" xlink:href="#V"/><use transform="matrix(0.12345679012345674,0,0,0.12345679012345674,41.72839506172838,0)" xlink:href="#x"/><use transform="matrix(0.12345679012345674,0,0,0.12345679012345674,56.41975308641973,0)" xlink:href="#v"/><use transform="matrix(0.12345679012345674,0,0,0.12345679012345674,78.64197530864195,0)" xlink:href="#ai"/><use transform="matrix(0.12345679012345674,0,0,0.12345679012345674,88.39506172839504,0)" xlink:href="#u"/></g><path fill="#333" d="M233-177c-1 41-23 64-60 70L243 0h-38l-65-103H63V0H30v-248c88 3 205-21 203 71zM63-129c60-2 137 13 137-47 0-61-80-42-137-45v92" id="ak"/><path fill="#333" d="M117-194c89-4 53 116 60 194h-32v-121c0-31-8-49-39-48C34-167 62-67 57 0H25l-1-190h30c1 10-1 24 2 32 11-22 29-35 61-36" id="al"/><path fill="#333" d="M177-190C167-65 218 103 67 71c-23-6-38-20-44-43l32-5c15 47 100 32 89-28v-30C133-14 115 1 83 1 29 1 15-40 15-95c0-56 16-97 71-98 29-1 48 16 59 35 1-10 0-23 2-32h30zM94-22c36 0 50-32 50-73 0-42-14-75-50-75-39 0-46 34-46 75s6 73 46 73" id="am"/><g id="n"><use transform="matrix(0.12345679012345674,0,0,0.12345679012345674,0,0)" xlink:href="#ak"/><use transform="matrix(0.12345679012345674,0,0,0.12345679012345674,31.975308641975296,0)" xlink:href="#u"/><use transform="matrix(0.12345679012345674,0,0,0.12345679012345674,56.66666666666664,0)" xlink:href="#v"/><use transform="matrix(0.12345679012345674,0,0,0.12345679012345674,78.88888888888886,0)" xlink:href="#z"/><use transform="matrix(0.12345679012345674,0,0,0.12345679012345674,91.23456790123453,0)" xlink:href="#y"/><use transform="matrix(0.12345679012345674,0,0,0.12345679012345674,115.92592592592587,0)" xlink:href="#al"/><use transform="matrix(0.12345679012345674,0,0,0.12345679012345674,140.6172839506172,0)" xlink:href="#am"/><use transform="matrix(0.12345679012345674,0,0,0.12345679012345674,165.30864197530855,0)" xlink:href="#ai"/><use transform="matrix(0.12345679012345674,0,0,0.12345679012345674,175.06172839506164,0)" xlink:href="#u"/></g><g id="o"><use transform="matrix(0.12345679012345674,0,0,0.12345679012345674,0,0)" xlink:href="#ak"/><use transform="matrix(0.12345679012345674,0,0,0.12345679012345674,31.975308641975296,0)" xlink:href="#u"/><use transform="matrix(0.12345679012345674,0,0,0.12345679012345674,56.66666666666664,0)" xlink:href="#P"/><use transform="matrix(0.12345679012345674,0,0,0.12345679012345674,81.358024691358,0)" xlink:href="#ag"/><use transform="matrix(0.12345679012345674,0,0,0.12345679012345674,110.98765432098762,0)" xlink:href="#ad"/><use transform="matrix(0.12345679012345674,0,0,0.12345679012345674,135.67901234567896,0)" xlink:href="#y"/><use transform="matrix(0.12345679012345674,0,0,0.12345679012345674,160.3703703703703,0)" xlink:href="#ae"/><use transform="matrix(0.12345679012345674,0,0,0.12345679012345674,185.06172839506164,0)" xlink:href="#u"/><use transform="matrix(0.12345679012345674,0,0,0.12345679012345674,209.75308641975298,0)" xlink:href="#t"/><use transform="matrix(0.12345679012345674,0,0,0.12345679012345674,241.72839506172826,0)" xlink:href="#u"/><use transform="matrix(0.12345679012345674,0,0,0.12345679012345674,266.41975308641963,0)" xlink:href="#v"/><use transform="matrix(0.12345679012345674,0,0,0.12345679012345674,288.64197530864186,0)" xlink:href="#w"/><use transform="matrix(0.12345679012345674,0,0,0.12345679012345674,313.3333333333332,0)" xlink:href="#x"/><use transform="matrix(0.12345679012345674,0,0,0.12345679012345674,328.02469135802454,0)" xlink:href="#y"/><use transform="matrix(0.12345679012345674,0,0,0.12345679012345674,352.7160493827159,0)" xlink:href="#z"/><use transform="matrix(0.12345679012345674,0,0,0.12345679012345674,365.06172839506155,0)" xlink:href="#w"/><use transform="matrix(0.12345679012345674,0,0,0.12345679012345674,389.7530864197529,0)" xlink:href="#x"/></g><g id="p"><use transform="matrix(0.12345679012345674,0,0,0.12345679012345674,0,0)" xlink:href="#O"/><use transform="matrix(0.12345679012345674,0,0,0.12345679012345674,25.925925925925917,0)" xlink:href="#ak"/><use transform="matrix(0.12345679012345674,0,0,0.12345679012345674,57.90123456790121,0)" xlink:href="#u"/><use transform="matrix(0.12345679012345674,0,0,0.12345679012345674,82.59259259259255,0)" xlink:href="#P"/><use transform="matrix(0.12345679012345674,0,0,0.12345679012345674,107.28395061728389,0)" xlink:href="#ag"/><use transform="matrix(0.12345679012345674,0,0,0.12345679012345674,136.9135802469135,0)" xlink:href="#ad"/><use transform="matrix(0.12345679012345674,0,0,0.12345679012345674,161.60493827160485,0)" xlink:href="#y"/><use transform="matrix(0.12345679012345674,0,0,0.12345679012345674,186.2962962962962,0)" xlink:href="#ae"/><use transform="matrix(0.12345679012345674,0,0,0.12345679012345674,210.98765432098753,0)" xlink:href="#u"/><use transform="matrix(0.12345679012345674,0,0,0.12345679012345674,235.67901234567887,0)" xlink:href="#t"/><use transform="matrix(0.12345679012345674,0,0,0.12345679012345674,267.65432098765416,0)" xlink:href="#u"/><use transform="matrix(0.12345679012345674,0,0,0.12345679012345674,292.3456790123455,0)" xlink:href="#v"/><use transform="matrix(0.12345679012345674,0,0,0.12345679012345674,314.5679012345677,0)" xlink:href="#w"/><use transform="matrix(0.12345679012345674,0,0,0.12345679012345674,339.25925925925907,0)" xlink:href="#x"/><use transform="matrix(0.12345679012345674,0,0,0.12345679012345674,353.9506172839504,0)" xlink:href="#y"/><use transform="matrix(0.12345679012345674,0,0,0.12345679012345674,378.64197530864175,0)" xlink:href="#z"/><use transform="matrix(0.12345679012345674,0,0,0.12345679012345674,390.9876543209874,0)" xlink:href="#w"/><use transform="matrix(0.12345679012345674,0,0,0.12345679012345674,415.67901234567876,0)" xlink:href="#x"/><use transform="matrix(0.12345679012345674,0,0,0.12345679012345674,430.3703703703701,0)" xlink:href="#R"/><use transform="matrix(0.12345679012345674,0,0,0.12345679012345674,445.06172839506144,0)" xlink:href="#af"/><use transform="matrix(0.12345679012345674,0,0,0.12345679012345674,457.4074074074071,0)" xlink:href="#ag"/><use transform="matrix(0.12345679012345674,0,0,0.12345679012345674,487.0370370370367,0)" xlink:href="#ad"/><use transform="matrix(0.12345679012345674,0,0,0.12345679012345674,511.72839506172807,0)" xlink:href="#y"/><use transform="matrix(0.12345679012345674,0,0,0.12345679012345674,536.4197530864194,0)" xlink:href="#ae"/><use transform="matrix(0.12345679012345674,0,0,0.12345679012345674,561.1111111111107,0)" xlink:href="#u"/><use transform="matrix(0.12345679012345674,0,0,0.12345679012345674,585.8024691358021,0)" xlink:href="#S"/></g><g id="q"><use transform="matrix(0.12345679012345674,0,0,0.12345679012345674,0,0)" xlink:href="#P"/><use transform="matrix(0.12345679012345674,0,0,0.12345679012345674,24.691358024691347,0)" xlink:href="#x"/><use transform="matrix(0.12345679012345674,0,0,0.12345679012345674,39.3827160493827,0)" xlink:href="#y"/><use transform="matrix(0.12345679012345674,0,0,0.12345679012345674,64.07407407407405,0)" xlink:href="#Q"/><use transform="matrix(0.12345679012345674,0,0,0.12345679012345674,96.04938271604934,0)" xlink:href="#R"/><use transform="matrix(0.12345679012345674,0,0,0.12345679012345674,110.74074074074069,0)" xlink:href="#S"/><use transform="matrix(0.12345679012345674,0,0,0.12345679012345674,125.43209876543204,0)" xlink:href="#T"/><use transform="matrix(0.12345679012345674,0,0,0.12345679012345674,137.77777777777771,0)" xlink:href="#U"/><use transform="matrix(0.12345679012345674,0,0,0.12345679012345674,159.99999999999994,0)" xlink:href="#w"/><use transform="matrix(0.12345679012345674,0,0,0.12345679012345674,184.69135802469128,0)" xlink:href="#V"/><use transform="matrix(0.12345679012345674,0,0,0.12345679012345674,194.44444444444437,0)" xlink:href="#P"/></g><path fill="#333" d="M16-82v-28h88v28H16" id="an"/><use transform="matrix(0.12345679012345674,0,0,0.12345679012345674,0,0)" xlink:href="#an" id="r"/><g id="s"><use transform="matrix(0.12345679012345674,0,0,0.12345679012345674,0,0)" xlink:href="#ac"/><use transform="matrix(0.12345679012345674,0,0,0.12345679012345674,22.222222222222214,0)" xlink:href="#u"/><use transform="matrix(0.12345679012345674,0,0,0.12345679012345674,46.91358024691356,0)" xlink:href="#z"/><use transform="matrix(0.12345679012345674,0,0,0.12345679012345674,59.25925925925924,0)" xlink:href="#ak"/><use transform="matrix(0.12345679012345674,0,0,0.12345679012345674,91.23456790123453,0)" xlink:href="#u"/><use transform="matrix(0.12345679012345674,0,0,0.12345679012345674,115.92592592592587,0)" xlink:href="#P"/><use transform="matrix(0.12345679012345674,0,0,0.12345679012345674,140.6172839506172,0)" xlink:href="#t"/><use transform="matrix(0.12345679012345674,0,0,0.12345679012345674,172.5925925925925,0)" xlink:href="#u"/><use transform="matrix(0.12345679012345674,0,0,0.12345679012345674,197.28395061728384,0)" xlink:href="#v"/><use transform="matrix(0.12345679012345674,0,0,0.12345679012345674,219.50617283950606,0)" xlink:href="#w"/><use transform="matrix(0.12345679012345674,0,0,0.12345679012345674,244.1975308641974,0)" xlink:href="#x"/><use transform="matrix(0.12345679012345674,0,0,0.12345679012345674,258.88888888888874,0)" xlink:href="#y"/><use transform="matrix(0.12345679012345674,0,0,0.12345679012345674,283.5802469135801,0)" xlink:href="#z"/><use transform="matrix(0.12345679012345674,0,0,0.12345679012345674,295.92592592592575,0)" xlink:href="#w"/><use transform="matrix(0.12345679012345674,0,0,0.12345679012345674,320.6172839506171,0)" xlink:href="#x"/><use transform="matrix(0.12345679012345674,0,0,0.12345679012345674,335.30864197530843,0)" xlink:href="#R"/><use transform="matrix(0.12345679012345674,0,0,0.12345679012345674,349.9999999999998,0)" xlink:href="#S"/><use transform="matrix(0.12345679012345674,0,0,0.12345679012345674,364.6913580246911,0)" xlink:href="#T"/><use transform="matrix(0.12345679012345674,0,0,0.12345679012345674,377.0370370370368,0)" xlink:href="#U"/><use transform="matrix(0.12345679012345674,0,0,0.12345679012345674,399.259259259259,0)" xlink:href="#w"/><use transform="matrix(0.12345679012345674,0,0,0.12345679012345674,423.95061728395035,0)" xlink:href="#V"/><use transform="matrix(0.12345679012345674,0,0,0.12345679012345674,433.7037037037034,0)" xlink:href="#P"/></g></defs></g></svg>