<svg xmlns="http://www.w3.org/2000/svg" xmlns:xlink="http://www.w3.org/1999/xlink" xmlns:lucid="lucid" width="2520" height="1466"><g transform="translate(-60 220)" lucid:page-tab-id="0_0"><path d="M720 126c0-3.3 2.7-6 6-6h548c3.3 0 6 2.7 6 6v300c0 3.3-2.7 6-6 6H726c-3.3 0-6-2.7-6-6z" stroke="#5e5e5e" stroke-width="3" fill-opacity="0"/><path d="M720 194.67h560M720 313.5h560" stroke="#5e5e5e" stroke-width="3" fill="none"/><use xlink:href="#a" transform="matrix(1,0,0,1,728,128) translate(18.055555555555685 39.27777777777777)"/><use xlink:href="#b" transform="matrix(1,0,0,1,728,128) translate(415.08024691358014 39.27777777777777)"/><use xlink:href="#c" transform="matrix(1,0,0,1,732,202.66666666666663) translate(0 60.388888888888886)"/><use xlink:href="#d" transform="matrix(1,0,0,1,732,202.66666666666663) translate(37.037037037037024 60.388888888888886)"/><use xlink:href="#e" transform="matrix(1,0,0,1,732,321.49999999999994) translate(0 60.388888888888886)"/><use xlink:href="#f" transform="matrix(1,0,0,1,732,321.49999999999994) translate(38.271604938271594 60.388888888888886)"/><use xlink:href="#g" transform="matrix(1,0,0,1,732,321.49999999999994) translate(363.9506172839504 60.388888888888886)"/><path d="M1920 46c0-3.3 2.7-6 6-6h628c3.3 0 6 2.7 6 6v460c0 3.3-2.7 6-6 6h-628c-3.3 0-6-2.7-6-6z" stroke="#5e5e5e" stroke-width="3" fill-opacity="0"/><path d="M1920 114.67h640m-640 225.5h640" stroke="#5e5e5e" stroke-width="3" fill="none"/><use xlink:href="#h" transform="matrix(1,0,0,1,1928,48) translate(223.93209876543216 39.27777777777777)"/><use xlink:href="#i" transform="matrix(1,0,0,1,1932,122.66666666666663) translate(0 60.55555555555557)"/><use xlink:href="#j" transform="matrix(1,0,0,1,1932,122.66666666666663) translate(27.037037037037024 60.55555555555557)"/><use xlink:href="#i" transform="matrix(1,0,0,1,1932,122.66666666666663) translate(0 113.88888888888889)"/><use xlink:href="#k" transform="matrix(1,0,0,1,1932,122.66666666666663) translate(27.037037037037024 113.88888888888889)"/><use xlink:href="#e" transform="matrix(1,0,0,1,1932,122.66666666666663) translate(0 167.2222222222222)"/><use xlink:href="#l" transform="matrix(1,0,0,1,1932,122.66666666666663) translate(38.271604938271594 167.2222222222222)"/><use xlink:href="#e" transform="matrix(1,0,0,1,1932,348.1666666666666) translate(0 60.72222222222223)"/><use xlink:href="#m" transform="matrix(1,0,0,1,1932,348.1666666666666) translate(38.271604938271594 60.72222222222223)"/><use xlink:href="#i" transform="matrix(1,0,0,1,1932,348.1666666666666) translate(0 114.05555555555554)"/><use xlink:href="#n" transform="matrix(1,0,0,1,1932,348.1666666666666) translate(27.037037037037024 114.05555555555554)"/><path d="M80 866c0-3.3 2.7-6 6-6h548c3.3 0 6 2.7 6 6v354c0 3.3-2.7 6-6 6H86c-3.3 0-6-2.7-6-6z" stroke="#5e5e5e" stroke-width="3" fill-opacity="0"/><path d="M80 934.67h560M80 1053.5h560" stroke="#5e5e5e" stroke-width="3" fill="none"/><use xlink:href="#o" transform="matrix(1,0,0,1,88,868) translate(101.09259259259272 39.27777777777777)"/><use xlink:href="#e" transform="matrix(1,0,0,1,92,942.6666666666666) translate(0 60.388888888888886)"/><use xlink:href="#d" transform="matrix(1,0,0,1,92,942.6666666666666) translate(38.271604938271594 60.388888888888886)"/><use xlink:href="#e" transform="matrix(1,0,0,1,92,1061.5) translate(0 60.72222222222223)"/><use xlink:href="#p" transform="matrix(1,0,0,1,92,1061.5) translate(38.271604938271594 60.72222222222223)"/><use xlink:href="#e" transform="matrix(1,0,0,1,92,1061.5) translate(0 114.05555555555554)"/><use xlink:href="#q" transform="matrix(1,0,0,1,92,1061.5) translate(38.271604938271594 114.05555555555554)"/><path d="M720 866c0-3.3 2.7-6 6-6h548c3.3 0 6 2.7 6 6v354c0 3.3-2.7 6-6 6H726c-3.3 0-6-2.7-6-6z" stroke="#5e5e5e" stroke-width="3" fill-opacity="0"/><path d="M720 934.67h560M720 1053.5h560" stroke="#5e5e5e" stroke-width="3" fill="none"/><use xlink:href="#r" transform="matrix(1,0,0,1,728,868) translate(113.24691358024702 39.27777777777777)"/><use xlink:href="#e" transform="matrix(1,0,0,1,732,942.6666666666666) translate(0 60.388888888888886)"/><use xlink:href="#d" transform="matrix(1,0,0,1,732,942.6666666666666) translate(38.271604938271594 60.388888888888886)"/><use xlink:href="#e" transform="matrix(1,0,0,1,732,1061.5) translate(0 60.72222222222223)"/><use xlink:href="#s" transform="matrix(1,0,0,1,732,1061.5) translate(38.271604938271594 60.72222222222223)"/><use xlink:href="#e" transform="matrix(1,0,0,1,732,1061.5) translate(0 114.05555555555554)"/><use xlink:href="#q" transform="matrix(1,0,0,1,732,1061.5) translate(38.271604938271594 114.05555555555554)"/><path d="M1360 866c0-3.3 2.7-6 6-6h548c3.3 0 6 2.7 6 6v354c0 3.3-2.7 6-6 6h-548c-3.3 0-6-2.7-6-6z" stroke="#5e5e5e" stroke-width="3" fill-opacity="0"/><path d="M1360 934.67h560m-560 118.83h560" stroke="#5e5e5e" stroke-width="3" fill="none"/><use xlink:href="#t" transform="matrix(1,0,0,1,1368,868) translate(115.96296296296308 39.27777777777777)"/><g><use xlink:href="#e" transform="matrix(1,0,0,1,1372,942.6666666666666) translate(0 60.388888888888886)"/><use xlink:href="#d" transform="matrix(1,0,0,1,1372,942.6666666666666) translate(38.271604938271594 60.388888888888886)"/></g><g><use xlink:href="#e" transform="matrix(1,0,0,1,1372,1061.5) translate(0 60.72222222222223)"/><use xlink:href="#u" transform="matrix(1,0,0,1,1372,1061.5) translate(38.271604938271594 60.72222222222223)"/><use xlink:href="#e" transform="matrix(1,0,0,1,1372,1061.5) translate(0 114.05555555555554)"/><use xlink:href="#q" transform="matrix(1,0,0,1,1372,1061.5) translate(38.271604938271594 114.05555555555554)"/></g><path d="M572.7 686.14l-3.64 1.28-45.88 18.07-29.82 13.22-21.83 10.8-16.9 9.3L441.1 747l-11.12 7.36-9.27 6.73-7.83 6.2-6.7 5.8-5.8 5.43-5.05 5.14-4.4 4.9-3.88 4.68-3.43 4.5-3.02 4.37-2.7 4.23-2.37 4.13-2.1 4.05-1.9 4-1.65 3.93-1.45 3.92-1.27 3.9-1.1 3.9-.9 3.9-.76 3.96-.6 4-.42 4.06-.26 4.14-.04 1.32-6-.13.03-1.44.27-4.4.45-4.32.63-4.24.8-4.2.98-4.16 1.15-4.14 1.35-4.14 1.54-4.15 1.76-4.17 1.98-4.2 2.25-4.3 2.5-4.34 2.83-4.45 3.18-4.57 3.57-4.7 4.04-4.9 4.58-5.07 5.22-5.32 5.97-5.6 6.9-5.96 8.05-6.37 9.46-6.87 11.32-7.5 13.75-8.32 17.13-9.4 22.05-10.9 30.06-13.35 46.1-18.15 5.74-2.03zm425.62-221.76l-1.05 3.22-1.54 4.15-1.76 4.17-1.98 4.2-2.25 4.3-2.5 4.34-2.83 4.45-3.18 4.57-3.57 4.7-4.04 4.9-4.58 5.07-5.22 5.32-5.97 5.6-6.9 5.96-8.05 6.37-9.46 6.87-11.32 7.5-13.75 8.32-17.13 9.4-22.05 10.9-30.1 13.37-150.84 53.26v-6.36l148.6-52.48 29.78-13.22 21.83-10.8 16.9-9.3L918.9 545l11.12-7.36 9.27-6.73 7.83-6.2 6.7-5.8 5.8-5.43 5.05-5.14 4.4-4.9 3.88-4.68 3.43-4.5 3.02-4.37 2.7-4.23 2.37-4.13 2.1-4.05 1.9-4 1.65-3.93 1.45-3.92 1-3.1z" fill="#5e5e5e"/><path d="M363.06 855.48l-.06 3.02h-6l.07-3.15z" fill="#5e5e5e"/><path d="M1008.48 462.5l-25.17-3.8 15.82-19.37z" fill="#fff"/><path d="M1013.23 466.26l-35.57-5.38L1000 433.5zm-24.27-9.74l14.77 2.23-5.5-13.6z" fill="#5e5e5e"/><g><use xlink:href="#v" transform="matrix(1,0,0,1,572.7010449340304,627.8860257367133) translate(0 46.22222222222217)"/><use xlink:href="#w" transform="matrix(1,0,0,1,572.7010449340304,627.8860257367133) translate(57.777777777777715 46.22222222222217)"/></g><path d="M1000 855.5V463.9" stroke="#5e5e5e" stroke-width="6" fill="none"/><path d="M1003 858.5h-6v-3.08h6z" fill="#5e5e5e"/><path d="M1000 439.4l12.73 21.5h-25.46z" stroke="#5e5e5e" stroke-width="6" fill="#fff"/><path d="M1639.94 855.5l-.03-1.38-.26-4.27-.44-4.2-.6-4.1-.8-4.1-.93-4.02-1.13-4.02-1.3-4-1.5-4.04-1.7-4.06-1.94-4.1-2.18-4.16-2.45-4.24-2.75-4.35-3.1-4.46-3.5-4.6-3.96-4.8-4.5-4.98-5.12-5.24-5.9-5.52-6.8-5.87-7.94-6.3-9.37-6.8-11.2-7.44-13.66-8.25-17.02-9.33L1507.9 716 1478 702.73l-46-18.1-269.96-95.34-29.93-13.3-21.95-10.85-17.02-9.34-13.65-8.26-11.2-7.44-9.38-6.8-7.94-6.3-6.8-5.86-5.9-5.52-5.12-5.24-4.5-4.98-3.96-4.8-3.5-4.6-3.1-4.45-2.75-4.35-2.45-4.24-2.18-4.16-1.93-4.1-1.7-4.06-1.5-4.03-1.03-3.15" stroke="#5e5e5e" stroke-width="6" fill="none"/><path d="M1643 858.5h-6l-.06-3.02 6-.13z" fill="#5e5e5e"/><path d="M1000.88 439.33l15.8 19.37-25.16 3.8z" stroke="#5e5e5e" stroke-width="6" fill="#fff"/><path d="M1915.5 279h-29.93v-6h29.93zm-59.86 0h-59.86v-6h59.86zm-89.8 0H1706v-6h59.87zM1544 279h-17.6v-6h17.6zm-47.53 0h-59.86v-6h59.87zm-89.8 0h-59.85v-6h59.86zm-89.78 0h-29.95v-6h29.94zm359.15 0H1656v-6h20.05z" fill="#5e5e5e"/><path d="M1918.5 279h-3.08v-6h3.08zM1306.14 268.4l-12.85 7.6 12.84 7.6-3.06 5.16L1281.5 276l21.58-12.76z" fill="#5e5e5e"/><g><use xlink:href="#x" transform="matrix(1,0,0,1,1543.9876543209878,241.33333333333331) translate(0 46.22222222222223)"/><use xlink:href="#y" transform="matrix(1,0,0,1,1543.9876543209878,241.33333333333331) translate(54.24691358024691 46.22222222222223)"/></g><path d="M1160-194c0-3.3 2.7-6 6-6h948c3.3 0 6 2.7 6 6V-6c0 3.3-2.7 6-6 6h-948c-3.3 0-6-2.7-6-6z" stroke="#000" stroke-opacity="0" stroke-width="3" fill="#fff" fill-opacity="0"/><g><use xlink:href="#z" transform="matrix(1,0,0,1,1165,-195) translate(104.69135802469191 109.72222222222213)"/><use xlink:href="#A" transform="matrix(1,0,0,1,1165,-195) translate(449.72222222222223 109.72222222222213)"/><use xlink:href="#B" transform="matrix(1,0,0,1,1165,-195) translate(527.4999999999999 109.72222222222213)"/><use xlink:href="#C" transform="matrix(1,0,0,1,1165,-195) translate(600.5246913580245 109.72222222222213)"/><use xlink:href="#D" transform="matrix(1,0,0,1,1165,-195) translate(673.5493827160491 109.72222222222213)"/><use xlink:href="#E" transform="matrix(1,0,0,1,1165,-195) translate(746.5740740740737 109.72222222222213)"/></g><defs><path fill="#333" d="M140-251c80 0 125 45 125 126S219 4 139 4C58 4 15-44 15-125s44-126 125-126zm-1 214c52 0 73-35 73-88 0-50-21-86-72-86-52 0-73 35-73 86s22 88 72 88" id="F"/><path fill="#333" d="M135-194c52 0 70 43 70 98 0 56-19 99-73 100-30 1-46-15-58-35L72 0H24l1-261h50v104c11-23 29-37 60-37zM114-30c31 0 40-27 40-66 0-37-7-63-39-63s-41 28-41 65c0 36 8 64 40 64" id="G"/><path fill="#333" d="M137-138c1-29-70-34-71-4 15 46 118 7 119 86 1 83-164 76-172 9l43-7c4 19 20 25 44 25 33 8 57-30 24-41C81-84 22-81 20-136c-2-80 154-74 161-7" id="H"/><path fill="#333" d="M185-48c-13 30-37 53-82 52C43 2 14-33 14-96s30-98 90-98c62 0 83 45 84 108H66c0 31 8 55 39 56 18 0 30-7 34-22zm-45-69c5-46-57-63-70-21-2 6-4 13-4 21h74" id="I"/><path fill="#333" d="M135-150c-39-12-60 13-60 57V0H25l-1-190h47c2 13-1 29 3 40 6-28 27-53 61-41v41" id="J"/><path fill="#333" d="M128 0H69L1-190h53L99-40l48-150h52" id="K"/><path fill="#333" d="M33-154v-36h34v36H33zM33 0v-36h34V0H33" id="L"/><path fill="#333" d="M141-36C126-15 110 5 73 4 37 3 15-17 15-53c-1-64 63-63 125-63 3-35-9-54-41-54-24 1-41 7-42 31l-33-3c5-37 33-52 76-52 45 0 72 20 72 64v82c-1 20 7 32 28 27v20c-31 9-61-2-59-35zM48-53c0 20 12 33 32 33 41-3 63-29 60-74-43 2-92-5-92 41" id="M"/><path fill="#333" d="M115-194c53 0 69 39 70 98 0 66-23 100-70 100C84 3 66-7 56-30L54 0H23l1-261h32v101c10-23 28-34 59-34zm-8 174c40 0 45-34 45-75 0-40-5-75-45-74-42 0-51 32-51 76 0 43 10 73 51 73" id="N"/><path fill="#333" d="M135-143c-3-34-86-38-87 0 15 53 115 12 119 90S17 21 10-45l28-5c4 36 97 45 98 0-10-56-113-15-118-90-4-57 82-63 122-42 12 7 21 19 24 35" id="O"/><path fill="#333" d="M59-47c-2 24 18 29 38 22v24C64 9 27 4 27-40v-127H5v-23h24l9-43h21v43h35v23H59v120" id="P"/><path fill="#333" d="M114-163C36-179 61-72 57 0H25l-1-190h30c1 12-1 29 2 39 6-27 23-49 58-41v29" id="Q"/><path fill="#333" d="M96-169c-40 0-48 33-48 73s9 75 48 75c24 0 41-14 43-38l32 2c-6 37-31 61-74 61-59 0-76-41-82-99-10-93 101-131 147-64 4 7 5 14 7 22l-32 3c-4-21-16-35-41-35" id="R"/><g id="a"><use transform="matrix(0.13580246913580238,0,0,0.13580246913580238,0,0)" xlink:href="#F"/><use transform="matrix(0.13580246913580238,0,0,0.13580246913580238,38.02469135802467,0)" xlink:href="#G"/><use transform="matrix(0.13580246913580238,0,0,0.13580246913580238,67.76543209876539,0)" xlink:href="#H"/><use transform="matrix(0.13580246913580238,0,0,0.13580246913580238,94.92592592592587,0)" xlink:href="#I"/><use transform="matrix(0.13580246913580238,0,0,0.13580246913580238,122.08641975308636,0)" xlink:href="#J"/><use transform="matrix(0.13580246913580238,0,0,0.13580246913580238,141.09876543209867,0)" xlink:href="#K"/><use transform="matrix(0.13580246913580238,0,0,0.13580246913580238,168.25925925925915,0)" xlink:href="#I"/><use transform="matrix(0.13580246913580238,0,0,0.13580246913580238,195.41975308641963,0)" xlink:href="#J"/><use transform="matrix(0.12345679012345674,0,0,0.12345679012345674,214.43209876543196,0)" xlink:href="#L"/><use transform="matrix(0.12345679012345674,0,0,0.12345679012345674,226.77777777777763,0)" xlink:href="#M"/><use transform="matrix(0.12345679012345674,0,0,0.12345679012345674,251.46913580246897,0)" xlink:href="#N"/><use transform="matrix(0.12345679012345674,0,0,0.12345679012345674,276.16049382716034,0)" xlink:href="#O"/><use transform="matrix(0.12345679012345674,0,0,0.12345679012345674,298.38271604938257,0)" xlink:href="#P"/><use transform="matrix(0.12345679012345674,0,0,0.12345679012345674,310.72839506172824,0)" xlink:href="#Q"/><use transform="matrix(0.12345679012345674,0,0,0.12345679012345674,325.4197530864196,0)" xlink:href="#M"/><use transform="matrix(0.12345679012345674,0,0,0.12345679012345674,350.1111111111109,0)" xlink:href="#R"/><use transform="matrix(0.12345679012345674,0,0,0.12345679012345674,372.33333333333314,0)" xlink:href="#P"/></g><path fill="#333" d="M212-179c-10-28-35-45-73-45-59 0-87 40-87 99 0 60 29 101 89 101 43 0 62-24 78-52l27 14C228-24 195 4 139 4 59 4 22-46 18-125c-6-104 99-153 187-111 19 9 31 26 39 46" id="S"/><path fill="#333" d="M24 0v-261h32V0H24" id="T"/><g id="b"><use transform="matrix(0.12345679012345674,0,0,0.12345679012345674,0,0)" xlink:href="#S"/><use transform="matrix(0.12345679012345674,0,0,0.12345679012345674,31.975308641975296,0)" xlink:href="#T"/><use transform="matrix(0.12345679012345674,0,0,0.12345679012345674,41.72839506172838,0)" xlink:href="#M"/><use transform="matrix(0.12345679012345674,0,0,0.12345679012345674,66.41975308641972,0)" xlink:href="#O"/><use transform="matrix(0.12345679012345674,0,0,0.12345679012345674,88.64197530864193,0)" xlink:href="#O"/></g><path fill="#333" d="M158-156l-14 65h45v19h-49L124 0h-19l15-72H56L41 0H22l15-72H2v-19h39l14-65H11v-19h48l15-71h20l-16 71h64l16-71h19l-16 71h37v19h-40zm-83 0L61-91h63l14-65H75" id="U"/><use transform="matrix(0.12345679012345674,0,0,0.12345679012345674,0,0)" xlink:href="#U" id="c"/><path fill="#333" d="M84 4C-5 8 30-112 23-190h32v120c0 31 7 50 39 49 72-2 45-101 50-169h31l1 190h-30c-1-10 1-25-2-33-11 22-28 36-60 37" id="V"/><path fill="#333" d="M24-231v-30h32v30H24zM-9 49c24 4 33-6 33-30v-209h32V24c2 40-23 58-65 49V49" id="W"/><path fill="#333" d="M100-194c63 0 86 42 84 106H49c0 40 14 67 53 68 26 1 43-12 49-29l28 8c-11 28-37 45-77 45C44 4 14-33 15-96c1-61 26-98 85-98zm52 81c6-60-76-77-97-28-3 7-6 17-6 28h103" id="X"/><path fill="#333" d="M185-189c-5-48-123-54-124 2 14 75 158 14 163 119 3 78-121 87-175 55-17-10-28-26-33-46l33-7c5 56 141 63 141-1 0-78-155-14-162-118-5-82 145-84 179-34 5 7 8 16 11 25" id="Y"/><g id="d"><use transform="matrix(0.12345679012345674,0,0,0.12345679012345674,0,0)" xlink:href="#O"/><use transform="matrix(0.12345679012345674,0,0,0.12345679012345674,22.222222222222214,0)" xlink:href="#V"/><use transform="matrix(0.12345679012345674,0,0,0.12345679012345674,46.91358024691356,0)" xlink:href="#N"/><use transform="matrix(0.12345679012345674,0,0,0.12345679012345674,71.60493827160491,0)" xlink:href="#W"/><use transform="matrix(0.12345679012345674,0,0,0.12345679012345674,81.358024691358,0)" xlink:href="#X"/><use transform="matrix(0.12345679012345674,0,0,0.12345679012345674,106.04938271604934,0)" xlink:href="#R"/><use transform="matrix(0.12345679012345674,0,0,0.12345679012345674,128.27160493827154,0)" xlink:href="#P"/><use transform="matrix(0.12345679012345674,0,0,0.12345679012345674,140.6172839506172,0)" xlink:href="#L"/><use transform="matrix(0.12345679012345674,0,0,0.12345679012345674,152.96296296296288,0)" xlink:href="#Y"/><use transform="matrix(0.12345679012345674,0,0,0.12345679012345674,182.5925925925925,0)" xlink:href="#V"/><use transform="matrix(0.12345679012345674,0,0,0.12345679012345674,207.28395061728384,0)" xlink:href="#N"/><use transform="matrix(0.12345679012345674,0,0,0.12345679012345674,231.97530864197518,0)" xlink:href="#W"/><use transform="matrix(0.12345679012345674,0,0,0.12345679012345674,241.72839506172826,0)" xlink:href="#X"/><use transform="matrix(0.12345679012345674,0,0,0.12345679012345674,266.41975308641963,0)" xlink:href="#R"/><use transform="matrix(0.12345679012345674,0,0,0.12345679012345674,288.64197530864186,0)" xlink:href="#P"/></g><path fill="#333" d="M118-107v75H92v-75H18v-26h74v-75h26v75h74v26h-74" id="Z"/><use transform="matrix(0.12345679012345674,0,0,0.12345679012345674,0,0)" xlink:href="#Z" id="e"/><path fill="#333" d="M232-93c-1 65-40 97-104 97C67 4 28-28 28-90v-158h33c8 89-33 224 67 224 102 0 64-133 71-224h33v155" id="aa"/><path fill="#333" d="M115-194c55 1 70 41 70 98S169 2 115 4C84 4 66-9 55-30l1 105H24l-1-265h31l2 30c10-21 28-34 59-34zm-8 174c40 0 45-34 45-75s-6-73-45-74c-42 0-51 32-51 76 0 43 10 73 51 73" id="ab"/><path fill="#333" d="M85-194c31 0 48 13 60 33l-1-100h32l1 261h-30c-2-10 0-23-3-31C134-8 116 4 85 4 32 4 16-35 15-94c0-66 23-100 70-100zm9 24c-40 0-46 34-46 75 0 40 6 74 45 74 42 0 51-32 51-76 0-42-9-74-50-73" id="ac"/><g id="f"><use transform="matrix(0.12345679012345674,0,0,0.12345679012345674,0,0)" xlink:href="#aa"/><use transform="matrix(0.12345679012345674,0,0,0.12345679012345674,31.975308641975296,0)" xlink:href="#ab"/><use transform="matrix(0.12345679012345674,0,0,0.12345679012345674,56.66666666666664,0)" xlink:href="#ac"/><use transform="matrix(0.12345679012345674,0,0,0.12345679012345674,81.358024691358,0)" xlink:href="#M"/><use transform="matrix(0.12345679012345674,0,0,0.12345679012345674,106.04938271604934,0)" xlink:href="#P"/><use transform="matrix(0.12345679012345674,0,0,0.12345679012345674,118.395061728395,0)" xlink:href="#X"/><use transform="matrix(0.12345679012345674,0,0,0.12345679012345674,143.08641975308635,0)" xlink:href="#L"/><use transform="matrix(0.12345679012345674,0,0,0.12345679012345674,155.43209876543202,0)" xlink:href="#M"/><use transform="matrix(0.12345679012345674,0,0,0.12345679012345674,180.12345679012336,0)" xlink:href="#N"/><use transform="matrix(0.12345679012345674,0,0,0.12345679012345674,204.8148148148147,0)" xlink:href="#O"/><use transform="matrix(0.12345679012345674,0,0,0.12345679012345674,227.0370370370369,0)" xlink:href="#P"/><use transform="matrix(0.12345679012345674,0,0,0.12345679012345674,239.38271604938257,0)" xlink:href="#Q"/><use transform="matrix(0.12345679012345674,0,0,0.12345679012345674,254.0740740740739,0)" xlink:href="#M"/><use transform="matrix(0.12345679012345674,0,0,0.12345679012345674,278.76543209876525,0)" xlink:href="#R"/><use transform="matrix(0.12345679012345674,0,0,0.12345679012345674,300.9876543209875,0)" xlink:href="#P"/></g><path fill="#333" d="M108 0H70L1-190h34L89-25l56-165h34" id="ad"/><path fill="#333" d="M100-194c62-1 85 37 85 99 1 63-27 99-86 99S16-35 15-95c0-66 28-99 85-99zM99-20c44 1 53-31 53-75 0-43-8-75-51-75s-53 32-53 75 10 74 51 75" id="ae"/><path fill="#333" d="M24-231v-30h32v30H24zM24 0v-190h32V0H24" id="af"/><g id="g"><use transform="matrix(0.12345679012345674,0,0,0.12345679012345674,0,0)" xlink:href="#ad"/><use transform="matrix(0.12345679012345674,0,0,0.12345679012345674,22.222222222222214,0)" xlink:href="#ae"/><use transform="matrix(0.12345679012345674,0,0,0.12345679012345674,46.91358024691356,0)" xlink:href="#af"/><use transform="matrix(0.12345679012345674,0,0,0.12345679012345674,56.66666666666664,0)" xlink:href="#ac"/></g><path fill="#333" d="M169-182c-1-43-94-46-97-3 18 66 151 10 154 114 3 95-165 93-204 36-6-8-10-19-12-30l50-8c3 46 112 56 116 5-17-69-150-10-154-114-4-87 153-88 188-35 5 8 8 18 10 28" id="ag"/><path fill="#333" d="M85 4C-2 5 27-109 22-190h50c7 57-23 150 33 157 60-5 35-97 40-157h50l1 190h-47c-2-12 1-28-3-38-12 25-28 42-61 42" id="ah"/><path fill="#333" d="M25-224v-37h50v37H25zM75 22c2 45-34 59-81 51V38c22 5 31-5 31-27v-201h50V22" id="ai"/><path fill="#333" d="M190-63c-7 42-38 67-86 67-59 0-84-38-90-98-12-110 154-137 174-36l-49 2c-2-19-15-32-35-32-30 0-35 28-38 64-6 74 65 87 74 30" id="aj"/><path fill="#333" d="M115-3C79 11 28 4 28-45v-112H4v-33h27l15-45h31v45h36v33H77v99c-1 23 16 31 38 25v30" id="ak"/><g id="h"><use transform="matrix(0.13580246913580238,0,0,0.13580246913580238,0,0)" xlink:href="#ag"/><use transform="matrix(0.13580246913580238,0,0,0.13580246913580238,32.592592592592574,0)" xlink:href="#ah"/><use transform="matrix(0.13580246913580238,0,0,0.13580246913580238,62.33333333333329,0)" xlink:href="#G"/><use transform="matrix(0.13580246913580238,0,0,0.13580246913580238,92.07407407407402,0)" xlink:href="#ai"/><use transform="matrix(0.13580246913580238,0,0,0.13580246913580238,105.65432098765426,0)" xlink:href="#I"/><use transform="matrix(0.13580246913580238,0,0,0.13580246913580238,132.81481481481472,0)" xlink:href="#aj"/><use transform="matrix(0.13580246913580238,0,0,0.13580246913580238,159.9753086419752,0)" xlink:href="#ak"/></g><path fill="#333" d="M16-82v-28h88v28H16" id="al"/><use transform="matrix(0.12345679012345674,0,0,0.12345679012345674,0,0)" xlink:href="#al" id="i"/><path fill="#333" d="M30 0v-248h33v221h125V0H30" id="am"/><path fill="#333" d="M18-100v-36l175-74v27L42-118l151 64v27" id="an"/><path fill="#333" d="M140-251c81 0 123 46 123 126C263-46 219 4 140 4 59 4 17-45 17-125s42-126 123-126zm0 227c63 0 89-41 89-101s-29-99-89-99c-61 0-89 39-89 99S79-25 140-24" id="ao"/><path fill="#333" d="M18-27v-27l151-64-151-65v-27l175 74v36" id="ap"/><g id="j"><use transform="matrix(0.12345679012345674,0,0,0.12345679012345674,0,0)" xlink:href="#ae"/><use transform="matrix(0.12345679012345674,0,0,0.12345679012345674,24.691358024691347,0)" xlink:href="#N"/><use transform="matrix(0.12345679012345674,0,0,0.12345679012345674,49.382716049382694,0)" xlink:href="#O"/><use transform="matrix(0.12345679012345674,0,0,0.12345679012345674,71.60493827160491,0)" xlink:href="#X"/><use transform="matrix(0.12345679012345674,0,0,0.12345679012345674,96.29629629629625,0)" xlink:href="#Q"/><use transform="matrix(0.12345679012345674,0,0,0.12345679012345674,110.9876543209876,0)" xlink:href="#ad"/><use transform="matrix(0.12345679012345674,0,0,0.12345679012345674,133.20987654320982,0)" xlink:href="#X"/><use transform="matrix(0.12345679012345674,0,0,0.12345679012345674,157.90123456790116,0)" xlink:href="#Q"/><use transform="matrix(0.12345679012345674,0,0,0.12345679012345674,172.5925925925925,0)" xlink:href="#O"/><use transform="matrix(0.12345679012345674,0,0,0.12345679012345674,194.81481481481472,0)" xlink:href="#L"/><use transform="matrix(0.12345679012345674,0,0,0.12345679012345674,207.1604938271604,0)" xlink:href="#am"/><use transform="matrix(0.12345679012345674,0,0,0.12345679012345674,231.85185185185173,0)" xlink:href="#af"/><use transform="matrix(0.12345679012345674,0,0,0.12345679012345674,241.60493827160482,0)" xlink:href="#O"/><use transform="matrix(0.12345679012345674,0,0,0.12345679012345674,263.827160493827,0)" xlink:href="#P"/><use transform="matrix(0.12345679012345674,0,0,0.12345679012345674,276.1728395061727,0)" xlink:href="#an"/><use transform="matrix(0.12345679012345674,0,0,0.12345679012345674,302.0987654320986,0)" xlink:href="#ao"/><use transform="matrix(0.12345679012345674,0,0,0.12345679012345674,336.6666666666665,0)" xlink:href="#N"/><use transform="matrix(0.12345679012345674,0,0,0.12345679012345674,361.35802469135785,0)" xlink:href="#O"/><use transform="matrix(0.12345679012345674,0,0,0.12345679012345674,383.5802469135801,0)" xlink:href="#X"/><use transform="matrix(0.12345679012345674,0,0,0.12345679012345674,408.2716049382714,0)" xlink:href="#Q"/><use transform="matrix(0.12345679012345674,0,0,0.12345679012345674,422.96296296296276,0)" xlink:href="#ad"/><use transform="matrix(0.12345679012345674,0,0,0.12345679012345674,445.185185185185,0)" xlink:href="#X"/><use transform="matrix(0.12345679012345674,0,0,0.12345679012345674,469.87654320987633,0)" xlink:href="#Q"/><use transform="matrix(0.12345679012345674,0,0,0.12345679012345674,484.56790123456767,0)" xlink:href="#ap"/></g><path fill="#333" d="M117-194c89-4 53 116 60 194h-32v-121c0-31-8-49-39-48C34-167 62-67 57 0H25l-1-190h30c1 10-1 24 2 32 11-22 29-35 61-36" id="aq"/><g id="k"><use transform="matrix(0.12345679012345674,0,0,0.12345679012345674,0,0)" xlink:href="#O"/><use transform="matrix(0.12345679012345674,0,0,0.12345679012345674,22.222222222222214,0)" xlink:href="#P"/><use transform="matrix(0.12345679012345674,0,0,0.12345679012345674,34.567901234567884,0)" xlink:href="#M"/><use transform="matrix(0.12345679012345674,0,0,0.12345679012345674,59.25925925925923,0)" xlink:href="#P"/><use transform="matrix(0.12345679012345674,0,0,0.12345679012345674,71.60493827160491,0)" xlink:href="#X"/><use transform="matrix(0.12345679012345674,0,0,0.12345679012345674,96.29629629629625,0)" xlink:href="#L"/><use transform="matrix(0.12345679012345674,0,0,0.12345679012345674,108.64197530864192,0)" xlink:href="#af"/><use transform="matrix(0.12345679012345674,0,0,0.12345679012345674,118.395061728395,0)" xlink:href="#aq"/><use transform="matrix(0.12345679012345674,0,0,0.12345679012345674,143.08641975308635,0)" xlink:href="#P"/></g><g id="l"><use transform="matrix(0.12345679012345674,0,0,0.12345679012345674,0,0)" xlink:href="#Y"/><use transform="matrix(0.12345679012345674,0,0,0.12345679012345674,29.62962962962962,0)" xlink:href="#P"/><use transform="matrix(0.12345679012345674,0,0,0.12345679012345674,41.97530864197529,0)" xlink:href="#M"/><use transform="matrix(0.12345679012345674,0,0,0.12345679012345674,66.66666666666663,0)" xlink:href="#P"/><use transform="matrix(0.12345679012345674,0,0,0.12345679012345674,79.0123456790123,0)" xlink:href="#X"/><use transform="matrix(0.12345679012345674,0,0,0.12345679012345674,103.70370370370364,0)" xlink:href="#L"/><use transform="matrix(0.12345679012345674,0,0,0.12345679012345674,116.04938271604931,0)" xlink:href="#af"/><use transform="matrix(0.12345679012345674,0,0,0.12345679012345674,125.8024691358024,0)" xlink:href="#aq"/><use transform="matrix(0.12345679012345674,0,0,0.12345679012345674,150.49382716049374,0)" xlink:href="#P"/></g><path fill="#333" d="M106-169C34-169 62-67 57 0H25v-261h32l-1 103c12-21 28-36 61-36 89 0 53 116 60 194h-32v-121c2-32-8-49-39-48" id="ar"/><path fill="#333" d="M87 75C49 33 22-17 22-94c0-76 28-126 65-167h31c-38 41-64 92-64 168S80 34 118 75H87" id="as"/><path fill="#333" d="M33-261c38 41 65 92 65 168S71 34 33 75H2C39 34 66-17 66-93S39-220 2-261h31" id="at"/><g id="m"><use transform="matrix(0.12345679012345674,0,0,0.12345679012345674,0,0)" xlink:href="#M"/><use transform="matrix(0.12345679012345674,0,0,0.12345679012345674,24.691358024691347,0)" xlink:href="#P"/><use transform="matrix(0.12345679012345674,0,0,0.12345679012345674,37.037037037037024,0)" xlink:href="#P"/><use transform="matrix(0.12345679012345674,0,0,0.12345679012345674,49.382716049382694,0)" xlink:href="#M"/><use transform="matrix(0.12345679012345674,0,0,0.12345679012345674,74.07407407407405,0)" xlink:href="#R"/><use transform="matrix(0.12345679012345674,0,0,0.12345679012345674,96.29629629629626,0)" xlink:href="#ar"/><use transform="matrix(0.12345679012345674,0,0,0.12345679012345674,120.98765432098762,0)" xlink:href="#as"/><use transform="matrix(0.12345679012345674,0,0,0.12345679012345674,135.67901234567896,0)" xlink:href="#ao"/><use transform="matrix(0.12345679012345674,0,0,0.12345679012345674,170.24691358024683,0)" xlink:href="#N"/><use transform="matrix(0.12345679012345674,0,0,0.12345679012345674,194.93827160493817,0)" xlink:href="#O"/><use transform="matrix(0.12345679012345674,0,0,0.12345679012345674,217.1604938271604,0)" xlink:href="#X"/><use transform="matrix(0.12345679012345674,0,0,0.12345679012345674,241.85185185185173,0)" xlink:href="#Q"/><use transform="matrix(0.12345679012345674,0,0,0.12345679012345674,256.5432098765431,0)" xlink:href="#ad"/><use transform="matrix(0.12345679012345674,0,0,0.12345679012345674,278.7654320987653,0)" xlink:href="#X"/><use transform="matrix(0.12345679012345674,0,0,0.12345679012345674,303.45679012345664,0)" xlink:href="#Q"/><use transform="matrix(0.12345679012345674,0,0,0.12345679012345674,318.148148148148,0)" xlink:href="#at"/><use transform="matrix(0.12345679012345674,0,0,0.12345679012345674,332.8395061728393,0)" xlink:href="#L"/><use transform="matrix(0.12345679012345674,0,0,0.12345679012345674,345.185185185185,0)" xlink:href="#ad"/><use transform="matrix(0.12345679012345674,0,0,0.12345679012345674,367.4074074074072,0)" xlink:href="#ae"/><use transform="matrix(0.12345679012345674,0,0,0.12345679012345674,392.09876543209856,0)" xlink:href="#af"/><use transform="matrix(0.12345679012345674,0,0,0.12345679012345674,401.8518518518516,0)" xlink:href="#ac"/></g><path fill="#333" d="M101-234c-31-9-42 10-38 44h38v23H63V0H32v-167H5v-23h27c-7-52 17-82 69-68v24" id="au"/><path fill="#333" d="M179-190L93 31C79 59 56 82 12 73V49c39 6 53-20 64-50L1-190h34L92-34l54-156h33" id="av"/><path fill="#333" d="M205 0l-28-72H64L36 0H1l101-248h38L239 0h-34zm-38-99l-47-123c-12 45-31 82-46 123h93" id="aw"/><g id="n"><use transform="matrix(0.12345679012345674,0,0,0.12345679012345674,0,0)" xlink:href="#aq"/><use transform="matrix(0.12345679012345674,0,0,0.12345679012345674,24.691358024691347,0)" xlink:href="#ae"/><use transform="matrix(0.12345679012345674,0,0,0.12345679012345674,49.382716049382694,0)" xlink:href="#P"/><use transform="matrix(0.12345679012345674,0,0,0.12345679012345674,61.728395061728364,0)" xlink:href="#af"/><use transform="matrix(0.12345679012345674,0,0,0.12345679012345674,71.48148148148144,0)" xlink:href="#au"/><use transform="matrix(0.12345679012345674,0,0,0.12345679012345674,83.82716049382711,0)" xlink:href="#av"/><use transform="matrix(0.12345679012345674,0,0,0.12345679012345674,106.04938271604932,0)" xlink:href="#aw"/><use transform="matrix(0.12345679012345674,0,0,0.12345679012345674,135.67901234567893,0)" xlink:href="#T"/><use transform="matrix(0.12345679012345674,0,0,0.12345679012345674,145.43209876543202,0)" xlink:href="#T"/><use transform="matrix(0.12345679012345674,0,0,0.12345679012345674,155.1851851851851,0)" xlink:href="#ao"/><use transform="matrix(0.12345679012345674,0,0,0.12345679012345674,189.753086419753,0)" xlink:href="#N"/><use transform="matrix(0.12345679012345674,0,0,0.12345679012345674,214.44444444444434,0)" xlink:href="#O"/><use transform="matrix(0.12345679012345674,0,0,0.12345679012345674,236.66666666666657,0)" xlink:href="#X"/><use transform="matrix(0.12345679012345674,0,0,0.12345679012345674,261.3580246913579,0)" xlink:href="#Q"/><use transform="matrix(0.12345679012345674,0,0,0.12345679012345674,276.04938271604925,0)" xlink:href="#ad"/><use transform="matrix(0.12345679012345674,0,0,0.12345679012345674,298.2716049382715,0)" xlink:href="#X"/><use transform="matrix(0.12345679012345674,0,0,0.12345679012345674,322.9629629629628,0)" xlink:href="#Q"/><use transform="matrix(0.12345679012345674,0,0,0.12345679012345674,337.65432098765416,0)" xlink:href="#O"/><use transform="matrix(0.12345679012345674,0,0,0.12345679012345674,359.8765432098764,0)" xlink:href="#L"/><use transform="matrix(0.12345679012345674,0,0,0.12345679012345674,372.22222222222206,0)" xlink:href="#ad"/><use transform="matrix(0.12345679012345674,0,0,0.12345679012345674,394.4444444444443,0)" xlink:href="#ae"/><use transform="matrix(0.12345679012345674,0,0,0.12345679012345674,419.1358024691356,0)" xlink:href="#af"/><use transform="matrix(0.12345679012345674,0,0,0.12345679012345674,428.8888888888887,0)" xlink:href="#ac"/></g><path fill="#333" d="M25-224v-37h50v37H25zM25 0v-190h50V0H25" id="ax"/><path fill="#333" d="M135-194c87-1 58 113 63 194h-50c-7-57 23-157-34-157-59 0-34 97-39 157H25l-1-190h47c2 12-1 28 3 38 12-26 28-41 61-42" id="ay"/><path fill="#333" d="M133-34C117-15 103 5 69 4 32 3 11-16 11-54c-1-60 55-63 116-61 1-26-3-47-28-47-18 1-26 9-28 27l-52-2c7-38 36-58 82-57s74 22 75 68l1 82c-1 14 12 18 25 15v27c-30 8-71 5-69-32zm-48 3c29 0 43-24 42-57-32 0-66-3-65 30 0 17 8 27 23 27" id="az"/><path fill="#333" d="M123 10C108 53 80 86 19 72V37c35 8 53-11 59-39L3-190h52l48 148c12-52 28-100 44-148h51" id="aA"/><g id="o"><use transform="matrix(0.13580246913580238,0,0,0.13580246913580238,0,0)" xlink:href="#G"/><use transform="matrix(0.13580246913580238,0,0,0.13580246913580238,29.74074074074072,0)" xlink:href="#ax"/><use transform="matrix(0.13580246913580238,0,0,0.13580246913580238,43.32098765432096,0)" xlink:href="#ay"/><use transform="matrix(0.13580246913580238,0,0,0.13580246913580238,73.06172839506168,0)" xlink:href="#az"/><use transform="matrix(0.13580246913580238,0,0,0.13580246913580238,100.22222222222216,0)" xlink:href="#J"/><use transform="matrix(0.13580246913580238,0,0,0.13580246913580238,119.2345679012345,0)" xlink:href="#aA"/><use transform="matrix(0.13580246913580238,0,0,0.13580246913580238,146.39506172839495,0)" xlink:href="#F"/><use transform="matrix(0.13580246913580238,0,0,0.13580246913580238,184.41975308641963,0)" xlink:href="#G"/><use transform="matrix(0.13580246913580238,0,0,0.13580246913580238,214.16049382716034,0)" xlink:href="#H"/><use transform="matrix(0.13580246913580238,0,0,0.13580246913580238,241.32098765432082,0)" xlink:href="#I"/><use transform="matrix(0.13580246913580238,0,0,0.13580246913580238,268.4814814814813,0)" xlink:href="#J"/><use transform="matrix(0.13580246913580238,0,0,0.13580246913580238,287.49382716049365,0)" xlink:href="#K"/><use transform="matrix(0.13580246913580238,0,0,0.13580246913580238,314.6543209876541,0)" xlink:href="#I"/></g><g id="p"><use transform="matrix(0.12345679012345674,0,0,0.12345679012345674,0,0)" xlink:href="#N"/><use transform="matrix(0.12345679012345674,0,0,0.12345679012345674,24.691358024691347,0)" xlink:href="#af"/><use transform="matrix(0.12345679012345674,0,0,0.12345679012345674,34.44444444444443,0)" xlink:href="#aq"/><use transform="matrix(0.12345679012345674,0,0,0.12345679012345674,59.135802469135776,0)" xlink:href="#M"/><use transform="matrix(0.12345679012345674,0,0,0.12345679012345674,83.82716049382712,0)" xlink:href="#Q"/><use transform="matrix(0.12345679012345674,0,0,0.12345679012345674,98.51851851851848,0)" xlink:href="#av"/><use transform="matrix(0.12345679012345674,0,0,0.12345679012345674,120.74074074074069,0)" xlink:href="#ao"/><use transform="matrix(0.12345679012345674,0,0,0.12345679012345674,155.30864197530857,0)" xlink:href="#N"/><use transform="matrix(0.12345679012345674,0,0,0.12345679012345674,179.99999999999991,0)" xlink:href="#O"/><use transform="matrix(0.12345679012345674,0,0,0.12345679012345674,202.22222222222211,0)" xlink:href="#X"/><use transform="matrix(0.12345679012345674,0,0,0.12345679012345674,226.91358024691345,0)" xlink:href="#Q"/><use transform="matrix(0.12345679012345674,0,0,0.12345679012345674,241.6049382716048,0)" xlink:href="#ad"/><use transform="matrix(0.12345679012345674,0,0,0.12345679012345674,263.827160493827,0)" xlink:href="#X"/><use transform="matrix(0.12345679012345674,0,0,0.12345679012345674,288.51851851851836,0)" xlink:href="#as"/><use transform="matrix(0.12345679012345674,0,0,0.12345679012345674,303.2098765432097,0)" xlink:href="#Y"/><use transform="matrix(0.12345679012345674,0,0,0.12345679012345674,332.8395061728393,0)" xlink:href="#V"/><use transform="matrix(0.12345679012345674,0,0,0.12345679012345674,357.53086419753066,0)" xlink:href="#N"/><use transform="matrix(0.12345679012345674,0,0,0.12345679012345674,382.222222222222,0)" xlink:href="#W"/><use transform="matrix(0.12345679012345674,0,0,0.12345679012345674,391.97530864197506,0)" xlink:href="#X"/><use transform="matrix(0.12345679012345674,0,0,0.12345679012345674,416.6666666666664,0)" xlink:href="#R"/><use transform="matrix(0.12345679012345674,0,0,0.12345679012345674,438.88888888888863,0)" xlink:href="#P"/><use transform="matrix(0.12345679012345674,0,0,0.12345679012345674,451.2345679012343,0)" xlink:href="#at"/></g><g id="q"><use transform="matrix(0.12345679012345674,0,0,0.12345679012345674,0,0)" xlink:href="#aa"/><use transform="matrix(0.12345679012345674,0,0,0.12345679012345674,31.975308641975296,0)" xlink:href="#ab"/><use transform="matrix(0.12345679012345674,0,0,0.12345679012345674,56.66666666666664,0)" xlink:href="#ac"/><use transform="matrix(0.12345679012345674,0,0,0.12345679012345674,81.358024691358,0)" xlink:href="#M"/><use transform="matrix(0.12345679012345674,0,0,0.12345679012345674,106.04938271604934,0)" xlink:href="#P"/><use transform="matrix(0.12345679012345674,0,0,0.12345679012345674,118.395061728395,0)" xlink:href="#X"/><use transform="matrix(0.12345679012345674,0,0,0.12345679012345674,143.08641975308635,0)" xlink:href="#L"/><use transform="matrix(0.12345679012345674,0,0,0.12345679012345674,155.43209876543202,0)" xlink:href="#ad"/><use transform="matrix(0.12345679012345674,0,0,0.12345679012345674,177.65432098765422,0)" xlink:href="#ae"/><use transform="matrix(0.12345679012345674,0,0,0.12345679012345674,202.34567901234556,0)" xlink:href="#af"/><use transform="matrix(0.12345679012345674,0,0,0.12345679012345674,212.09876543209865,0)" xlink:href="#ac"/></g><path fill="#333" d="M25 0v-261h50V0H25" id="aB"/><g id="r"><use transform="matrix(0.13580246913580238,0,0,0.13580246913580238,0,0)" xlink:href="#F"/><use transform="matrix(0.13580246913580238,0,0,0.13580246913580238,38.02469135802467,0)" xlink:href="#aj"/><use transform="matrix(0.13580246913580238,0,0,0.13580246913580238,65.18518518518515,0)" xlink:href="#ak"/><use transform="matrix(0.13580246913580238,0,0,0.13580246913580238,81.34567901234563,0)" xlink:href="#az"/><use transform="matrix(0.13580246913580238,0,0,0.13580246913580238,108.5061728395061,0)" xlink:href="#aB"/><use transform="matrix(0.13580246913580238,0,0,0.13580246913580238,122.08641975308636,0)" xlink:href="#F"/><use transform="matrix(0.13580246913580238,0,0,0.13580246913580238,160.11111111111103,0)" xlink:href="#G"/><use transform="matrix(0.13580246913580238,0,0,0.13580246913580238,189.85185185185173,0)" xlink:href="#H"/><use transform="matrix(0.13580246913580238,0,0,0.13580246913580238,217.0123456790122,0)" xlink:href="#I"/><use transform="matrix(0.13580246913580238,0,0,0.13580246913580238,244.17283950617272,0)" xlink:href="#J"/><use transform="matrix(0.13580246913580238,0,0,0.13580246913580238,263.18518518518505,0)" xlink:href="#K"/><use transform="matrix(0.13580246913580238,0,0,0.13580246913580238,290.3456790123455,0)" xlink:href="#I"/></g><g id="s"><use transform="matrix(0.12345679012345674,0,0,0.12345679012345674,0,0)" xlink:href="#ao"/><use transform="matrix(0.12345679012345674,0,0,0.12345679012345674,34.567901234567884,0)" xlink:href="#R"/><use transform="matrix(0.12345679012345674,0,0,0.12345679012345674,56.7901234567901,0)" xlink:href="#P"/><use transform="matrix(0.12345679012345674,0,0,0.12345679012345674,69.13580246913577,0)" xlink:href="#M"/><use transform="matrix(0.12345679012345674,0,0,0.12345679012345674,93.82716049382711,0)" xlink:href="#T"/><use transform="matrix(0.12345679012345674,0,0,0.12345679012345674,103.5802469135802,0)" xlink:href="#ao"/><use transform="matrix(0.12345679012345674,0,0,0.12345679012345674,138.1481481481481,0)" xlink:href="#N"/><use transform="matrix(0.12345679012345674,0,0,0.12345679012345674,162.83950617283944,0)" xlink:href="#O"/><use transform="matrix(0.12345679012345674,0,0,0.12345679012345674,185.06172839506166,0)" xlink:href="#X"/><use transform="matrix(0.12345679012345674,0,0,0.12345679012345674,209.753086419753,0)" xlink:href="#Q"/><use transform="matrix(0.12345679012345674,0,0,0.12345679012345674,224.44444444444434,0)" xlink:href="#ad"/><use transform="matrix(0.12345679012345674,0,0,0.12345679012345674,246.66666666666657,0)" xlink:href="#X"/><use transform="matrix(0.12345679012345674,0,0,0.12345679012345674,271.3580246913579,0)" xlink:href="#as"/><use transform="matrix(0.12345679012345674,0,0,0.12345679012345674,286.04938271604925,0)" xlink:href="#Y"/><use transform="matrix(0.12345679012345674,0,0,0.12345679012345674,315.67901234567887,0)" xlink:href="#V"/><use transform="matrix(0.12345679012345674,0,0,0.12345679012345674,340.3703703703702,0)" xlink:href="#N"/><use transform="matrix(0.12345679012345674,0,0,0.12345679012345674,365.06172839506155,0)" xlink:href="#W"/><use transform="matrix(0.12345679012345674,0,0,0.12345679012345674,374.8148148148146,0)" xlink:href="#X"/><use transform="matrix(0.12345679012345674,0,0,0.12345679012345674,399.50617283950595,0)" xlink:href="#R"/><use transform="matrix(0.12345679012345674,0,0,0.12345679012345674,421.7283950617282,0)" xlink:href="#P"/><use transform="matrix(0.12345679012345674,0,0,0.12345679012345674,434.07407407407385,0)" xlink:href="#at"/></g><path fill="#333" d="M186 0v-106H76V0H24v-248h52v99h110v-99h50V0h-50" id="aC"/><path fill="#333" d="M144 0l-44-69L55 0H2l70-98-66-92h53l41 62 40-62h54l-67 91 71 99h-54" id="aD"/><g id="t"><use transform="matrix(0.13580246913580238,0,0,0.13580246913580238,0,0)" xlink:href="#aC"/><use transform="matrix(0.13580246913580238,0,0,0.13580246913580238,35.172839506172814,0)" xlink:href="#I"/><use transform="matrix(0.13580246913580238,0,0,0.13580246913580238,62.333333333333286,0)" xlink:href="#aD"/><use transform="matrix(0.13580246913580238,0,0,0.13580246913580238,89.49382716049377,0)" xlink:href="#az"/><use transform="matrix(0.13580246913580238,0,0,0.13580246913580238,116.65432098765424,0)" xlink:href="#F"/><use transform="matrix(0.13580246913580238,0,0,0.13580246913580238,154.67901234567893,0)" xlink:href="#G"/><use transform="matrix(0.13580246913580238,0,0,0.13580246913580238,184.41975308641963,0)" xlink:href="#H"/><use transform="matrix(0.13580246913580238,0,0,0.13580246913580238,211.5802469135801,0)" xlink:href="#I"/><use transform="matrix(0.13580246913580238,0,0,0.13580246913580238,238.7407407407406,0)" xlink:href="#J"/><use transform="matrix(0.13580246913580238,0,0,0.13580246913580238,257.75308641975295,0)" xlink:href="#K"/><use transform="matrix(0.13580246913580238,0,0,0.13580246913580238,284.9135802469134,0)" xlink:href="#I"/></g><path fill="#333" d="M197 0v-115H63V0H30v-248h33v105h134v-105h34V0h-34" id="aE"/><path fill="#333" d="M141 0L90-78 38 0H4l68-98-65-92h35l48 74 47-74h35l-64 92 68 98h-35" id="aF"/><g id="u"><use transform="matrix(0.12345679012345674,0,0,0.12345679012345674,0,0)" xlink:href="#aE"/><use transform="matrix(0.12345679012345674,0,0,0.12345679012345674,31.975308641975296,0)" xlink:href="#X"/><use transform="matrix(0.12345679012345674,0,0,0.12345679012345674,56.66666666666664,0)" xlink:href="#aF"/><use transform="matrix(0.12345679012345674,0,0,0.12345679012345674,78.88888888888886,0)" xlink:href="#M"/><use transform="matrix(0.12345679012345674,0,0,0.12345679012345674,103.5802469135802,0)" xlink:href="#ao"/><use transform="matrix(0.12345679012345674,0,0,0.12345679012345674,138.1481481481481,0)" xlink:href="#N"/><use transform="matrix(0.12345679012345674,0,0,0.12345679012345674,162.83950617283944,0)" xlink:href="#O"/><use transform="matrix(0.12345679012345674,0,0,0.12345679012345674,185.06172839506166,0)" xlink:href="#X"/><use transform="matrix(0.12345679012345674,0,0,0.12345679012345674,209.753086419753,0)" xlink:href="#Q"/><use transform="matrix(0.12345679012345674,0,0,0.12345679012345674,224.44444444444434,0)" xlink:href="#ad"/><use transform="matrix(0.12345679012345674,0,0,0.12345679012345674,246.66666666666657,0)" xlink:href="#X"/><use transform="matrix(0.12345679012345674,0,0,0.12345679012345674,271.3580246913579,0)" xlink:href="#as"/><use transform="matrix(0.12345679012345674,0,0,0.12345679012345674,286.04938271604925,0)" xlink:href="#Y"/><use transform="matrix(0.12345679012345674,0,0,0.12345679012345674,315.67901234567887,0)" xlink:href="#V"/><use transform="matrix(0.12345679012345674,0,0,0.12345679012345674,340.3703703703702,0)" xlink:href="#N"/><use transform="matrix(0.12345679012345674,0,0,0.12345679012345674,365.06172839506155,0)" xlink:href="#W"/><use transform="matrix(0.12345679012345674,0,0,0.12345679012345674,374.8148148148146,0)" xlink:href="#X"/><use transform="matrix(0.12345679012345674,0,0,0.12345679012345674,399.50617283950595,0)" xlink:href="#R"/><use transform="matrix(0.12345679012345674,0,0,0.12345679012345674,421.7283950617282,0)" xlink:href="#P"/><use transform="matrix(0.12345679012345674,0,0,0.12345679012345674,434.07407407407385,0)" xlink:href="#at"/></g><path fill="#333" d="M151-256c18 14 23 31 33 44 11 0 14-21 4-28-5-6-16-14-34-21zM33-156c16-3 16-20 19-43h240c-7 16-13 30-19 39 17 3 21-31 46-31 10-1 10-10 3-14s-13-9-19-16l-13 13H52v-16h-4c6 23-42 55-15 68zm64-11c24 14 32 29 44 44 11 0 13-20 3-27-8-5-22-13-44-21zm-19 46c26 15 34 30 48 44 12 0 13-19 3-26-9-6-24-13-48-21zM34 54C105 37 159 9 187-51c20 51 58 78 103 97 9-9 21-14 37-14l1-3C262 16 221-5 193-53h117c12 0 13-9 3-12-10-6-17-13-23-20l-19 22h-80c10-21 2-87 14-108-6-4-20-4-29-9 9 11 4 101-4 117H33l5 10h130C137 9 107 23 33 51" id="aG"/><use transform="matrix(0.16049382716049365,0,0,0.16049382716049365,0,0)" xlink:href="#aG" id="v"/><path fill="#333" d="M17-33c5 4 13 38 20 21 32-16 65-24 113-50-22-1-47 14-65 16v-83h52c8 1 9-8 2-10-7-4-13-9-17-14l-15 15H85v-79h56c9 1 10-8 2-10-8-5-15-11-19-17l-17 18H18l5 9h46v79H21l5 9h43v88c-18 2-38 8-52 8zm288-191c-1-8 23-12 6-20-5-3-9-6-14-12l-11 12H177l-19-10c10 63 1 143 4 213 2 7 14-2 17-4v-189h109v185c2 7 15-1 17-4v-171zm-66 101c0-22-4-53 5-66l-26-8c3 2 5 27 5 74C223-10 180 15 97 53l2 2c85-26 140-62 140-178zm80 105c-4 32 7 58-30 53-21-3-27-1-27-15 0-33-7-82 7-101l-25-8c4 35 1 72 2 109 2 29 7 30 43 30 29 0 39 2 46-15-15-5-9-35-16-53" id="aH"/><use transform="matrix(0.16049382716049365,0,0,0.16049382716049365,0,0)" xlink:href="#aH" id="w"/><path fill="#333" d="M15-132c30-40 55-93 66-152l35 9-26 82v110c37-29 69-68 88-115h-72v-32h83v-52h36v52h92v32h-87c1 26 8 50 15 72 17-17 35-37 48-59l25 22c-17 24-42 49-62 70 16 39 38 76 67 103l-29 26c-44-53-78-122-92-205-7 14-15 27-23 39v117l64-20 4 32c-42 16-94 28-137 41L100 5l45-9 1-83c-14 15-28 27-43 39L90-71V43H54v-168c-7 12-12 19-20 30" id="aI"/><use transform="matrix(0.16049382716049382,0,0,0.16049382716049382,0,0)" xlink:href="#aI" id="x"/><path fill="#333" d="M156-141c1-7 19-14 4-21-4-3-9-6-14-12-6 12-24 12-43 11v-33h63c9 1 9-7 2-11-8-4-14-9-18-15l-15 16h-32c1-16-3-39 6-46-3-7-20-5-25-9 3 9 2 38 2 55H19l6 10h61v33c-23 1-45 0-57-10 8 27 2 65 4 98 3 5 20 1 17-11h29C61-34 50-29 19 18 50-7 68-25 86-61c2 37-4 82 2 115 5-3 14-2 15-8V-65c15 15 18 18 27 41 2 5 6 8 10 8 6-1 9-6 8-15-5-17-25-27-45-39v-16h37c-2 11 7 7 13 4 8-13 1-40 3-59zM50-96v-57h36v57H50zm53-57h37v57h-37v-57zm124-66c4-13 11-23 22-28-6-6-17-8-25-15-16 55-24 74-56 109l1 4c4-3 9-6 13-9l3 150c4-2 13-2 14-7v-137h101c2 46-4 99 2 141 5-2 13-2 14-7v-123c-1-8 23-13 6-21-5-3-9-6-14-12l-11 12h-47c16-9 29-30 49-40s-13-15-15-28c-8 15-35 11-57 11zm-37 54c13-12 23-29 32-45h51c-8 17-17 33-28 48-18-1-41 3-55-3zm66 95c0-17-2-37 5-46-5-5-18-4-26-8 19 95-19 158-89 177l2 2c72-21 104-44 108-125zm8 61l-3 3c22 17 39 30 46 43 9 16 21 17 21-4-10-21-24-21-64-42" id="aJ"/><use transform="matrix(0.16049382716049382,0,0,0.16049382716049382,0,0)" xlink:href="#aJ" id="y"/><g id="z"><use transform="matrix(0.21604938271604904,0,0,0.21604938271604904,0,0)" xlink:href="#ao"/><use transform="matrix(0.21604938271604904,0,0,0.21604938271604904,60.49382716049373,0)" xlink:href="#N"/><use transform="matrix(0.21604938271604904,0,0,0.21604938271604904,103.70370370370354,0)" xlink:href="#O"/><use transform="matrix(0.21604938271604904,0,0,0.21604938271604904,142.59259259259238,0)" xlink:href="#X"/><use transform="matrix(0.21604938271604904,0,0,0.21604938271604904,185.8024691358022,0)" xlink:href="#Q"/><use transform="matrix(0.21604938271604904,0,0,0.21604938271604904,211.51234567901204,0)" xlink:href="#ad"/><use transform="matrix(0.21604938271604904,0,0,0.21604938271604904,250.40123456790087,0)" xlink:href="#X"/><use transform="matrix(0.21604938271604904,0,0,0.21604938271604904,293.6111111111107,0)" xlink:href="#Q"/><use transform="matrix(0.21604938271604904,0,0,0.21604938271604904,319.3209876543205,0)" xlink:href="#as"/></g><path fill="#333" d="M148-23c-2-26-16-46-37-67 8-23 17-57 24-101 6-2 19-7 7-13-4-4-9-9-13-17l-14 15H29l5 10h83c-4 42-11 70-17 94-16-16-38-37-64-60l-2 3c25 27 45 52 60 74C76-36 60-16 17 21l1 3c42-21 67-52 86-95 11 15 27 59 37 59 5 0 7-4 7-11zm154-201c-1-9 24-12 7-20-5-3-10-6-15-12l-11 12c-41-3-95 8-120-10 14 61-3 151 7 217 4-2 12-3 14-7v-190h102l2 192c4-2 12-3 14-7v-175zm-63 100c1-21-3-48 5-60l-26-8c5 26 5 41 5 68 1 100-45 145-113 175l2 3c89-30 123-71 127-178zm81 106c-4 33 6 54-32 49-53 7-22-57-30-94-2-8 16-13 1-16-6-1-12-3-19-6 4 32 1 65 2 99 1 32 8 33 46 33 33 0 42 1 50-18-12-6-16-23-15-47h-3" id="aK"/><use transform="matrix(0.21604938271604904,0,0,0.21604938271604904,0,0)" xlink:href="#aK" id="A"/><path fill="#333" d="M21-155c30-17 54-42 70-73 10 5 26 8 14 20h49l13 12c-13 27-29 51-50 72h108c-25-24-43-53-57-88l20-8c9 25 22 47 38 66 10-11 24-23 31-36h-49v-19h64l12 13v-38H52v41H29v-60h126v-27h24v27h128v61h-23c-13 20-27 38-44 53 21 20 47 36 78 46l-13 19c-32-12-58-28-80-50v19H110v-13C87-97 59-79 29-67L17-86c21-8 42-19 58-31-7-8-15-21-24-27l13-12 25 28 18-16-25-23 11-13 25 23c9-12 16-23 21-33H92c-16 21-36 39-58 53zm97 170c14 1 42 11 41-6v-64H59v-20h221v20h-98c-4 42 19 109-43 94-5 0-11 0-16-1zm-92 5c28-13 58-39 76-63l18 14C98-3 69 23 40 39zm206-63c20 23 49 46 77 61l-15 19c-28-20-57-41-79-67" id="aL"/><use transform="matrix(0.21604938271604904,0,0,0.21604938271604904,0,0)" xlink:href="#aL" id="B"/><path fill="#333" d="M188-172c33-25 62-55 85-90l19 12c-22 29-45 54-71 78h95v19H197c-24 18-50 35-77 50h113c-14-13-27-22-44-31l14-15c17 7 34 20 47 31l-14 15h43V40h-22V23H112v19H90V-88L32-63 21-84c50-15 99-41 140-69H21v-19h120v-47H59v-20h82v-40h23v40h71v20h-71v47h24zM112 4h145v-37H112V4zm0-56h145v-32H112v32" id="aM"/><use transform="matrix(0.21604938271604904,0,0,0.21604938271604904,0,0)" xlink:href="#aM" id="C"/><path fill="#333" d="M233-37c22 29 48 46 88 58l-10 21c-42-13-74-40-97-72-19 37-50 58-94 73l-10-20c40-13 68-27 83-60h-73v-20h81c2-9 3-19 4-29h-63v-112h151v112h-65c-1 10-3 20-5 29h93v20h-83zM85-192c8 34 22 70 41 92l-12 22c-14-22-24-48-32-75l2 195H61l2-179c-7 36-16 61-31 91L18-64c19-36 30-78 38-128H21v-20h40v-67h23v67h41v20H85zm85-15v-24h-48v-20h48v-28h23v28h48v-28h23v28h51v20h-51v24h-23v-24h-48v24h-23zm-5 103h106v-31H165v31zm0-48h106v-28H165v28" id="aN"/><use transform="matrix(0.21604938271604904,0,0,0.21604938271604904,0,0)" xlink:href="#aN" id="D"/><path fill="#333" d="M281 11c14-9 12-31 16-50l21 11c-6 30-12 75-52 60-53-45-66-127-76-224H29v-20h160c-1-21-2-43-2-67h23l1 67h98v20h-96c5 80 20 152 59 198 3 3 6 5 9 5zM119-7l71-14 3 21L32 28 28 6 95-4v-110H36v-20h143v20h-60V-7zm150-214c-12-14-26-27-41-38l14-15c16 10 30 22 43 36" id="aO"/><g id="E"><use transform="matrix(0.21604938271604904,0,0,0.21604938271604904,0,0)" xlink:href="#aO"/><use transform="matrix(0.21604938271604904,0,0,0.21604938271604904,73.02469135802457,0)" xlink:href="#at"/></g></defs></g></svg>