<svg xmlns="http://www.w3.org/2000/svg" xmlns:xlink="http://www.w3.org/1999/xlink" xmlns:lucid="lucid" width="3240" height="1339"><g transform="translate(-420 240)" lucid:page-tab-id="0_0"><path d="M3400 786c0-3.3 2.7-6 6-6h228c3.3 0 6 2.7 6 6v188.18c0 3.3-2.7 6-6 6h-228c-3.3 0-6-2.7-6-6z" fill="none"/><use xlink:href="#a" transform="matrix(1,0,0,1,3400,780) translate(22.777777777778027 186.66666666666623)"/><path d="M1965.2 106c0-3.3 2.7-6 6-6h448c3.3 0 6 2.7 6 6v328c0 3.3-2.7 6-6 6h-448c-3.3 0-6-2.7-6-6z" stroke="#5e5e5e" stroke-width="3" fill="#fff"/><path d="M1965.2 223.2h460" stroke="#5e5e5e" stroke-width="3" fill="none"/><use xlink:href="#b" transform="matrix(1,0,0,1,1973.1999999999998,108) translate(77.01944444444462 36.13333333333335)"/><use xlink:href="#c" transform="matrix(1,0,0,1,1973.1999999999998,108) translate(110.58148148148162 89.73333333333329)"/><use xlink:href="#d" transform="matrix(1,0,0,1,1977.1999999999998,231.1999999999999) translate(0 109.88888888888889)"/><use xlink:href="#e" transform="matrix(1,0,0,1,1977.1999999999998,231.1999999999999) translate(38.271604938271594 109.88888888888889)"/><path d="M1320 786c0-3.3 2.7-6 6-6h588c3.3 0 6 2.7 6 6v287c0 3.3-2.7 6-6 6h-588c-3.3 0-6-2.7-6-6z" stroke="#5e5e5e" stroke-width="3" fill="#fff"/><path d="M1320 865.33h600m-600 106.84h600" stroke="#5e5e5e" stroke-width="3" fill="none"/><use xlink:href="#f" transform="matrix(1,0,0,1,1328,788) translate(97.96296296296319 46.55555555555554)"/><use xlink:href="#g" transform="matrix(1,0,0,1,1332,980.1666666666665) translate(0 57.05555555555554)"/><use xlink:href="#h" transform="matrix(1,0,0,1,1332,980.1666666666665) translate(49.75308641975303 57.05555555555554)"/><path d="M1631 746.38l-.67 1.26-1.33 2.84-1.18 2.8-1.03 2.77-.9 2.75-.77 2.75-.65 2.74-.53 2.76-.4 2.8-.3 2.82-.2 3-5.98-.37.2-3.12.32-3.08.44-3.04.57-3 .7-3 .85-3 .97-3 1.12-3 1.27-3.03 1.46-3.06.7-1.37zm70.18-60.16l-11.8 6.48-9.84 5.94-8.1 5.37-6.76 4.93-5.73 4.53-4.9 4.23-4.22 3.95-.17.17-4.3-4.2.27-.26 4.4-4.13 5.1-4.4 5.92-4.7 6.98-5.05 8.3-5.5 10.04-6.08 11.93-6.54zm87.84-36.14l-23.1 8-28.6 11.26-7.57 3.37-2.43-5.48 7.68-3.4 28.83-11.38 23.23-8.03zm51.68-16.9l-21.58 6.73-1.8-5.72 23.38-7.28zm221.7-69.97l-11.08 4.38-49.67 15.47-1.8-5.73 49.48-15.4 10.88-4.3zm85.9-43.1l-1.13.82-8.3 5.5-10.04 6.08-12.38 6.8-15.66 7.75-8.84 3.92-2.44-5.48 8.72-3.88 15.44-7.65 12.15-6.67 9.83-5.94 8.1-5.37 1.02-.76zm43.24-47.82l-1.3 2.75-1.63 3.12-1.83 3.18-2.06 3.26-2.32 3.33-2.63 3.46-2.96 3.58-3.38 3.74-.47.48-4.3-4.2.4-.4 3.2-3.55 2.8-3.4 2.48-3.25 2.18-3.14 1.94-3.04 1.7-2.96 1.53-2.9 1.24-2.64z" fill="#5e5e5e"/><path d="M1623.06 775.48l-.06 3.02h-6l.07-3.14z" fill="#5e5e5e"/><path d="M2201.85 470.98l-24.88-5.37 17-18.34z" fill="#fff"/><path d="M2206.36 475.02l-35.16-7.6 24-25.92zm-23.6-11.24l14.58 3.16-4.63-13.92z" fill="#5e5e5e"/><use xlink:href="#i" transform="matrix(1,0,0,1,1840.69802502864,569.2757867187668) translate(0 53.33333333333326)"/><use xlink:href="#j" transform="matrix(1,0,0,1,1840.69802502864,569.2757867187668) translate(66.66666666666657 53.33333333333326)"/><path d="M2020 786c0-3.3 2.7-6 6-6h588c3.3 0 6 2.7 6 6v287c0 3.3-2.7 6-6 6h-588c-3.3 0-6-2.7-6-6z" stroke="#5e5e5e" stroke-width="3" fill="#fff"/><path d="M2020 865.33h600m-600 106.84h600" stroke="#5e5e5e" stroke-width="3" fill="none"/><use xlink:href="#k" transform="matrix(1,0,0,1,2028,788) translate(97.96296296296319 46.55555555555554)"/><use xlink:href="#g" transform="matrix(1,0,0,1,2032,980.1666666666665) translate(0 57.05555555555554)"/><use xlink:href="#h" transform="matrix(1,0,0,1,2032,980.1666666666665) translate(49.75308641975303 57.05555555555554)"/><path d="M2319.94 775.5l-.28-13.63-.87-13.83m-3.28-27.3l-.4-2.7-2.58-13.5-3.12-13.3-3.75-13.42-3.36-10.36m-9.75-25.7l-3.98-9.42-10.05-21.3-9.7-18.83m-12.62-24.42l-25.2-48.86m-12.6-24.42l-7.52-14.58-4.3-10.22" stroke="#5e5e5e" stroke-width="6" fill="none"/><path d="M2323 778.5h-6l-.06-3.02 6-.12z" fill="#5e5e5e"/><path d="M2197.4 446.97l19.86 15.2-23.6 9.5z" stroke="#5e5e5e" stroke-width="6" fill="#fff"/><path d="M2720 786c0-3.3 2.7-6 6-6h588c3.3 0 6 2.7 6 6v287c0 3.3-2.7 6-6 6h-588c-3.3 0-6-2.7-6-6z" stroke="#5e5e5e" stroke-width="3" fill="#fff"/><path d="M2720 865.33h600m-600 106.84h600" stroke="#5e5e5e" stroke-width="3" fill="none"/><use xlink:href="#l" transform="matrix(1,0,0,1,2728,788) translate(102.9382716049385 46.55555555555554)"/><use xlink:href="#g" transform="matrix(1,0,0,1,2732,980.1666666666665) translate(0 57.05555555555554)"/><use xlink:href="#h" transform="matrix(1,0,0,1,2732,980.1666666666665) translate(49.75308641975303 57.05555555555554)"/><path d="M3017.85 776.4l-20.77-20.44m-21.18-20l-20.77-18.78-23.3-19.34m-22.97-17.9l-10.67-8.14-26.73-18.65-10.35-6.6m-24.8-15.27l-16.73-9.7-25.93-13.6-8.74-4.13m-26.5-12.08l-18.87-7.96-29.6-11.05-5.9-1.92m-27.7-9.02l-38.72-10.83-17.6-4.13m-28.36-6.65l-9.16-2.15-47.85-9.94m-28.53-5.9l-57.06-11.85m-28.53-5.93l-57.05-11.84m-28.52-5.97l-51.7-14.48-4.36-1.42m-27.7-9.05l-14.87-4.85-12.64-4.7" stroke="#5e5e5e" stroke-width="6" fill="none"/><path d="M3024.23 778.46l-.04.04h-8.48l-.03-.03 4.2-4.28z" fill="#5e5e5e"/><path d="M2200.72 443.55l24.6-4.43-8.86 23.86z" stroke="#5e5e5e" stroke-width="6" fill="#fff"/><path d="M440 31c0-3.3 2.7-6 6-6h648c3.3 0 6 2.7 6 6v478c0 3.3-2.7 6-6 6H446c-3.3 0-6-2.7-6-6z" stroke="#5e5e5e" stroke-width="3" fill="#fff"/><path d="M440 110.33h660M440 243.17h660" stroke="#5e5e5e" stroke-width="3" fill="none"/><use xlink:href="#m" transform="matrix(1,0,0,1,448,33) translate(222.5740740740742 46.55555555555554)"/><use xlink:href="#n" transform="matrix(1,0,0,1,452,118.33333333333326) translate(0 70.05555555555554)"/><use xlink:href="#o" transform="matrix(1,0,0,1,452,118.33333333333326) translate(35.14814814814811 70.05555555555554)"/><use xlink:href="#g" transform="matrix(1,0,0,1,452,251.16666666666652) translate(0 70.22222222222229)"/><use xlink:href="#p" transform="matrix(1,0,0,1,452,251.16666666666652) translate(49.75308641975303 70.22222222222229)"/><use xlink:href="#q" transform="matrix(1,0,0,1,452,251.16666666666652) translate(0 139.55555555555554)"/><use xlink:href="#g" transform="matrix(1,0,0,1,452,251.16666666666652) translate(0 208.8888888888888)"/><use xlink:href="#r" transform="matrix(1,0,0,1,452,251.16666666666652) translate(49.75308641975303 208.8888888888888)"/><path d="M1958.25 273h-31.62v-6h31.62zm-63.24 0h-63.24v-6H1895zm-94.86 0h-63.24v-6h63.24zm-94.86 0h-63.24v-6h63.24zm-237.3 0h-15.66v-6h15.65zm-47.28 0h-63.24v-6h63.24zm-94.86 0h-63.24v-6h63.24zm-94.86 0h-63.24v-6h63.24zm-94.86 0h-31.62v-6h31.62zm474.3 0h-13.2v-6h13.2z" fill="#5e5e5e"/><path d="M1963.7 270l-21.58 12.76-3.06-5.16 12.85-7.6-12.84-7.6 3.06-5.16zM1104.58 273h-3.08v-6h3.08z" fill="#5e5e5e"/><g><use xlink:href="#s" transform="matrix(1,0,0,1,1467.9703703703703,230.00000000000006) translate(0 53.33333333333326)"/><use xlink:href="#t" transform="matrix(1,0,0,1,1467.9703703703703,230.00000000000006) translate(62.5925925925925 53.33333333333326)"/></g><path d="M1180-214c0-3.3 2.7-6 6-6h1368c3.3 0 6 2.7 6 6V50.67c0 3.3-2.7 6-6 6H1186c-3.3 0-6-2.7-6-6z" stroke="#000" stroke-opacity="0" stroke-width="3" fill="#fff" fill-opacity="0"/><g><use xlink:href="#u" transform="matrix(1,0,0,1,1185,-215) translate(35.04427083333326 173.390625)"/><use xlink:href="#v" transform="matrix(1,0,0,1,1185,-215) translate(755.1614583333335 173.390625)"/><use xlink:href="#w" transform="matrix(1,0,0,1,1185,-215) translate(880.3567708333335 173.390625)"/><use xlink:href="#x" transform="matrix(1,0,0,1,1185,-215) translate(1005.5520833333335 173.390625)"/><use xlink:href="#y" transform="matrix(1,0,0,1,1185,-215) translate(1130.7473958333335 173.390625)"/></g><defs><path fill="#333" d="M33 0v-38h34V0H33" id="z"/><g id="a"><use transform="matrix(0.6481481481481466,0,0,0.6481481481481466,0,0)" xlink:href="#z"/><use transform="matrix(0.6481481481481466,0,0,0.6481481481481466,64.81481481481465,0)" xlink:href="#z"/><use transform="matrix(0.6481481481481466,0,0,0.6481481481481466,129.6296296296293,0)" xlink:href="#z"/></g><path d="M15-91v-56l181-69v40L49-119l147 57v40" id="A"/><path d="M25-224v-37h50v37H25zM25 0v-190h50V0H25" id="B"/><path d="M135-194c87-1 58 113 63 194h-50c-7-57 23-157-34-157-59 0-34 97-39 157H25l-1-190h47c2 12-1 28 3 38 12-26 28-41 61-42" id="C"/><path d="M115-3C79 11 28 4 28-45v-112H4v-33h27l15-45h31v45h36v33H77v99c-1 23 16 31 38 25v30" id="D"/><path d="M185-48c-13 30-37 53-82 52C43 2 14-33 14-96s30-98 90-98c62 0 83 45 84 108H66c0 31 8 55 39 56 18 0 30-7 34-22zm-45-69c5-46-57-63-70-21-2 6-4 13-4 21h74" id="E"/><path d="M135-150c-39-12-60 13-60 57V0H25l-1-190h47c2 13-1 29 3 40 6-28 27-53 61-41v41" id="F"/><path d="M121-226c-27-7-43 5-38 36h38v33H83V0H34v-157H6v-33h28c-9-59 32-81 87-68v32" id="G"/><path d="M133-34C117-15 103 5 69 4 32 3 11-16 11-54c-1-60 55-63 116-61 1-26-3-47-28-47-18 1-26 9-28 27l-52-2c7-38 36-58 82-57s74 22 75 68l1 82c-1 14 12 18 25 15v27c-30 8-71 5-69-32zm-48 3c29 0 43-24 42-57-32 0-66-3-65 30 0 17 8 27 23 27" id="H"/><path d="M190-63c-7 42-38 67-86 67-59 0-84-38-90-98-12-110 154-137 174-36l-49 2c-2-19-15-32-35-32-30 0-35 28-38 64-6 74 65 87 74 30" id="I"/><path d="M15-22v-40l146-57-146-57v-40l181 69v56" id="J"/><g id="b"><use transform="matrix(0.12407407407407395,0,0,0.12407407407407395,0,0)" xlink:href="#A"/><use transform="matrix(0.12407407407407395,0,0,0.12407407407407395,26.05555555555553,0)" xlink:href="#A"/><use transform="matrix(0.12407407407407395,0,0,0.12407407407407395,52.11111111111106,0)" xlink:href="#B"/><use transform="matrix(0.12407407407407395,0,0,0.12407407407407395,64.51851851851845,0)" xlink:href="#C"/><use transform="matrix(0.12407407407407395,0,0,0.12407407407407395,91.69074074074064,0)" xlink:href="#D"/><use transform="matrix(0.12407407407407395,0,0,0.12407407407407395,106.45555555555543,0)" xlink:href="#E"/><use transform="matrix(0.12407407407407395,0,0,0.12407407407407395,131.27037037037022,0)" xlink:href="#F"/><use transform="matrix(0.12407407407407395,0,0,0.12407407407407395,148.64074074074057,0)" xlink:href="#G"/><use transform="matrix(0.12407407407407395,0,0,0.12407407407407395,163.40555555555537,0)" xlink:href="#H"/><use transform="matrix(0.12407407407407395,0,0,0.12407407407407395,188.22037037037015,0)" xlink:href="#I"/><use transform="matrix(0.12407407407407395,0,0,0.12407407407407395,213.03518518518493,0)" xlink:href="#E"/><use transform="matrix(0.12407407407407395,0,0,0.12407407407407395,237.8499999999997,0)" xlink:href="#J"/><use transform="matrix(0.12407407407407395,0,0,0.12407407407407395,263.9055555555552,0)" xlink:href="#J"/></g><path d="M24 0v-248h52V0H24" id="K"/><path d="M140-251c80 0 125 45 125 126S219 4 139 4C58 4 15-44 15-125s44-126 125-126zm-1 214c52 0 73-35 73-88 0-50-21-86-72-86-52 0-73 35-73 86s22 88 72 88" id="L"/><path d="M135-194c53 0 70 44 70 98 0 56-19 98-73 100-31 1-45-17-59-34 3 33 2 69 2 105H25l-1-265h48c2 10 0 23 3 31 11-24 29-35 60-35zM114-30c33 0 39-31 40-66 0-38-9-64-40-64-56 0-55 130 0 130" id="M"/><path d="M110-194c64 0 96 36 96 99 0 64-35 99-97 99-61 0-95-36-95-99 0-62 34-99 96-99zm-1 164c35 0 45-28 45-65 0-40-10-65-43-65-34 0-45 26-45 65 0 36 10 65 43 65" id="N"/><g id="c"><use transform="matrix(0.12407407407407395,0,0,0.12407407407407395,0,0)" xlink:href="#K"/><use transform="matrix(0.12407407407407395,0,0,0.12407407407407395,12.407407407407394,0)" xlink:href="#L"/><use transform="matrix(0.12407407407407395,0,0,0.12407407407407395,47.148148148148096,0)" xlink:href="#M"/><use transform="matrix(0.12407407407407395,0,0,0.12407407407407395,74.32037037037028,0)" xlink:href="#E"/><use transform="matrix(0.12407407407407395,0,0,0.12407407407407395,99.13518518518507,0)" xlink:href="#F"/><use transform="matrix(0.12407407407407395,0,0,0.12407407407407395,116.50555555555542,0)" xlink:href="#H"/><use transform="matrix(0.12407407407407395,0,0,0.12407407407407395,141.3203703703702,0)" xlink:href="#D"/><use transform="matrix(0.12407407407407395,0,0,0.12407407407407395,156.085185185185,0)" xlink:href="#B"/><use transform="matrix(0.12407407407407395,0,0,0.12407407407407395,168.4925925925924,0)" xlink:href="#N"/><use transform="matrix(0.12407407407407395,0,0,0.12407407407407395,195.66481481481458,0)" xlink:href="#C"/></g><path fill="#333" d="M118-107v75H92v-75H18v-26h74v-75h26v75h74v26h-74" id="O"/><use transform="matrix(0.12345679012345674,0,0,0.12345679012345674,0,0)" xlink:href="#O" id="d"/><path fill="#333" d="M212-179c-10-28-35-45-73-45-59 0-87 40-87 99 0 60 29 101 89 101 43 0 62-24 78-52l27 14C228-24 195 4 139 4 59 4 22-46 18-125c-6-104 99-153 187-111 19 9 31 26 39 46" id="P"/><path fill="#333" d="M141-36C126-15 110 5 73 4 37 3 15-17 15-53c-1-64 63-63 125-63 3-35-9-54-41-54-24 1-41 7-42 31l-33-3c5-37 33-52 76-52 45 0 72 20 72 64v82c-1 20 7 32 28 27v20c-31 9-61-2-59-35zM48-53c0 20 12 33 32 33 41-3 63-29 60-74-43 2-92-5-92 41" id="Q"/><path fill="#333" d="M24 0v-261h32V0H24" id="R"/><path fill="#333" d="M96-169c-40 0-48 33-48 73s9 75 48 75c24 0 41-14 43-38l32 2c-6 37-31 61-74 61-59 0-76-41-82-99-10-93 101-131 147-64 4 7 5 14 7 22l-32 3c-4-21-16-35-41-35" id="S"/><path fill="#333" d="M84 4C-5 8 30-112 23-190h32v120c0 31 7 50 39 49 72-2 45-101 50-169h31l1 190h-30c-1-10 1-25-2-33-11 22-28 36-60 37" id="T"/><path fill="#333" d="M59-47c-2 24 18 29 38 22v24C64 9 27 4 27-40v-127H5v-23h24l9-43h21v43h35v23H59v120" id="U"/><path fill="#333" d="M100-194c63 0 86 42 84 106H49c0 40 14 67 53 68 26 1 43-12 49-29l28 8c-11 28-37 45-77 45C44 4 14-33 15-96c1-61 26-98 85-98zm52 81c6-60-76-77-97-28-3 7-6 17-6 28h103" id="V"/><path fill="#333" d="M87 75C49 33 22-17 22-94c0-76 28-126 65-167h31c-38 41-64 92-64 168S80 34 118 75H87" id="W"/><path fill="#333" d="M24-231v-30h32v30H24zM24 0v-190h32V0H24" id="X"/><path fill="#333" d="M117-194c89-4 53 116 60 194h-32v-121c0-31-8-49-39-48C34-167 62-67 57 0H25l-1-190h30c1 10-1 24 2 32 11-22 29-35 61-36" id="Y"/><path fill="#333" d="M68-38c1 34 0 65-14 84H32c9-13 17-26 17-46H33v-38h35" id="Z"/><path fill="#333" d="M33-261c38 41 65 92 65 168S71 34 33 75H2C39 34 66-17 66-93S39-220 2-261h31" id="aa"/><path fill="#333" d="M33-154v-36h34v36H33zM33 0v-36h34V0H33" id="ab"/><g id="e"><use transform="matrix(0.12345679012345674,0,0,0.12345679012345674,0,0)" xlink:href="#P"/><use transform="matrix(0.12345679012345674,0,0,0.12345679012345674,31.975308641975296,0)" xlink:href="#Q"/><use transform="matrix(0.12345679012345674,0,0,0.12345679012345674,56.66666666666664,0)" xlink:href="#R"/><use transform="matrix(0.12345679012345674,0,0,0.12345679012345674,66.41975308641972,0)" xlink:href="#S"/><use transform="matrix(0.12345679012345674,0,0,0.12345679012345674,88.64197530864193,0)" xlink:href="#T"/><use transform="matrix(0.12345679012345674,0,0,0.12345679012345674,113.33333333333329,0)" xlink:href="#R"/><use transform="matrix(0.12345679012345674,0,0,0.12345679012345674,123.08641975308637,0)" xlink:href="#Q"/><use transform="matrix(0.12345679012345674,0,0,0.12345679012345674,147.77777777777771,0)" xlink:href="#U"/><use transform="matrix(0.12345679012345674,0,0,0.12345679012345674,160.12345679012338,0)" xlink:href="#V"/><use transform="matrix(0.12345679012345674,0,0,0.12345679012345674,184.81481481481472,0)" xlink:href="#W"/><use transform="matrix(0.12345679012345674,0,0,0.12345679012345674,199.50617283950606,0)" xlink:href="#X"/><use transform="matrix(0.12345679012345674,0,0,0.12345679012345674,209.25925925925915,0)" xlink:href="#Y"/><use transform="matrix(0.12345679012345674,0,0,0.12345679012345674,233.9506172839505,0)" xlink:href="#U"/><use transform="matrix(0.12345679012345674,0,0,0.12345679012345674,246.29629629629616,0)" xlink:href="#Z"/><use transform="matrix(0.12345679012345674,0,0,0.12345679012345674,258.64197530864186,0)" xlink:href="#X"/><use transform="matrix(0.12345679012345674,0,0,0.12345679012345674,268.3950617283949,0)" xlink:href="#Y"/><use transform="matrix(0.12345679012345674,0,0,0.12345679012345674,293.08641975308626,0)" xlink:href="#U"/><use transform="matrix(0.12345679012345674,0,0,0.12345679012345674,305.43209876543193,0)" xlink:href="#aa"/><use transform="matrix(0.12345679012345674,0,0,0.12345679012345674,320.12345679012327,0)" xlink:href="#ab"/><use transform="matrix(0.12345679012345674,0,0,0.12345679012345674,332.46913580246894,0)" xlink:href="#X"/><use transform="matrix(0.12345679012345674,0,0,0.12345679012345674,342.222222222222,0)" xlink:href="#Y"/><use transform="matrix(0.12345679012345674,0,0,0.12345679012345674,366.91358024691334,0)" xlink:href="#U"/></g><path fill="#333" d="M140-251c81 0 123 46 123 126C263-46 219 4 140 4 59 4 17-45 17-125s42-126 123-126zm0 227c63 0 89-41 89-101s-29-99-89-99c-61 0-89 39-89 99S79-25 140-24" id="ac"/><path fill="#333" d="M115-194c55 1 70 41 70 98S169 2 115 4C84 4 66-9 55-30l1 105H24l-1-265h31l2 30c10-21 28-34 59-34zm-8 174c40 0 45-34 45-75s-6-73-45-74c-42 0-51 32-51 76 0 43 10 73 51 73" id="ad"/><path fill="#333" d="M114-163C36-179 61-72 57 0H25l-1-190h30c1 12-1 29 2 39 6-27 23-49 58-41v29" id="ae"/><path fill="#333" d="M100-194c62-1 85 37 85 99 1 63-27 99-86 99S16-35 15-95c0-66 28-99 85-99zM99-20c44 1 53-31 53-75 0-43-8-75-51-75s-53 32-53 75 10 74 51 75" id="af"/><path fill="#333" d="M-5 72V49h209v23H-5" id="ag"/><path fill="#333" d="M205 0l-28-72H64L36 0H1l101-248h38L239 0h-34zm-38-99l-47-123c-12 45-31 82-46 123h93" id="ah"/><path fill="#333" d="M85-194c31 0 48 13 60 33l-1-100h32l1 261h-30c-2-10 0-23-3-31C134-8 116 4 85 4 32 4 16-35 15-94c0-66 23-100 70-100zm9 24c-40 0-46 34-46 75 0 40 6 74 45 74 42 0 51-32 51-76 0-42-9-74-50-73" id="ai"/><g id="f"><use transform="matrix(0.16049382716049365,0,0,0.16049382716049365,0,0)" xlink:href="#ac"/><use transform="matrix(0.16049382716049365,0,0,0.16049382716049365,44.93827160493822,0)" xlink:href="#ad"/><use transform="matrix(0.16049382716049365,0,0,0.16049382716049365,77.03703703703695,0)" xlink:href="#V"/><use transform="matrix(0.16049382716049365,0,0,0.16049382716049365,109.13580246913568,0)" xlink:href="#ae"/><use transform="matrix(0.16049382716049365,0,0,0.16049382716049365,128.2345679012344,0)" xlink:href="#Q"/><use transform="matrix(0.16049382716049365,0,0,0.16049382716049365,160.33333333333314,0)" xlink:href="#U"/><use transform="matrix(0.16049382716049365,0,0,0.16049382716049365,176.3827160493825,0)" xlink:href="#X"/><use transform="matrix(0.16049382716049365,0,0,0.16049382716049365,189.0617283950615,0)" xlink:href="#af"/><use transform="matrix(0.16049382716049365,0,0,0.16049382716049365,221.16049382716022,0)" xlink:href="#Y"/><use transform="matrix(0.16049382716049365,0,0,0.16049382716049365,253.25925925925895,0)" xlink:href="#ag"/><use transform="matrix(0.16049382716049365,0,0,0.16049382716049365,285.3580246913577,0)" xlink:href="#ah"/><use transform="matrix(0.16049382716049365,0,0,0.16049382716049365,323.87654320987616,0)" xlink:href="#ai"/><use transform="matrix(0.16049382716049365,0,0,0.16049382716049365,355.97530864197495,0)" xlink:href="#ai"/></g><use transform="matrix(0.16049382716049365,0,0,0.16049382716049365,0,0)" xlink:href="#O" id="g"/><g id="h"><use transform="matrix(0.16049382716049365,0,0,0.16049382716049365,0,0)" xlink:href="#P"/><use transform="matrix(0.16049382716049365,0,0,0.16049382716049365,41.567901234567856,0)" xlink:href="#Q"/><use transform="matrix(0.16049382716049365,0,0,0.16049382716049365,73.66666666666659,0)" xlink:href="#R"/><use transform="matrix(0.16049382716049365,0,0,0.16049382716049365,86.34567901234558,0)" xlink:href="#S"/><use transform="matrix(0.16049382716049365,0,0,0.16049382716049365,115.23456790123444,0)" xlink:href="#T"/><use transform="matrix(0.16049382716049365,0,0,0.16049382716049365,147.33333333333317,0)" xlink:href="#R"/><use transform="matrix(0.16049382716049365,0,0,0.16049382716049365,160.01234567901218,0)" xlink:href="#Q"/><use transform="matrix(0.16049382716049365,0,0,0.16049382716049365,192.11111111111092,0)" xlink:href="#U"/><use transform="matrix(0.16049382716049365,0,0,0.16049382716049365,208.16049382716028,0)" xlink:href="#V"/><use transform="matrix(0.16049382716049365,0,0,0.16049382716049365,240.259259259259,0)" xlink:href="#W"/><use transform="matrix(0.16049382716049365,0,0,0.16049382716049365,259.35802469135774,0)" xlink:href="#X"/><use transform="matrix(0.16049382716049365,0,0,0.16049382716049365,272.0370370370367,0)" xlink:href="#Y"/><use transform="matrix(0.16049382716049365,0,0,0.16049382716049365,304.13580246913546,0)" xlink:href="#U"/><use transform="matrix(0.16049382716049365,0,0,0.16049382716049365,320.1851851851848,0)" xlink:href="#Z"/><use transform="matrix(0.16049382716049365,0,0,0.16049382716049365,336.2345679012342,0)" xlink:href="#X"/><use transform="matrix(0.16049382716049365,0,0,0.16049382716049365,348.91358024691317,0)" xlink:href="#Y"/><use transform="matrix(0.16049382716049365,0,0,0.16049382716049365,381.0123456790119,0)" xlink:href="#U"/><use transform="matrix(0.16049382716049365,0,0,0.16049382716049365,397.0617283950613,0)" xlink:href="#aa"/><use transform="matrix(0.16049382716049365,0,0,0.16049382716049365,416.16049382715994,0)" xlink:href="#ab"/><use transform="matrix(0.16049382716049365,0,0,0.16049382716049365,432.2098765432093,0)" xlink:href="#X"/><use transform="matrix(0.16049382716049365,0,0,0.16049382716049365,444.88888888888835,0)" xlink:href="#Y"/><use transform="matrix(0.16049382716049365,0,0,0.16049382716049365,476.9876543209871,0)" xlink:href="#U"/></g><path fill="#333" d="M151-256c18 14 23 31 33 44 11 0 14-21 4-28-5-6-16-14-34-21zM33-156c16-3 16-20 19-43h240c-7 16-13 30-19 39 17 3 21-31 46-31 10-1 10-10 3-14s-13-9-19-16l-13 13H52v-16h-4c6 23-42 55-15 68zm64-11c24 14 32 29 44 44 11 0 13-20 3-27-8-5-22-13-44-21zm-19 46c26 15 34 30 48 44 12 0 13-19 3-26-9-6-24-13-48-21zM34 54C105 37 159 9 187-51c20 51 58 78 103 97 9-9 21-14 37-14l1-3C262 16 221-5 193-53h117c12 0 13-9 3-12-10-6-17-13-23-20l-19 22h-80c10-21 2-87 14-108-6-4-20-4-29-9 9 11 4 101-4 117H33l5 10h130C137 9 107 23 33 51" id="aj"/><use transform="matrix(0.18518518518518493,0,0,0.18518518518518493,0,0)" xlink:href="#aj" id="i"/><path fill="#333" d="M17-33c5 4 13 38 20 21 32-16 65-24 113-50-22-1-47 14-65 16v-83h52c8 1 9-8 2-10-7-4-13-9-17-14l-15 15H85v-79h56c9 1 10-8 2-10-8-5-15-11-19-17l-17 18H18l5 9h46v79H21l5 9h43v88c-18 2-38 8-52 8zm288-191c-1-8 23-12 6-20-5-3-9-6-14-12l-11 12H177l-19-10c10 63 1 143 4 213 2 7 14-2 17-4v-189h109v185c2 7 15-1 17-4v-171zm-66 101c0-22-4-53 5-66l-26-8c3 2 5 27 5 74C223-10 180 15 97 53l2 2c85-26 140-62 140-178zm80 105c-4 32 7 58-30 53-21-3-27-1-27-15 0-33-7-82 7-101l-25-8c4 35 1 72 2 109 2 29 7 30 43 30 29 0 39 2 46-15-15-5-9-35-16-53" id="ak"/><use transform="matrix(0.18518518518518493,0,0,0.18518518518518493,0,0)" xlink:href="#ak" id="j"/><path fill="#333" d="M185-189c-5-48-123-54-124 2 14 75 158 14 163 119 3 78-121 87-175 55-17-10-28-26-33-46l33-7c5 56 141 63 141-1 0-78-155-14-162-118-5-82 145-84 179-34 5 7 8 16 11 25" id="al"/><path fill="#333" d="M115-194c53 0 69 39 70 98 0 66-23 100-70 100C84 3 66-7 56-30L54 0H23l1-261h32v101c10-23 28-34 59-34zm-8 174c40 0 45-34 45-75 0-40-5-75-45-74-42 0-51 32-51 76 0 43 10 73 51 73" id="am"/><g id="k"><use transform="matrix(0.16049382716049365,0,0,0.16049382716049365,0,0)" xlink:href="#ac"/><use transform="matrix(0.16049382716049365,0,0,0.16049382716049365,44.93827160493822,0)" xlink:href="#ad"/><use transform="matrix(0.16049382716049365,0,0,0.16049382716049365,77.03703703703695,0)" xlink:href="#V"/><use transform="matrix(0.16049382716049365,0,0,0.16049382716049365,109.13580246913568,0)" xlink:href="#ae"/><use transform="matrix(0.16049382716049365,0,0,0.16049382716049365,128.2345679012344,0)" xlink:href="#Q"/><use transform="matrix(0.16049382716049365,0,0,0.16049382716049365,160.33333333333314,0)" xlink:href="#U"/><use transform="matrix(0.16049382716049365,0,0,0.16049382716049365,176.3827160493825,0)" xlink:href="#X"/><use transform="matrix(0.16049382716049365,0,0,0.16049382716049365,189.0617283950615,0)" xlink:href="#af"/><use transform="matrix(0.16049382716049365,0,0,0.16049382716049365,221.16049382716022,0)" xlink:href="#Y"/><use transform="matrix(0.16049382716049365,0,0,0.16049382716049365,253.25925925925895,0)" xlink:href="#ag"/><use transform="matrix(0.16049382716049365,0,0,0.16049382716049365,285.3580246913577,0)" xlink:href="#al"/><use transform="matrix(0.16049382716049365,0,0,0.16049382716049365,323.87654320987616,0)" xlink:href="#T"/><use transform="matrix(0.16049382716049365,0,0,0.16049382716049365,355.97530864197495,0)" xlink:href="#am"/></g><path fill="#333" d="M240 0l2-218c-23 76-54 145-80 218h-23L58-218 59 0H30v-248h44l77 211c21-75 51-140 76-211h43V0h-30" id="an"/><g id="l"><use transform="matrix(0.16049382716049365,0,0,0.16049382716049365,0,0)" xlink:href="#ac"/><use transform="matrix(0.16049382716049365,0,0,0.16049382716049365,44.93827160493822,0)" xlink:href="#ad"/><use transform="matrix(0.16049382716049365,0,0,0.16049382716049365,77.03703703703695,0)" xlink:href="#V"/><use transform="matrix(0.16049382716049365,0,0,0.16049382716049365,109.13580246913568,0)" xlink:href="#ae"/><use transform="matrix(0.16049382716049365,0,0,0.16049382716049365,128.2345679012344,0)" xlink:href="#Q"/><use transform="matrix(0.16049382716049365,0,0,0.16049382716049365,160.33333333333314,0)" xlink:href="#U"/><use transform="matrix(0.16049382716049365,0,0,0.16049382716049365,176.3827160493825,0)" xlink:href="#X"/><use transform="matrix(0.16049382716049365,0,0,0.16049382716049365,189.0617283950615,0)" xlink:href="#af"/><use transform="matrix(0.16049382716049365,0,0,0.16049382716049365,221.16049382716022,0)" xlink:href="#Y"/><use transform="matrix(0.16049382716049365,0,0,0.16049382716049365,253.25925925925895,0)" xlink:href="#ag"/><use transform="matrix(0.16049382716049365,0,0,0.16049382716049365,285.3580246913577,0)" xlink:href="#an"/><use transform="matrix(0.16049382716049365,0,0,0.16049382716049365,333.3456790123452,0)" xlink:href="#T"/><use transform="matrix(0.16049382716049365,0,0,0.16049382716049365,365.44444444444395,0)" xlink:href="#R"/></g><path fill="#333" d="M141 0L90-78 38 0H4l68-98-65-92h35l48 74 47-74h35l-64 92 68 98h-35" id="ao"/><g id="m"><use transform="matrix(0.16049382716049365,0,0,0.16049382716049365,0,0)" xlink:href="#P"/><use transform="matrix(0.16049382716049365,0,0,0.16049382716049365,41.567901234567856,0)" xlink:href="#af"/><use transform="matrix(0.16049382716049365,0,0,0.16049382716049365,73.66666666666659,0)" xlink:href="#Y"/><use transform="matrix(0.16049382716049365,0,0,0.16049382716049365,105.76543209876532,0)" xlink:href="#U"/><use transform="matrix(0.16049382716049365,0,0,0.16049382716049365,121.81481481481468,0)" xlink:href="#V"/><use transform="matrix(0.16049382716049365,0,0,0.16049382716049365,153.9135802469134,0)" xlink:href="#ao"/><use transform="matrix(0.16049382716049365,0,0,0.16049382716049365,182.80246913580226,0)" xlink:href="#U"/></g><path fill="#333" d="M16-82v-28h88v28H16" id="ap"/><use transform="matrix(0.16049382716049365,0,0,0.16049382716049365,0,0)" xlink:href="#ap" id="n"/><path fill="#333" d="M33 0v-248h34V0H33" id="aq"/><g id="o"><use transform="matrix(0.16049382716049365,0,0,0.16049382716049365,0,0)" xlink:href="#ag"/><use transform="matrix(0.16049382716049365,0,0,0.16049382716049365,32.09876543209873,0)" xlink:href="#af"/><use transform="matrix(0.16049382716049365,0,0,0.16049382716049365,64.19753086419746,0)" xlink:href="#ad"/><use transform="matrix(0.16049382716049365,0,0,0.16049382716049365,96.29629629629619,0)" xlink:href="#V"/><use transform="matrix(0.16049382716049365,0,0,0.16049382716049365,128.39506172839492,0)" xlink:href="#ae"/><use transform="matrix(0.16049382716049365,0,0,0.16049382716049365,147.49382716049365,0)" xlink:href="#Q"/><use transform="matrix(0.16049382716049365,0,0,0.16049382716049365,179.59259259259238,0)" xlink:href="#U"/><use transform="matrix(0.16049382716049365,0,0,0.16049382716049365,195.64197530864175,0)" xlink:href="#X"/><use transform="matrix(0.16049382716049365,0,0,0.16049382716049365,208.32098765432073,0)" xlink:href="#af"/><use transform="matrix(0.16049382716049365,0,0,0.16049382716049365,240.41975308641946,0)" xlink:href="#Y"/><use transform="matrix(0.16049382716049365,0,0,0.16049382716049365,272.5185185185182,0)" xlink:href="#ab"/><use transform="matrix(0.16049382716049365,0,0,0.16049382716049365,288.56790123456756,0)" xlink:href="#aq"/><use transform="matrix(0.16049382716049365,0,0,0.16049382716049365,304.6172839506169,0)" xlink:href="#ac"/><use transform="matrix(0.16049382716049365,0,0,0.16049382716049365,349.5555555555552,0)" xlink:href="#ad"/><use transform="matrix(0.16049382716049365,0,0,0.16049382716049365,381.65432098765393,0)" xlink:href="#V"/><use transform="matrix(0.16049382716049365,0,0,0.16049382716049365,413.75308641975266,0)" xlink:href="#ae"/><use transform="matrix(0.16049382716049365,0,0,0.16049382716049365,432.8518518518513,0)" xlink:href="#Q"/><use transform="matrix(0.16049382716049365,0,0,0.16049382716049365,464.95061728395,0)" xlink:href="#U"/><use transform="matrix(0.16049382716049365,0,0,0.16049382716049365,480.9999999999994,0)" xlink:href="#X"/><use transform="matrix(0.16049382716049365,0,0,0.16049382716049365,493.6790123456784,0)" xlink:href="#af"/><use transform="matrix(0.16049382716049365,0,0,0.16049382716049365,525.7777777777771,0)" xlink:href="#Y"/></g><g id="p"><use transform="matrix(0.16049382716049365,0,0,0.16049382716049365,0,0)" xlink:href="#V"/><use transform="matrix(0.16049382716049365,0,0,0.16049382716049365,32.09876543209873,0)" xlink:href="#ao"/><use transform="matrix(0.16049382716049365,0,0,0.16049382716049365,60.98765432098759,0)" xlink:href="#V"/><use transform="matrix(0.16049382716049365,0,0,0.16049382716049365,93.08641975308632,0)" xlink:href="#S"/><use transform="matrix(0.16049382716049365,0,0,0.16049382716049365,121.97530864197518,0)" xlink:href="#T"/><use transform="matrix(0.16049382716049365,0,0,0.16049382716049365,154.0740740740739,0)" xlink:href="#U"/><use transform="matrix(0.16049382716049365,0,0,0.16049382716049365,170.12345679012327,0)" xlink:href="#V"/><use transform="matrix(0.16049382716049365,0,0,0.16049382716049365,202.222222222222,0)" xlink:href="#W"/><use transform="matrix(0.16049382716049365,0,0,0.16049382716049365,221.32098765432073,0)" xlink:href="#X"/><use transform="matrix(0.16049382716049365,0,0,0.16049382716049365,233.99999999999972,0)" xlink:href="#Y"/><use transform="matrix(0.16049382716049365,0,0,0.16049382716049365,266.09876543209845,0)" xlink:href="#U"/><use transform="matrix(0.16049382716049365,0,0,0.16049382716049365,282.1481481481478,0)" xlink:href="#Z"/><use transform="matrix(0.16049382716049365,0,0,0.16049382716049365,298.1975308641972,0)" xlink:href="#X"/><use transform="matrix(0.16049382716049365,0,0,0.16049382716049365,310.87654320987616,0)" xlink:href="#Y"/><use transform="matrix(0.16049382716049365,0,0,0.16049382716049365,342.97530864197483,0)" xlink:href="#U"/><use transform="matrix(0.16049382716049365,0,0,0.16049382716049365,359.0246913580242,0)" xlink:href="#aa"/><use transform="matrix(0.16049382716049365,0,0,0.16049382716049365,378.123456790123,0)" xlink:href="#ab"/><use transform="matrix(0.16049382716049365,0,0,0.16049382716049365,394.17283950617235,0)" xlink:href="#X"/><use transform="matrix(0.16049382716049365,0,0,0.16049382716049365,406.85185185185134,0)" xlink:href="#Y"/><use transform="matrix(0.16049382716049365,0,0,0.16049382716049365,438.95061728395007,0)" xlink:href="#U"/></g><g id="r"><use transform="matrix(0.16049382716049365,0,0,0.16049382716049365,0,0)" xlink:href="#P"/><use transform="matrix(0.16049382716049365,0,0,0.16049382716049365,41.567901234567856,0)" xlink:href="#af"/><use transform="matrix(0.16049382716049365,0,0,0.16049382716049365,73.66666666666659,0)" xlink:href="#Y"/><use transform="matrix(0.16049382716049365,0,0,0.16049382716049365,105.76543209876532,0)" xlink:href="#U"/><use transform="matrix(0.16049382716049365,0,0,0.16049382716049365,121.81481481481468,0)" xlink:href="#V"/><use transform="matrix(0.16049382716049365,0,0,0.16049382716049365,153.9135802469134,0)" xlink:href="#ao"/><use transform="matrix(0.16049382716049365,0,0,0.16049382716049365,182.80246913580226,0)" xlink:href="#U"/><use transform="matrix(0.16049382716049365,0,0,0.16049382716049365,198.85185185185162,0)" xlink:href="#W"/><use transform="matrix(0.16049382716049365,0,0,0.16049382716049365,217.95061728395035,0)" xlink:href="#aq"/><use transform="matrix(0.16049382716049365,0,0,0.16049382716049365,233.99999999999972,0)" xlink:href="#ac"/><use transform="matrix(0.16049382716049365,0,0,0.16049382716049365,278.93827160493794,0)" xlink:href="#ad"/><use transform="matrix(0.16049382716049365,0,0,0.16049382716049365,311.03703703703667,0)" xlink:href="#V"/><use transform="matrix(0.16049382716049365,0,0,0.16049382716049365,343.13580246913546,0)" xlink:href="#ae"/><use transform="matrix(0.16049382716049365,0,0,0.16049382716049365,362.2345679012341,0)" xlink:href="#Q"/><use transform="matrix(0.16049382716049365,0,0,0.16049382716049365,394.3333333333328,0)" xlink:href="#U"/><use transform="matrix(0.16049382716049365,0,0,0.16049382716049365,410.38271604938217,0)" xlink:href="#X"/><use transform="matrix(0.16049382716049365,0,0,0.16049382716049365,423.0617283950612,0)" xlink:href="#af"/><use transform="matrix(0.16049382716049365,0,0,0.16049382716049365,455.16049382715994,0)" xlink:href="#Y"/><use transform="matrix(0.16049382716049365,0,0,0.16049382716049365,487.25925925925867,0)" xlink:href="#aa"/></g><path fill="#333" d="M15-132c30-40 55-93 66-152l35 9-26 82v110c37-29 69-68 88-115h-72v-32h83v-52h36v52h92v32h-87c1 26 8 50 15 72 17-17 35-37 48-59l25 22c-17 24-42 49-62 70 16 39 38 76 67 103l-29 26c-44-53-78-122-92-205-7 14-15 27-23 39v117l64-20 4 32c-42 16-94 28-137 41L100 5l45-9 1-83c-14 15-28 27-43 39L90-71V43H54v-168c-7 12-12 19-20 30" id="ar"/><use transform="matrix(0.18518518518518493,0,0,0.18518518518518493,0,0)" xlink:href="#ar" id="s"/><path fill="#333" d="M156-141c1-7 19-14 4-21-4-3-9-6-14-12-6 12-24 12-43 11v-33h63c9 1 9-7 2-11-8-4-14-9-18-15l-15 16h-32c1-16-3-39 6-46-3-7-20-5-25-9 3 9 2 38 2 55H19l6 10h61v33c-23 1-45 0-57-10 8 27 2 65 4 98 3 5 20 1 17-11h29C61-34 50-29 19 18 50-7 68-25 86-61c2 37-4 82 2 115 5-3 14-2 15-8V-65c15 15 18 18 27 41 2 5 6 8 10 8 6-1 9-6 8-15-5-17-25-27-45-39v-16h37c-2 11 7 7 13 4 8-13 1-40 3-59zM50-96v-57h36v57H50zm53-57h37v57h-37v-57zm124-66c4-13 11-23 22-28-6-6-17-8-25-15-16 55-24 74-56 109l1 4c4-3 9-6 13-9l3 150c4-2 13-2 14-7v-137h101c2 46-4 99 2 141 5-2 13-2 14-7v-123c-1-8 23-13 6-21-5-3-9-6-14-12l-11 12h-47c16-9 29-30 49-40s-13-15-15-28c-8 15-35 11-57 11zm-37 54c13-12 23-29 32-45h51c-8 17-17 33-28 48-18-1-41 3-55-3zm66 95c0-17-2-37 5-46-5-5-18-4-26-8 19 95-19 158-89 177l2 2c72-21 104-44 108-125zm8 61l-3 3c22 17 39 30 46 43 9 16 21 17 21-4-10-21-24-21-64-42" id="as"/><use transform="matrix(0.18518518518518493,0,0,0.18518518518518493,0,0)" xlink:href="#as" id="t"/><path fill="#333" d="M614-1226c-167 1-283 53-283 213 0 183 186 193 334 234 230 63 463 120 463 409 0 286-219 387-518 390C309 23 131-98 79-338l185-37c34 165 149 248 351 246 184-2 324-58 324-238 0-203-207-221-372-266-210-57-422-111-422-377 0-267 201-356 470-360 279-5 430 101 480 324l-188 33c-28-141-121-215-293-213" id="at"/><path fill="#333" d="M682 16c-209 0-323-80-324-285v-671H190v-142h170l58-282h120v282h432v142H538v652c2 114 60 155 182 155 106 0 209-16 297-34v137C921-4 806 16 682 16" id="au"/><path fill="#333" d="M839-1102c70 0 148 7 206 17v167c-112-18-268-36-363 15-129 69-208 203-208 395V0H294c-10-367 32-789-52-1082h171c21 75 41 161 48 250h5c67-152 152-270 373-270" id="av"/><path fill="#333" d="M1000-272c3 95 12 159 101 161 21 0 41-3 59-7V-6c-44 10-86 16-139 16-141 2-191-84-197-217h-6C748-76 648 20 446 20c-207 0-318-120-318-322 0-266 194-348 454-354l236-4c12-191-40-305-222-305-140 0-220 47-232 172l-188-17c33-204 181-292 423-292 255 0 401 118 401 364v466zm-683-27c0 109 63 184 175 182 166-3 259-96 306-217 24-65 20-120 20-200-232 7-501-28-501 235" id="aw"/><path fill="#333" d="M617-1102c355 0 481 238 477 599H322c5 222 84 388 301 388 144 0 244-59 284-166l158 45C1002-72 854 20 623 20c-342 0-490-220-490-568 0-346 151-554 484-554zm291 461c-18-192-90-328-289-328-194 0-287 128-295 328h584" id="ax"/><path fill="#333" d="M1048-32c-2 300-135 456-433 456-222-1-358-88-400-267l184-25c22 99 100 157 222 156 184-2 248-125 248-315 0-64 3-133-2-194C807-100 706-13 524-12c-306 0-381-228-381-537 0-318 85-550 400-550 164 0 271 83 325 202h3c1-60 3-134 12-185h171c-13 339-4 702-6 1050zM585-145c210-8 284-178 284-406 0-192-52-331-177-392-33-16-69-22-104-22-223 2-259 184-259 414 0 229 31 415 256 406" id="ay"/><path fill="#333" d="M168 279c222 39 310-114 368-290L66-1082h192c120 299 249 590 362 896 115-301 235-597 351-896h190L705 0c-65 164-130 320-275 396-67 36-177 35-262 18V279" id="az"/><path fill="#333" d="M891-1484c-201 251-362 514-362 954 0 441 161 704 362 955H701C500 176 342-90 342-532c0-440 159-704 359-952h190" id="aA"/><g id="u"><use transform="matrix(0.06510416666666667,0,0,0.06510416666666667,0,0)" xlink:href="#at"/><use transform="matrix(0.06510416666666667,0,0,0.06510416666666667,80.01302083333334,0)" xlink:href="#au"/><use transform="matrix(0.06510416666666667,0,0,0.06510416666666667,160.02604166666669,0)" xlink:href="#av"/><use transform="matrix(0.06510416666666667,0,0,0.06510416666666667,240.03906250000003,0)" xlink:href="#aw"/><use transform="matrix(0.06510416666666667,0,0,0.06510416666666667,320.05208333333337,0)" xlink:href="#au"/><use transform="matrix(0.06510416666666667,0,0,0.06510416666666667,400.06510416666674,0)" xlink:href="#ax"/><use transform="matrix(0.06510416666666667,0,0,0.06510416666666667,480.0781250000001,0)" xlink:href="#ay"/><use transform="matrix(0.06510416666666667,0,0,0.06510416666666667,560.0911458333335,0)" xlink:href="#az"/><use transform="matrix(0.06510416666666667,0,0,0.06510416666666667,640.1041666666669,0)" xlink:href="#aA"/></g><path fill="#333" d="M1035-597c171 296 444 523 779 649l-63 125c-307-131-552-347-734-603l6 671H892l6-660C727-165 471 46 181 182L113 57C437-74 710-307 875-597H431v375H300v-484h592v-159H164v-108h728v-137h102l-85-63c91-125 165-262 216-432l131 28c-17 51-23 97-51 142h586v108h-341l74 182-119 46-80-228h-171c-40 119-154 165-131 353h734v108h-734v159h620c-17 239 102 580-273 489l-34-125c51 11 171 46 171-40v-216h-472zm-904-546c119-125 216-284 279-455l131 34-57 131h506v108H700l74 182-119 46c-23-85-57-154-85-228H428c-57 102-125 193-205 279" id="aB"/><use transform="matrix(0.06510416666666667,0,0,0.06510416666666667,0,0)" xlink:href="#aB" id="v"/><path fill="#333" d="M774-1064c148-137 279-319 347-529l114 34c-17 46-28 91-51 137h432l91 80c-80 182-182 341-307 472 125 102 262 188 427 239l-57 114c-176-68-324-159-455-273-137 125-302 228-484 307l-57-108v558H660v-125H296V1H177v-1490h597v427zm779 1201h-478v102H950v-768h734v757h-131v-91zM1075 28h478v-449h-478V28zm154-898c-80-85-154-182-210-284-51 68-102 137-171 188l-74-85v455c176-68 324-159 455-273zm-103-450c-85 131 108 267 182 370 108-114 193-233 256-370h-438zM296-267h131v-506H296v506zm233 0h131v-506H529v506zM296-882h131v-506H296v506zm233-506v506h131v-506H529" id="aC"/><use transform="matrix(0.06510416666666667,0,0,0.06510416666666667,0,0)" xlink:href="#aC" id="w"/><path fill="#333" d="M1326-210c125 165 273 262 501 330l-57 119c-239-74-421-228-552-410-108 210-284 330-535 415l-57-114c228-74 387-154 472-341H683v-114h461c11-51 17-108 23-165H809v-637h859v637h-370c-6 57-17 114-28 165h529v114h-472zm-842-882c46 193 125 398 233 523l-68 125c-80-125-137-273-182-427l11 1109H347l11-1018c-40 205-91 347-176 518l-80-102c108-205 171-444 216-728H119v-114h228v-381h131v381h233v114H483zm483-86v-137H694v-114h273v-159h131v159h273v-159h131v159h290v114h-290v137h-131v-137h-273v137H967zm-28 586h603v-176H939v176zm0-273h603v-159H939v159" id="aD"/><use transform="matrix(0.06510416666666667,0,0,0.06510416666666667,0,0)" xlink:href="#aD" id="x"/><path fill="#333" d="M1599 63c80-51 68-176 91-284l119 63c-34 171-68 427-296 341-302-256-375-722-432-1274H165v-114h910c-6-119-11-245-11-381h131l6 381h558v114h-546c28 455 114 865 336 1126 17 17 34 28 51 28zM677-40l404-80 17 119-916 159-23-125 381-57v-626H204v-114h814v114H677v609zm853-1217c-68-80-148-154-233-216l80-85c91 57 171 125 245 205" id="aE"/><path fill="#333" d="M528-1484c201 248 357 511 357 952 0 442-156 709-357 957H336C537 174 700-89 700-530c0-440-163-703-364-954h192" id="aF"/><g id="y"><use transform="matrix(0.06510416666666667,0,0,0.06510416666666667,0,0)" xlink:href="#aE"/><use transform="matrix(0.06510416666666667,0,0,0.06510416666666667,125.19531250000001,0)" xlink:href="#aF"/></g></defs></g></svg>