<svg xmlns="http://www.w3.org/2000/svg" xmlns:xlink="http://www.w3.org/1999/xlink" xmlns:lucid="lucid" width="730.3" height="178"><g transform="translate(-440 -460)" lucid:page-tab-id="0_0"><path d="M460 480h252.07v138H460z" fill-opacity="0"/><path d="M712.07 480H840.6v138H712.06z" fill-opacity="0"/><path d="M840.6 480h64.63v138H840.6z" fill="#b2b2b2"/><path d="M905.23 480h71.37v138h-71.37zM976.6 480h173.7v138H976.6z" fill-opacity="0"/><path d="M460 480v138M1150.3 480v138M460 480h252.07M460 618h252.07M712.07 480H840.6M712.07 618H840.6M840.6 480h64.63M840.6 618h64.63M905.23 480h71.37M905.23 618h71.37M976.6 480h173.7M976.6 618h173.7" stroke="#000" stroke-opacity="0" stroke-width="3" fill="none"/><use xlink:href="#a" transform="matrix(1,0,0,1,465,485) translate(0.9259259259258954 85.33333333333334)"/><use xlink:href="#b" transform="matrix(1,0,0,1,717.0740740740741,485) translate(0.24074074074073337 85.33333333333334)"/><use xlink:href="#c" transform="matrix(1,0,0,1,910.2260388318294,485) translate(1.3703703703703667 85.33333333333334)"/><use xlink:href="#d" transform="matrix(1,0,0,1,981.5982375262402,485) translate(0 85.33333333333334)"/><defs><path d="M115-194c55 1 70 41 70 98S169 2 115 4C84 4 66-9 55-30l1 105H24l-1-265h31l2 30c10-21 28-34 59-34zm-8 174c40 0 45-34 45-75s-6-73-45-74c-42 0-51 32-51 76 0 43 10 73 51 73" id="e"/><path d="M114-163C36-179 61-72 57 0H25l-1-190h30c1 12-1 29 2 39 6-27 23-49 58-41v29" id="f"/><path d="M24-231v-30h32v30H24zM24 0v-190h32V0H24" id="g"/><path d="M117-194c89-4 53 116 60 194h-32v-121c0-31-8-49-39-48C34-167 62-67 57 0H25l-1-190h30c1 10-1 24 2 32 11-22 29-35 61-36" id="h"/><path d="M59-47c-2 24 18 29 38 22v24C64 9 27 4 27-40v-127H5v-23h24l9-43h21v43h35v23H59v120" id="i"/><path d="M87 75C49 33 22-17 22-94c0-76 28-126 65-167h31c-38 41-64 92-64 168S80 34 118 75H87" id="j"/><g id="a"><use transform="matrix(0.29629629629629634,0,0,0.29629629629629634,0,0)" xlink:href="#e"/><use transform="matrix(0.29629629629629634,0,0,0.29629629629629634,59.25925925925927,0)" xlink:href="#f"/><use transform="matrix(0.29629629629629634,0,0,0.29629629629629634,94.51851851851853,0)" xlink:href="#g"/><use transform="matrix(0.29629629629629634,0,0,0.29629629629629634,117.92592592592595,0)" xlink:href="#h"/><use transform="matrix(0.29629629629629634,0,0,0.29629629629629634,177.18518518518522,0)" xlink:href="#i"/><use transform="matrix(0.29629629629629634,0,0,0.29629629629629634,206.81481481481484,0)" xlink:href="#j"/></g><path d="M27 0v-27h64v-190l-56 39v-29l58-41h29v221h61V0H27" id="k"/><path d="M101-251c68 0 85 55 85 127S166 4 100 4C33 4 14-52 14-124c0-73 17-127 87-127zm-1 229c47 0 54-49 54-102s-4-102-53-102c-51 0-55 48-55 102 0 53 5 102 54 102" id="l"/><g id="b"><use transform="matrix(0.29629629629629634,0,0,0.29629629629629634,0,0)" xlink:href="#k"/><use transform="matrix(0.29629629629629634,0,0,0.29629629629629634,59.25925925925927,0)" xlink:href="#l"/></g><path d="M33 0v-38h34V0H33" id="m"/><g id="c"><use transform="matrix(0.29629629629629634,0,0,0.29629629629629634,0,0)" xlink:href="#m"/><use transform="matrix(0.29629629629629634,0,0,0.29629629629629634,29.629629629629633,0)" xlink:href="#m"/></g><path d="M101-251c82-7 93 87 43 132L82-64C71-53 59-42 53-27h129V0H18c2-99 128-94 128-182 0-28-16-43-45-43s-46 15-49 41l-32-3c6-41 34-60 81-64" id="n"/><path d="M33-261c38 41 65 92 65 168S71 34 33 75H2C39 34 66-17 66-93S39-220 2-261h31" id="o"/><g id="d"><use transform="matrix(0.29629629629629634,0,0,0.29629629629629634,0,0)" xlink:href="#n"/><use transform="matrix(0.29629629629629634,0,0,0.29629629629629634,59.25925925925927,0)" xlink:href="#l"/><use transform="matrix(0.29629629629629634,0,0,0.29629629629629634,118.51851851851853,0)" xlink:href="#o"/></g></defs></g></svg>